<svg id="chat" xmlns="http://www.w3.org/2000/svg" width="43.624" height="43.624" viewBox="0 0 43.624 43.624">
  <g id="Сгруппировать_975" data-name="Сгруппировать 975" transform="translate(8.179 8.179)">
    <g id="Сгруппировать_974" data-name="Сгруппировать 974">
      <path id="Контур_467" data-name="Контур 467" d="M113.722,96H97.363a1.363,1.363,0,0,0,0,2.726h16.359a1.363,1.363,0,1,0,0-2.726Z" transform="translate(-96 -96)"/>
    </g>
  </g>
  <g id="Сгруппировать_977" data-name="Сгруппировать 977" transform="translate(8.179 13.632)">
    <g id="Сгруппировать_976" data-name="Сгруппировать 976">
      <path id="Контур_468" data-name="Контур 468" d="M108.269,160H97.363a1.363,1.363,0,0,0,0,2.727h10.906a1.363,1.363,0,0,0,0-2.727Z" transform="translate(-96 -160)"/>
    </g>
  </g>
  <g id="Сгруппировать_979" data-name="Сгруппировать 979">
    <g id="Сгруппировать_978" data-name="Сгруппировать 978">
      <path id="Контур_469" data-name="Контур 469" d="M29.991,0H5.453A5.458,5.458,0,0,0,0,5.453V32.718a1.362,1.362,0,0,0,.785,1.235,1.383,1.383,0,0,0,.578.128,1.363,1.363,0,0,0,.872-.316l7.8-6.5H29.991a5.458,5.458,0,0,0,5.453-5.453V5.453A5.458,5.458,0,0,0,29.991,0Zm2.726,21.812a2.729,2.729,0,0,1-2.726,2.726H9.543a1.362,1.362,0,0,0-.872.316L2.726,29.809V5.453A2.729,2.729,0,0,1,5.453,2.726H29.991a2.729,2.729,0,0,1,2.726,2.726Z"/>
    </g>
  </g>
  <g id="Сгруппировать_981" data-name="Сгруппировать 981" transform="translate(10.906 10.906)">
    <g id="Сгруппировать_980" data-name="Сгруппировать 980">
      <path id="Контур_470" data-name="Контур 470" d="M155.265,128a1.363,1.363,0,1,0,0,2.726,2.729,2.729,0,0,1,2.727,2.727v23.063l-4.6-3.681a1.374,1.374,0,0,0-.851-.3H133.453a2.729,2.729,0,0,1-2.727-2.726v-1.363a1.363,1.363,0,1,0-2.726,0v1.363a5.458,5.458,0,0,0,5.453,5.453h18.606l6.443,5.156a1.364,1.364,0,0,0,2.217-1.066v-25.9A5.458,5.458,0,0,0,155.265,128Z" transform="translate(-128 -128)"/>
    </g>
  </g>
</svg>
