<svg xmlns="http://www.w3.org/2000/svg" width="21.354" height="16.015" viewBox="0 0 21.354 16.015">
  <path id="email" d="M19.352,64H2a2,2,0,0,0-2,2V78.013a2,2,0,0,0,2,2h17.35a2,2,0,0,0,2-2V66A2,2,0,0,0,19.352,64Zm0,2v1.7c-.935.762-2.426,1.946-5.613,4.441-.7.552-2.094,1.88-3.062,1.864-.968.016-2.36-1.312-3.062-1.864C4.428,69.65,2.937,68.465,2,67.7V66ZM2,78.013V70.272c.956.761,2.311,1.829,4.377,3.447.912.718,2.508,2.3,4.3,2.292,1.782.01,3.358-1.551,4.3-2.292,2.066-1.617,3.421-2.686,4.377-3.447v7.741Z" transform="translate(0 -64)" fill="#bbe6e4"/>
</svg>
