<svg xmlns="http://www.w3.org/2000/svg" width="25.724" height="19.284" viewBox="0 0 25.724 19.284">
  <path id="envelope" d="M25.5,70.6v12.68H-.213V70.609a.3.3,0,0,1,.487-.236c1.125.874,2.616,1.984,7.739,5.7,1.06.773,2.847,2.4,4.63,2.39,1.793.015,3.616-1.647,4.635-2.39C22.4,72.356,25.5,70.358,25.5,70.6ZM12.643,76.856c1.165.02,2.842-1.466,3.686-2.079,6.664-4.836,7.171-5.258,8.708-6.463a1.2,1.2,0,0,0,.462-.949V64H-.213s-.025,1.777,0,3.365a1.209,1.209,0,0,0,.462.949c1.537,1.2,2.044,1.627,8.708,6.463C9.8,75.39,11.478,76.876,12.643,76.856Z" transform="translate(0.225 -64)" fill="#bbe6e4"/>
</svg>
