<svg xmlns="http://www.w3.org/2000/svg" width="33.678" height="23.677" viewBox="0 0 33.678 23.677">
  <path id="Контур_42" data-name="Контур 42" d="M47.875,67.706a4.227,4.227,0,0,0-2.978-3C42.27,64,31.739,64,31.739,64s-10.531,0-13.158.709a4.227,4.227,0,0,0-2.978,3,47.686,47.686,0,0,0,0,16.315,4.172,4.172,0,0,0,2.978,2.947c2.627.709,13.158.709,13.158.709s10.531,0,13.158-.709a4.172,4.172,0,0,0,2.978-2.947,47.686,47.686,0,0,0,0-16.315ZM28.292,80.87V70.856l8.8,5.007-8.8,5.007Z" transform="translate(-14.9 -64)" fill="#fff"/>
</svg>
