<svg xmlns="http://www.w3.org/2000/svg" xmlns:xlink="http://www.w3.org/1999/xlink" width="541" height="239" viewBox="0 0 541 239">
  <defs>
    <clipPath id="clip-path">
      <rect id="Прямоугольник_7775" data-name="Прямоугольник 7775" width="541" height="239" transform="translate(899 1109)" fill="#fff" stroke="#707070" stroke-width="1"/>
    </clipPath>
  </defs>
  <g id="Группа_масок_36" data-name="Группа масок 36" transform="translate(-899 -1109)" opacity="0.15" clip-path="url(#clip-path)">
    <g id="Сгруппировать_1205" data-name="Сгруппировать 1205" transform="translate(645.742 1009.508)" style="isolation: isolate">
      <g id="Сгруппировать_969" data-name="Сгруппировать 969" transform="translate(160.583 101.333)">
        <g id="Сгруппировать_935" data-name="Сгруппировать 935">
          <g id="Сгруппировать_908" data-name="Сгруппировать 908" transform="translate(566.936)">
            <path id="Контур_43" data-name="Контур 43" d="M600.111,170.066l-29.752,17.178-36.872-21.29V123.377l36.872-21.289,29.752,17.178v-1.216l-29.752-17.177L532.7,122.617l-.263.151v43.794l37.925,21.9,29.752-17.178Z" transform="translate(-532.434 -100.872)" fill="#bbe6e4"/>
          </g>
          <g id="Сгруппировать_909" data-name="Сгруппировать 909" transform="translate(305.138 64.778)">
            <path id="Контур_44" data-name="Контур 44" d="M398.649,230.946l-37.927-21.9V165.257l.262-.151,37.664-21.746,37.927,21.9V209.05l-.264.151ZM361.774,208.44l36.875,21.29,36.873-21.29V165.865l-36.873-21.29-36.875,21.29Z" transform="translate(-360.722 -143.36)" fill="#bbe6e4"/>
          </g>
          <g id="Сгруппировать_910" data-name="Сгруппировать 910" transform="translate(379.938 64.778)">
            <path id="Контур_45" data-name="Контур 45" d="M447.708,230.946l-37.925-21.9V165.257l.264-.151,37.661-21.746,37.927,21.9V209.05l-.264.151ZM410.837,208.44l36.872,21.29,36.873-21.29V165.865l-36.873-21.29-36.872,21.29Z" transform="translate(-409.783 -143.36)" fill="#bbe6e4"/>
          </g>
          <g id="Сгруппировать_911" data-name="Сгруппировать 911" transform="translate(454.737 64.778)">
            <path id="Контур_46" data-name="Контур 46" d="M496.77,230.946l-37.927-21.9V165.257l.264-.151L496.77,143.36l37.925,21.9V209.05l-.264.151ZM459.9,208.44l36.873,21.29,36.872-21.29V165.865l-36.872-21.29L459.9,165.865Z" transform="translate(-458.843 -143.36)" fill="#bbe6e4"/>
          </g>
          <g id="Сгруппировать_912" data-name="Сгруппировать 912" transform="translate(529.535 64.778)">
            <path id="Контур_47" data-name="Контур 47" d="M545.83,230.946,507.9,209.05V165.257l.264-.151L545.83,143.36l37.925,21.9V209.05l-.264.151ZM508.956,208.44l36.873,21.29L582.7,208.44V165.865l-36.872-21.29-36.873,21.29Z" transform="translate(-507.903 -143.36)" fill="#bbe6e4"/>
          </g>
          <g id="Сгруппировать_913" data-name="Сгруппировать 913" transform="translate(604.334 69.194)">
            <path id="Контур_48" data-name="Контур 48" d="M587.242,223.8l-29.226-16.874V164.345l29.226-16.874v-1.215l-30.015,17.329-.263.151V207.53l30.279,17.481Z" transform="translate(-556.964 -146.256)" fill="#bbe6e4"/>
          </g>
          <g id="Сгруппировать_914" data-name="Сгруппировать 914" transform="translate(267.739 129.555)">
            <path id="Контур_49" data-name="Контур 49" d="M374.117,273.434l-37.925-21.9v-43.8l.264-.151,37.661-21.746,37.927,21.9v43.8l-.264.151Zm-36.872-22.505,36.872,21.288,36.873-21.288V208.352l-36.873-21.288-36.872,21.288Z" transform="translate(-336.192 -185.847)" fill="#bbe6e4"/>
          </g>
          <g id="Сгруппировать_915" data-name="Сгруппировать 915" transform="translate(342.538 129.555)">
            <path id="Контур_50" data-name="Контур 50" d="M423.18,273.434l-37.928-21.9v-43.8l.264-.151,37.665-21.746,37.924,21.9v43.8l-.262.151Zm-36.875-22.505,36.875,21.288,36.872-21.288V208.352L423.18,187.064l-36.875,21.288Z" transform="translate(-385.252 -185.847)" fill="#bbe6e4"/>
          </g>
          <g id="Сгруппировать_916" data-name="Сгруппировать 916" transform="translate(417.338 129.555)">
            <path id="Контур_51" data-name="Контур 51" d="M472.24,273.434l-37.927-21.9v-43.8l.262-.151,37.664-21.746,37.927,21.9v43.8l-.264.151Zm-36.875-22.505,36.875,21.288,36.873-21.288V208.352L472.24,187.064l-36.875,21.288Z" transform="translate(-434.313 -185.847)" fill="#bbe6e4"/>
          </g>
          <g id="Сгруппировать_917" data-name="Сгруппировать 917" transform="translate(492.138 129.555)">
            <path id="Контур_52" data-name="Контур 52" d="M521.3,273.434l-37.925-21.9v-43.8l.264-.151L521.3,185.847l37.927,21.9v43.8l-.264.151Zm-36.872-22.505L521.3,272.217l36.873-21.288V208.352L521.3,187.064l-36.872,21.288Z" transform="translate(-483.374 -185.847)" fill="#bbe6e4"/>
          </g>
          <g id="Сгруппировать_918" data-name="Сгруппировать 918" transform="translate(566.936 129.556)">
            <path id="Контур_53" data-name="Контур 53" d="M600.111,255.041l-29.752,17.177-36.872-21.288V208.352l36.872-21.289,29.752,17.178v-1.216l-29.752-17.177L532.7,207.593l-.263.151v43.794l37.925,21.9,29.752-17.177Z" transform="translate(-532.434 -185.847)" fill="#bbe6e4"/>
          </g>
          <g id="Сгруппировать_919" data-name="Сгруппировать 919" transform="translate(155.542 194.334)">
            <path id="Контур_54" data-name="Контур 54" d="M300.529,315.922l-37.927-21.9v-43.8l.262-.151,37.665-21.744,37.924,21.9v43.8l-.262.151Zm-36.875-22.505,36.875,21.288L337.4,293.417V250.84l-36.872-21.288L263.654,250.84Z" transform="translate(-262.602 -228.335)" fill="#bbe6e4"/>
          </g>
          <g id="Сгруппировать_920" data-name="Сгруппировать 920" transform="translate(230.34 194.334)">
            <path id="Контур_55" data-name="Контур 55" d="M349.589,315.922l-37.927-21.9v-43.8l.262-.151,37.664-21.744,37.924,21.9v43.8l-.262.151Zm-36.875-22.505,36.875,21.288,36.872-21.288V250.84l-36.872-21.288L312.714,250.84Z" transform="translate(-311.662 -228.335)" fill="#bbe6e4"/>
          </g>
          <g id="Сгруппировать_921" data-name="Сгруппировать 921" transform="translate(305.138 194.334)">
            <path id="Контур_56" data-name="Контур 56" d="M398.649,315.922l-37.927-21.9v-43.8l.262-.151,37.664-21.744,37.927,21.9v43.8l-.264.151Zm-36.875-22.505,36.875,21.288,36.873-21.288V250.84l-36.873-21.288L361.774,250.84Z" transform="translate(-360.722 -228.335)" fill="#bbe6e4"/>
          </g>
          <g id="Сгруппировать_922" data-name="Сгруппировать 922" transform="translate(379.938 194.334)">
            <path id="Контур_57" data-name="Контур 57" d="M447.708,315.922l-37.925-21.9v-43.8l.264-.151,37.661-21.744,37.927,21.9v43.8l-.264.151Zm-36.872-22.505,36.872,21.288,36.873-21.288V250.84l-36.873-21.288L410.837,250.84Z" transform="translate(-409.783 -228.335)" fill="#bbe6e4"/>
          </g>
          <g id="Сгруппировать_923" data-name="Сгруппировать 923" transform="translate(454.737 194.334)">
            <path id="Контур_58" data-name="Контур 58" d="M496.77,315.922l-37.927-21.9v-43.8l.264-.151,37.663-21.744,37.925,21.9v43.8l-.264.151ZM459.9,293.417l36.873,21.288,36.872-21.288V250.84L496.77,229.552,459.9,250.84Z" transform="translate(-458.843 -228.335)" fill="#bbe6e4"/>
          </g>
          <g id="Сгруппировать_924" data-name="Сгруппировать 924" transform="translate(529.535 194.334)">
            <path id="Контур_59" data-name="Контур 59" d="M545.83,315.922l-37.927-21.9v-43.8l.264-.151,37.663-21.744,37.925,21.9v43.8l-.264.151Zm-36.873-22.505,36.873,21.288L582.7,293.417V250.84L545.83,229.552,508.956,250.84Z" transform="translate(-507.903 -228.335)" fill="#bbe6e4"/>
          </g>
          <g id="Сгруппировать_925" data-name="Сгруппировать 925" transform="translate(604.334 198.75)">
            <path id="Контур_60" data-name="Контур 60" d="M587.242,308.771,558.016,291.9V249.32l29.226-16.873v-1.216L557.227,248.56l-.263.151v43.794l30.279,17.481Z" transform="translate(-556.964 -231.231)" fill="#bbe6e4"/>
          </g>
          <g id="Сгруппировать_926" data-name="Сгруппировать 926" transform="translate(0 259.112)">
            <path id="Контур_61" data-name="Контур 61" d="M167.051,270.823l-6.468,3.735v1.215l6.468-3.735,36.874,21.29v23.636h1.053V292.719Z" transform="translate(-160.583 -270.823)" fill="#bbe6e4"/>
          </g>
          <g id="Сгруппировать_927" data-name="Сгруппировать 927" transform="translate(43.342 259.112)">
            <path id="Контур_62" data-name="Контур 62" d="M190.064,316.963V293.328l36.874-21.29,36.872,21.29v23.636h1.053V292.719l-37.925-21.9-37.664,21.745-.263.151v24.244Z" transform="translate(-189.011 -270.823)" fill="#bbe6e4"/>
          </g>
          <g id="Сгруппировать_928" data-name="Сгруппировать 928" transform="translate(118.141 259.112)">
            <path id="Контур_63" data-name="Контур 63" d="M239.124,316.963V293.328L276,272.038l36.874,21.29v23.636h1.053V292.719L276,270.823l-37.664,21.745-.263.151v24.244Z" transform="translate(-238.071 -270.823)" fill="#bbe6e4"/>
          </g>
          <g id="Сгруппировать_929" data-name="Сгруппировать 929" transform="translate(192.941 259.112)">
            <path id="Контур_64" data-name="Контур 64" d="M288.185,316.963V293.328l36.872-21.29,36.874,21.29v23.636h1.053V292.719l-37.927-21.9L287.4,292.568l-.263.151v24.244Z" transform="translate(-287.132 -270.823)" fill="#bbe6e4"/>
          </g>
          <g id="Сгруппировать_930" data-name="Сгруппировать 930" transform="translate(267.74 259.112)">
            <path id="Контур_65" data-name="Контур 65" d="M337.245,316.963V293.328l36.872-21.29,36.874,21.29v23.636h1.053V292.719l-37.927-21.9-37.661,21.745-.263.151v24.244Z" transform="translate(-336.192 -270.823)" fill="#bbe6e4"/>
          </g>
          <g id="Сгруппировать_931" data-name="Сгруппировать 931" transform="translate(342.538 259.112)">
            <path id="Контур_66" data-name="Контур 66" d="M386.306,316.963V293.328l36.874-21.29,36.872,21.29v23.636H461.1V292.719l-37.925-21.9-37.664,21.745-.263.151v24.244Z" transform="translate(-385.253 -270.823)" fill="#bbe6e4"/>
          </g>
          <g id="Сгруппировать_932" data-name="Сгруппировать 932" transform="translate(417.337 259.112)">
            <path id="Контур_67" data-name="Контур 67" d="M435.366,316.963V293.328l36.874-21.29,36.874,21.29v23.636h1.053V292.719l-37.927-21.9-37.664,21.745-.263.151v24.244Z" transform="translate(-434.313 -270.823)" fill="#bbe6e4"/>
          </g>
          <g id="Сгруппировать_933" data-name="Сгруппировать 933" transform="translate(492.138 259.112)">
            <path id="Контур_68" data-name="Контур 68" d="M484.427,316.963V293.328l36.872-21.29,36.874,21.29v23.636h1.053V292.719l-37.927-21.9-37.661,21.745-.263.151v24.244Z" transform="translate(-483.374 -270.823)" fill="#bbe6e4"/>
          </g>
          <g id="Сгруппировать_934" data-name="Сгруппировать 934" transform="translate(566.936 259.112)">
            <path id="Контур_69" data-name="Контур 69" d="M600.111,288l-29.752-17.177L532.7,292.568l-.263.151v24.244h1.053V293.328l36.872-21.29,29.752,17.178Z" transform="translate(-532.434 -270.823)" fill="#bbe6e4"/>
          </g>
        </g>
        <g id="Сгруппировать_968" data-name="Сгруппировать 968" transform="translate(0 21.575)">
          <g id="Сгруппировать_936" data-name="Сгруппировать 936" transform="translate(305.138)">
            <path id="Контур_70" data-name="Контур 70" d="M398.649,202.609l-37.927-21.9V136.918l.262-.151,37.664-21.744,37.927,21.9v43.794l-.264.151ZM361.774,180.1l36.875,21.29,36.873-21.29V137.528l-36.873-21.29-36.875,21.29Z" transform="translate(-360.722 -115.023)" fill="#bbe6e4"/>
          </g>
          <g id="Сгруппировать_937" data-name="Сгруппировать 937" transform="translate(379.938)">
            <path id="Контур_71" data-name="Контур 71" d="M447.708,202.609l-37.925-21.9V136.918l.264-.151,37.661-21.744,37.927,21.9v43.794l-.264.151ZM410.837,180.1l36.872,21.29,36.873-21.29V137.528l-36.873-21.29-36.872,21.29Z" transform="translate(-409.783 -115.023)" fill="#bbe6e4"/>
          </g>
          <g id="Сгруппировать_938" data-name="Сгруппировать 938" transform="translate(529.535)">
            <path id="Контур_72" data-name="Контур 72" d="M545.83,202.609l-37.927-21.9V136.918l.264-.151,37.663-21.744,37.925,21.9v43.794l-.264.151ZM508.956,180.1l36.873,21.29L582.7,180.1V137.528l-36.872-21.29-36.873,21.29Z" transform="translate(-507.903 -115.023)" fill="#bbe6e4"/>
          </g>
          <g id="Сгруппировать_939" data-name="Сгруппировать 939" transform="translate(604.334 4.415)">
            <path id="Контур_73" data-name="Контур 73" d="M587.242,195.458l-29.226-16.874V136.008l29.226-16.874v-1.216l-30.015,17.329-.263.151v43.793l30.279,17.481Z" transform="translate(-556.964 -117.919)" fill="#bbe6e4"/>
          </g>
          <g id="Сгруппировать_940" data-name="Сгруппировать 940" transform="translate(267.739 64.777)">
            <path id="Контур_74" data-name="Контур 74" d="M374.117,245.1l-37.925-21.9V179.407l.264-.152,37.661-21.744,37.927,21.9V223.2l-.264.151Zm-36.872-22.5,36.872,21.288,36.873-21.288V180.015l-36.873-21.29-36.872,21.29Z" transform="translate(-336.192 -157.51)" fill="#bbe6e4"/>
          </g>
          <g id="Сгруппировать_941" data-name="Сгруппировать 941" transform="translate(342.538 64.777)">
            <path id="Контур_75" data-name="Контур 75" d="M423.18,245.1l-37.928-21.9V179.407l.264-.152L423.18,157.51l37.924,21.9V223.2l-.262.151Zm-36.875-22.5L423.18,243.88l36.872-21.288V180.015l-36.872-21.29-36.875,21.29Z" transform="translate(-385.252 -157.51)" fill="#bbe6e4"/>
          </g>
          <g id="Сгруппировать_942" data-name="Сгруппировать 942" transform="translate(417.338 64.777)">
            <path id="Контур_76" data-name="Контур 76" d="M472.24,245.1l-37.927-21.9V179.407l.262-.152L472.24,157.51l37.927,21.9V223.2l-.264.151Zm-36.875-22.5L472.24,243.88l36.873-21.288V180.015l-36.873-21.29-36.875,21.29Z" transform="translate(-434.313 -157.51)" fill="#bbe6e4"/>
          </g>
          <g id="Сгруппировать_943" data-name="Сгруппировать 943" transform="translate(492.138 64.777)">
            <path id="Контур_77" data-name="Контур 77" d="M521.3,245.1l-37.925-21.9V179.407l.264-.152L521.3,157.51l37.927,21.9V223.2l-.264.151Zm-36.872-22.5L521.3,243.88l36.873-21.288V180.015L521.3,158.725l-36.872,21.29Z" transform="translate(-483.374 -157.51)" fill="#bbe6e4"/>
          </g>
          <g id="Сгруппировать_944" data-name="Сгруппировать 944" transform="translate(566.936 64.777)">
            <path id="Контур_78" data-name="Контур 78" d="M600.111,226.7,570.359,243.88l-36.872-21.288V180.015l36.872-21.289L600.111,175.9v-1.216L570.359,157.51,532.7,179.255l-.263.151V223.2l37.925,21.9,29.752-17.177Z" transform="translate(-532.434 -157.51)" fill="#bbe6e4"/>
          </g>
          <g id="Сгруппировать_945" data-name="Сгруппировать 945" transform="translate(230.34 129.556)">
            <path id="Контур_79" data-name="Контур 79" d="M349.589,287.583l-37.927-21.9v-43.8l.262-.151L349.589,200l37.924,21.9v43.8l-.262.151Zm-36.875-22.505,36.875,21.29,36.872-21.29V222.5l-36.872-21.288L312.714,222.5Z" transform="translate(-311.662 -199.998)" fill="#bbe6e4"/>
          </g>
          <g id="Сгруппировать_946" data-name="Сгруппировать 946" transform="translate(305.138 129.556)">
            <path id="Контур_80" data-name="Контур 80" d="M398.649,287.583l-37.927-21.9v-43.8l.262-.151L398.649,200l37.927,21.9v43.8l-.264.151Zm-36.875-22.505,36.875,21.29,36.873-21.29V222.5l-36.873-21.288L361.774,222.5Z" transform="translate(-360.722 -199.998)" fill="#bbe6e4"/>
          </g>
          <g id="Сгруппировать_947" data-name="Сгруппировать 947" transform="translate(379.938 129.556)">
            <path id="Контур_81" data-name="Контур 81" d="M447.708,287.583l-37.925-21.9v-43.8l.264-.151L447.708,200l37.927,21.9v43.8l-.264.151Zm-36.872-22.505,36.872,21.29,36.873-21.29V222.5l-36.873-21.288L410.837,222.5Z" transform="translate(-409.783 -199.998)" fill="#bbe6e4"/>
          </g>
          <g id="Сгруппировать_948" data-name="Сгруппировать 948" transform="translate(454.737 129.556)">
            <path id="Контур_82" data-name="Контур 82" d="M496.77,287.583l-37.927-21.9v-43.8l.264-.151L496.77,200l37.925,21.9v43.8l-.264.151ZM459.9,265.078l36.873,21.29,36.872-21.29V222.5L496.77,201.213,459.9,222.5Z" transform="translate(-458.843 -199.998)" fill="#bbe6e4"/>
          </g>
          <g id="Сгруппировать_949" data-name="Сгруппировать 949" transform="translate(529.535 129.556)">
            <path id="Контур_83" data-name="Контур 83" d="M545.83,287.583l-37.927-21.9v-43.8l.264-.151L545.83,200l37.925,21.9v43.8l-.264.151Zm-36.873-22.505,36.873,21.29,36.872-21.29V222.5L545.83,201.213,508.956,222.5Z" transform="translate(-507.903 -199.998)" fill="#bbe6e4"/>
          </g>
          <g id="Сгруппировать_950" data-name="Сгруппировать 950" transform="translate(604.334 133.971)">
            <path id="Контур_84" data-name="Контур 84" d="M587.242,280.433,558.016,263.56V220.982l29.226-16.873v-1.216l-30.015,17.328-.263.151v43.794l30.279,17.481Z" transform="translate(-556.964 -202.894)" fill="#bbe6e4"/>
          </g>
          <g id="Сгруппировать_951" data-name="Сгруппировать 951" transform="translate(118.141 194.333)">
            <path id="Контур_85" data-name="Контур 85" d="M276,330.071l-37.927-21.9V264.382l.262-.151L276,242.485l37.927,21.9v43.794l-.264.151Zm-36.875-22.5L276,328.855l36.873-21.288V264.99L276,243.7l-36.875,21.29Z" transform="translate(-238.071 -242.485)" fill="#bbe6e4"/>
          </g>
          <g id="Сгруппировать_952" data-name="Сгруппировать 952" transform="translate(192.941 194.333)">
            <path id="Контур_86" data-name="Контур 86" d="M325.057,330.071l-37.925-21.9V264.382l.264-.151,37.661-21.746,37.927,21.9v43.794l-.264.151Zm-36.872-22.5,36.872,21.288,36.873-21.288V264.99L325.057,243.7l-36.872,21.29Z" transform="translate(-287.132 -242.485)" fill="#bbe6e4"/>
          </g>
          <g id="Сгруппировать_953" data-name="Сгруппировать 953" transform="translate(267.739 194.333)">
            <path id="Контур_87" data-name="Контур 87" d="M374.117,330.071l-37.925-21.9V264.382l.264-.151,37.661-21.746,37.927,21.9v43.794l-.264.151Zm-36.872-22.5,36.872,21.288,36.873-21.288V264.99L374.117,243.7l-36.872,21.29Z" transform="translate(-336.192 -242.485)" fill="#bbe6e4"/>
          </g>
          <g id="Сгруппировать_954" data-name="Сгруппировать 954" transform="translate(342.538 194.333)">
            <path id="Контур_88" data-name="Контур 88" d="M423.18,330.071l-37.928-21.9V264.382l.264-.151,37.665-21.746,37.924,21.9v43.794l-.262.151Zm-36.875-22.5,36.875,21.288,36.872-21.288V264.99L423.18,243.7l-36.875,21.29Z" transform="translate(-385.252 -242.485)" fill="#bbe6e4"/>
          </g>
          <g id="Сгруппировать_955" data-name="Сгруппировать 955" transform="translate(417.338 194.333)">
            <path id="Контур_89" data-name="Контур 89" d="M472.24,330.071l-37.927-21.9V264.382l.262-.151,37.664-21.746,37.927,21.9v43.794l-.264.151Zm-36.875-22.5,36.875,21.288,36.873-21.288V264.99L472.24,243.7l-36.875,21.29Z" transform="translate(-434.313 -242.485)" fill="#bbe6e4"/>
          </g>
          <g id="Сгруппировать_956" data-name="Сгруппировать 956" transform="translate(492.138 194.333)">
            <path id="Контур_90" data-name="Контур 90" d="M521.3,330.071l-37.925-21.9V264.382l.264-.151L521.3,242.485l37.927,21.9v43.794l-.264.151Zm-36.872-22.5L521.3,328.855l36.873-21.288V264.99L521.3,243.7l-36.872,21.29Z" transform="translate(-483.374 -242.485)" fill="#bbe6e4"/>
          </g>
          <g id="Сгруппировать_957" data-name="Сгруппировать 957" transform="translate(566.936 194.333)">
            <path id="Контур_91" data-name="Контур 91" d="M600.111,311.678l-29.752,17.178-36.872-21.29V264.99l36.872-21.29,29.752,17.178v-1.217l-29.752-17.177L532.7,264.23l-.263.151v43.793l37.925,21.9,29.752-17.178Z" transform="translate(-532.434 -242.485)" fill="#bbe6e4"/>
          </g>
          <g id="Сгруппировать_958" data-name="Сгруппировать 958" transform="translate(0 276.968)">
            <path id="Контур_92" data-name="Контур 92" d="M160.583,296.685V297.9l5.942,3.431v2.062h1.053v-2.671Z" transform="translate(-160.583 -296.685)" fill="#bbe6e4"/>
          </g>
          <g id="Сгруппировать_959" data-name="Сгруппировать 959" transform="translate(5.942 259.11)">
            <path id="Контур_93" data-name="Контур 93" d="M165.533,309.54v-2.062l36.874-21.289,36.874,21.289v2.062h1.053v-2.671l-37.927-21.9-37.664,21.745-.263.151v2.671Z" transform="translate(-164.48 -284.973)" fill="#bbe6e4"/>
          </g>
          <g id="Сгруппировать_960" data-name="Сгруппировать 960" transform="translate(80.742 259.11)">
            <path id="Контур_94" data-name="Контур 94" d="M214.595,309.54v-2.062l36.872-21.289,36.874,21.289v2.062h1.053v-2.671l-37.927-21.9L213.8,306.718l-.263.151v2.671Z" transform="translate(-213.542 -284.973)" fill="#bbe6e4"/>
          </g>
          <g id="Сгруппировать_961" data-name="Сгруппировать 961" transform="translate(155.541 259.11)">
            <path id="Контур_95" data-name="Контур 95" d="M263.655,309.54v-2.062l36.874-21.289L337.4,307.478v2.062h1.053v-2.671l-37.925-21.9-37.664,21.745-.263.151v2.671Z" transform="translate(-262.602 -284.973)" fill="#bbe6e4"/>
          </g>
          <g id="Сгруппировать_962" data-name="Сгруппировать 962" transform="translate(230.34 259.11)">
            <path id="Контур_96" data-name="Контур 96" d="M312.715,309.54v-2.062l36.874-21.289,36.872,21.289v2.062h1.053v-2.671l-37.925-21.9-37.664,21.745-.263.151v2.671Z" transform="translate(-311.662 -284.973)" fill="#bbe6e4"/>
          </g>
          <g id="Сгруппировать_963" data-name="Сгруппировать 963" transform="translate(305.138 259.11)">
            <path id="Контур_97" data-name="Контур 97" d="M361.775,309.54v-2.062l36.874-21.289,36.874,21.289v2.062h1.053v-2.671l-37.927-21.9-37.664,21.745-.263.151v2.671Z" transform="translate(-360.722 -284.973)" fill="#bbe6e4"/>
          </g>
          <g id="Сгруппировать_964" data-name="Сгруппировать 964" transform="translate(379.939 259.11)">
            <path id="Контур_98" data-name="Контур 98" d="M410.836,309.54v-2.062l36.872-21.289,36.874,21.289v2.062h1.053v-2.671l-37.927-21.9-37.661,21.745-.263.151v2.671Z" transform="translate(-409.783 -284.973)" fill="#bbe6e4"/>
          </g>
          <g id="Сгруппировать_965" data-name="Сгруппировать 965" transform="translate(454.737 259.11)">
            <path id="Контур_99" data-name="Контур 99" d="M459.9,309.54v-2.062l36.874-21.289,36.872,21.289v2.062h1.053v-2.671l-37.925-21.9-37.664,21.745-.263.151v2.671Z" transform="translate(-458.843 -284.973)" fill="#bbe6e4"/>
          </g>
          <g id="Сгруппировать_966" data-name="Сгруппировать 966" transform="translate(529.536 259.11)">
            <path id="Контур_100" data-name="Контур 100" d="M508.956,309.54v-2.062l36.874-21.289L582.7,307.478v2.062h1.053v-2.671l-37.925-21.9-37.663,21.745-.263.151v2.671Z" transform="translate(-507.903 -284.973)" fill="#bbe6e4"/>
          </g>
          <g id="Сгруппировать_967" data-name="Сгруппировать 967" transform="translate(604.334 263.526)">
            <path id="Контур_101" data-name="Контур 101" d="M587.242,287.869,557.227,305.2l-.263.151v2.671h1.053v-2.062l29.226-16.874Z" transform="translate(-556.964 -287.869)" fill="#bbe6e4"/>
          </g>
        </g>
      </g>
      <path id="Контур_102" data-name="Контур 102" d="M535.4,116.1a1.948,1.948,0,1,0-1.948,1.95A1.949,1.949,0,0,0,535.4,116.1Z" transform="translate(194.595 7.43)" fill="#bbe6e4"/>
      <path id="Контур_103" data-name="Контур 103" d="M559.929,101.941a1.949,1.949,0,1,0-1.95,1.948A1.949,1.949,0,0,0,559.929,101.941Z" transform="translate(207.465)" fill="#bbe6e4"/>
      <path id="Контур_104" data-name="Контур 104" d="M584.459,116.1a1.949,1.949,0,1,0-1.948,1.95A1.949,1.949,0,0,0,584.459,116.1Z" transform="translate(220.334 7.43)" fill="#bbe6e4"/>
      <path id="Контур_105" data-name="Контур 105" d="M559.929,101.941a1.949,1.949,0,1,0-1.95,1.948A1.949,1.949,0,0,0,559.929,101.941Z" transform="translate(207.465)" fill="#bbe6e4"/>
      <path id="Контур_106" data-name="Контур 106" d="M363.687,158.591a1.949,1.949,0,1,0-1.948,1.948A1.948,1.948,0,0,0,363.687,158.591Z" transform="translate(104.51 29.72)" fill="#bbe6e4"/>
      <path id="Контур_107" data-name="Контур 107" d="M388.217,144.43a1.948,1.948,0,1,0-1.948,1.948A1.949,1.949,0,0,0,388.217,144.43Z" transform="translate(117.38 22.29)" fill="#bbe6e4"/>
      <path id="Контур_108" data-name="Контур 108" d="M412.747,158.591a1.948,1.948,0,1,0-1.948,1.948A1.948,1.948,0,0,0,412.747,158.591Z" transform="translate(130.249 29.72)" fill="#bbe6e4"/>
      <path id="Контур_109" data-name="Контур 109" d="M388.217,144.43a1.948,1.948,0,1,0-1.948,1.948A1.949,1.949,0,0,0,388.217,144.43Z" transform="translate(117.38 22.29)" fill="#bbe6e4"/>
      <path id="Контур_110" data-name="Контур 110" d="M437.277,144.43a1.948,1.948,0,1,0-1.949,1.948A1.949,1.949,0,0,0,437.277,144.43Z" transform="translate(143.118 22.29)" fill="#bbe6e4"/>
      <path id="Контур_111" data-name="Контур 111" d="M461.808,158.591a1.949,1.949,0,1,0-1.95,1.948A1.949,1.949,0,0,0,461.808,158.591Z" transform="translate(155.987 29.72)" fill="#bbe6e4"/>
      <path id="Контур_112" data-name="Контур 112" d="M437.277,144.43a1.948,1.948,0,1,0-1.949,1.948A1.949,1.949,0,0,0,437.277,144.43Z" transform="translate(143.118 22.29)" fill="#bbe6e4"/>
      <path id="Контур_113" data-name="Контур 113" d="M486.338,144.43a1.948,1.948,0,1,0-1.948,1.948A1.949,1.949,0,0,0,486.338,144.43Z" transform="translate(168.857 22.29)" fill="#bbe6e4"/>
      <path id="Контур_114" data-name="Контур 114" d="M510.868,158.591a1.948,1.948,0,1,0-1.949,1.948A1.948,1.948,0,0,0,510.868,158.591Z" transform="translate(181.726 29.72)" fill="#bbe6e4"/>
      <path id="Контур_115" data-name="Контур 115" d="M486.338,144.43a1.948,1.948,0,1,0-1.948,1.948A1.949,1.949,0,0,0,486.338,144.43Z" transform="translate(168.857 22.29)" fill="#bbe6e4"/>
      <path id="Контур_116" data-name="Контур 116" d="M535.4,116.1a1.948,1.948,0,1,0-1.948,1.95A1.949,1.949,0,0,0,535.4,116.1Z" transform="translate(194.595 7.43)" fill="#bbe6e4"/>
      <path id="Контур_117" data-name="Контур 117" d="M535.4,144.43a1.948,1.948,0,1,0-1.948,1.948A1.949,1.949,0,0,0,535.4,144.43Z" transform="translate(194.595 22.29)" fill="#bbe6e4"/>
      <path id="Контур_118" data-name="Контур 118" d="M559.929,158.591a1.949,1.949,0,1,0-1.95,1.948A1.949,1.949,0,0,0,559.929,158.591Z" transform="translate(207.465 29.72)" fill="#bbe6e4"/>
      <path id="Контур_119" data-name="Контур 119" d="M535.4,144.43a1.948,1.948,0,1,0-1.948,1.948A1.949,1.949,0,0,0,535.4,144.43Z" transform="translate(194.595 22.29)" fill="#bbe6e4"/>
      <path id="Контур_120" data-name="Контур 120" d="M535.4,116.1a1.948,1.948,0,1,0-1.948,1.95A1.949,1.949,0,0,0,535.4,116.1Z" transform="translate(194.595 7.43)" fill="#bbe6e4"/>
      <path id="Контур_121" data-name="Контур 121" d="M559.929,101.941a1.949,1.949,0,1,0-1.95,1.948A1.949,1.949,0,0,0,559.929,101.941Z" transform="translate(207.465)" fill="#bbe6e4"/>
      <path id="Контур_122" data-name="Контур 122" d="M584.459,116.1a1.949,1.949,0,1,0-1.948,1.95A1.949,1.949,0,0,0,584.459,116.1Z" transform="translate(220.334 7.43)" fill="#bbe6e4"/>
      <path id="Контур_123" data-name="Контур 123" d="M584.459,144.43a1.949,1.949,0,1,0-1.948,1.948A1.949,1.949,0,0,0,584.459,144.43Z" transform="translate(220.334 22.29)" fill="#bbe6e4"/>
      <path id="Контур_124" data-name="Контур 124" d="M584.459,144.43a1.949,1.949,0,1,0-1.948,1.948A1.949,1.949,0,0,0,584.459,144.43Z" transform="translate(220.334 22.29)" fill="#bbe6e4"/>
      <path id="Контур_125" data-name="Контур 125" d="M584.459,116.1a1.949,1.949,0,1,0-1.948,1.95A1.949,1.949,0,0,0,584.459,116.1Z" transform="translate(220.334 7.43)" fill="#bbe6e4"/>
      <path id="Контур_126" data-name="Контур 126" d="M339.158,201.079a1.949,1.949,0,1,0-1.95,1.948A1.949,1.949,0,0,0,339.158,201.079Z" transform="translate(91.641 52.011)" fill="#bbe6e4"/>
      <path id="Контур_127" data-name="Контур 127" d="M363.687,158.591a1.949,1.949,0,1,0-1.948,1.948A1.948,1.948,0,0,0,363.687,158.591Z" transform="translate(104.51 29.72)" fill="#bbe6e4"/>
      <path id="Контур_128" data-name="Контур 128" d="M363.687,186.916a1.949,1.949,0,1,0-1.948,1.948A1.948,1.948,0,0,0,363.687,186.916Z" transform="translate(104.51 44.581)" fill="#bbe6e4"/>
      <path id="Контур_129" data-name="Контур 129" d="M388.217,201.079a1.948,1.948,0,1,0-1.948,1.948A1.948,1.948,0,0,0,388.217,201.079Z" transform="translate(117.38 52.011)" fill="#bbe6e4"/>
      <path id="Контур_130" data-name="Контур 130" d="M363.687,186.916a1.949,1.949,0,1,0-1.948,1.948A1.948,1.948,0,0,0,363.687,186.916Z" transform="translate(104.51 44.581)" fill="#bbe6e4"/>
      <path id="Контур_131" data-name="Контур 131" d="M363.687,158.591a1.949,1.949,0,1,0-1.948,1.948A1.948,1.948,0,0,0,363.687,158.591Z" transform="translate(104.51 29.72)" fill="#bbe6e4"/>
      <path id="Контур_132" data-name="Контур 132" d="M388.217,144.43a1.948,1.948,0,1,0-1.948,1.948A1.949,1.949,0,0,0,388.217,144.43Z" transform="translate(117.38 22.29)" fill="#bbe6e4"/>
      <path id="Контур_133" data-name="Контур 133" d="M412.747,158.591a1.948,1.948,0,1,0-1.948,1.948A1.948,1.948,0,0,0,412.747,158.591Z" transform="translate(130.249 29.72)" fill="#bbe6e4"/>
      <path id="Контур_134" data-name="Контур 134" d="M412.747,186.916a1.948,1.948,0,1,0-1.948,1.948A1.948,1.948,0,0,0,412.747,186.916Z" transform="translate(130.249 44.581)" fill="#bbe6e4"/>
      <path id="Контур_135" data-name="Контур 135" d="M437.277,201.079a1.948,1.948,0,1,0-1.949,1.948A1.948,1.948,0,0,0,437.277,201.079Z" transform="translate(143.118 52.011)" fill="#bbe6e4"/>
      <path id="Контур_136" data-name="Контур 136" d="M412.747,186.916a1.948,1.948,0,1,0-1.948,1.948A1.948,1.948,0,0,0,412.747,186.916Z" transform="translate(130.249 44.581)" fill="#bbe6e4"/>
      <path id="Контур_137" data-name="Контур 137" d="M412.747,158.591a1.948,1.948,0,1,0-1.948,1.948A1.948,1.948,0,0,0,412.747,158.591Z" transform="translate(130.249 29.72)" fill="#bbe6e4"/>
      <path id="Контур_138" data-name="Контур 138" d="M437.277,144.43a1.948,1.948,0,1,0-1.949,1.948A1.949,1.949,0,0,0,437.277,144.43Z" transform="translate(143.118 22.29)" fill="#bbe6e4"/>
      <path id="Контур_139" data-name="Контур 139" d="M461.808,158.591a1.949,1.949,0,1,0-1.95,1.948A1.949,1.949,0,0,0,461.808,158.591Z" transform="translate(155.987 29.72)" fill="#bbe6e4"/>
      <path id="Контур_140" data-name="Контур 140" d="M461.808,186.916a1.949,1.949,0,1,0-1.95,1.948A1.949,1.949,0,0,0,461.808,186.916Z" transform="translate(155.987 44.581)" fill="#bbe6e4"/>
      <path id="Контур_141" data-name="Контур 141" d="M486.338,201.079a1.948,1.948,0,1,0-1.948,1.948A1.948,1.948,0,0,0,486.338,201.079Z" transform="translate(168.857 52.011)" fill="#bbe6e4"/>
      <path id="Контур_142" data-name="Контур 142" d="M461.808,186.916a1.949,1.949,0,1,0-1.95,1.948A1.949,1.949,0,0,0,461.808,186.916Z" transform="translate(155.987 44.581)" fill="#bbe6e4"/>
      <path id="Контур_143" data-name="Контур 143" d="M461.808,158.591a1.949,1.949,0,1,0-1.95,1.948A1.949,1.949,0,0,0,461.808,158.591Z" transform="translate(155.987 29.72)" fill="#bbe6e4"/>
      <path id="Контур_144" data-name="Контур 144" d="M486.338,144.43a1.948,1.948,0,1,0-1.948,1.948A1.949,1.949,0,0,0,486.338,144.43Z" transform="translate(168.857 22.29)" fill="#bbe6e4"/>
      <path id="Контур_145" data-name="Контур 145" d="M510.868,158.591a1.948,1.948,0,1,0-1.949,1.948A1.948,1.948,0,0,0,510.868,158.591Z" transform="translate(181.726 29.72)" fill="#bbe6e4"/>
      <path id="Контур_146" data-name="Контур 146" d="M510.868,186.916a1.948,1.948,0,1,0-1.949,1.948A1.948,1.948,0,0,0,510.868,186.916Z" transform="translate(181.726 44.581)" fill="#bbe6e4"/>
      <path id="Контур_147" data-name="Контур 147" d="M535.4,201.079a1.948,1.948,0,1,0-1.948,1.948A1.948,1.948,0,0,0,535.4,201.079Z" transform="translate(194.595 52.011)" fill="#bbe6e4"/>
      <path id="Контур_148" data-name="Контур 148" d="M510.868,186.916a1.948,1.948,0,1,0-1.949,1.948A1.948,1.948,0,0,0,510.868,186.916Z" transform="translate(181.726 44.581)" fill="#bbe6e4"/>
      <path id="Контур_149" data-name="Контур 149" d="M510.868,158.591a1.948,1.948,0,1,0-1.949,1.948A1.948,1.948,0,0,0,510.868,158.591Z" transform="translate(181.726 29.72)" fill="#bbe6e4"/>
      <path id="Контур_150" data-name="Контур 150" d="M535.4,144.43a1.948,1.948,0,1,0-1.948,1.948A1.949,1.949,0,0,0,535.4,144.43Z" transform="translate(194.595 22.29)" fill="#bbe6e4"/>
      <path id="Контур_151" data-name="Контур 151" d="M559.929,158.591a1.949,1.949,0,1,0-1.95,1.948A1.949,1.949,0,0,0,559.929,158.591Z" transform="translate(207.465 29.72)" fill="#bbe6e4"/>
      <path id="Контур_152" data-name="Контур 152" d="M559.929,186.916a1.949,1.949,0,1,0-1.95,1.948A1.949,1.949,0,0,0,559.929,186.916Z" transform="translate(207.465 44.581)" fill="#bbe6e4"/>
      <path id="Контур_153" data-name="Контур 153" d="M584.459,201.079a1.949,1.949,0,1,0-1.948,1.948A1.948,1.948,0,0,0,584.459,201.079Z" transform="translate(220.334 52.011)" fill="#bbe6e4"/>
      <path id="Контур_154" data-name="Контур 154" d="M559.929,186.916a1.949,1.949,0,1,0-1.95,1.948A1.949,1.949,0,0,0,559.929,186.916Z" transform="translate(207.465 44.581)" fill="#bbe6e4"/>
      <path id="Контур_155" data-name="Контур 155" d="M559.929,158.591a1.949,1.949,0,1,0-1.95,1.948A1.949,1.949,0,0,0,559.929,158.591Z" transform="translate(207.465 29.72)" fill="#bbe6e4"/>
      <path id="Контур_156" data-name="Контур 156" d="M584.459,144.43a1.949,1.949,0,1,0-1.948,1.948A1.949,1.949,0,0,0,584.459,144.43Z" transform="translate(220.334 22.29)" fill="#bbe6e4"/>
      <path id="Контур_157" data-name="Контур 157" d="M265.566,243.566a1.948,1.948,0,1,0-1.948,1.948A1.948,1.948,0,0,0,265.566,243.566Z" transform="translate(53.033 74.301)" fill="#bbe6e4"/>
      <path id="Контур_158" data-name="Контур 158" d="M290.1,229.4a1.948,1.948,0,1,0-1.949,1.948A1.948,1.948,0,0,0,290.1,229.4Z" transform="translate(65.902 66.871)" fill="#bbe6e4"/>
      <path id="Контур_159" data-name="Контур 159" d="M314.626,243.566a1.948,1.948,0,1,0-1.949,1.948A1.948,1.948,0,0,0,314.626,243.566Z" transform="translate(78.771 74.301)" fill="#bbe6e4"/>
      <path id="Контур_160" data-name="Контур 160" d="M290.1,229.4a1.948,1.948,0,1,0-1.949,1.948A1.948,1.948,0,0,0,290.1,229.4Z" transform="translate(65.902 66.871)" fill="#bbe6e4"/>
      <path id="Контур_161" data-name="Контур 161" d="M339.158,201.079a1.949,1.949,0,1,0-1.95,1.948A1.949,1.949,0,0,0,339.158,201.079Z" transform="translate(91.641 52.011)" fill="#bbe6e4"/>
      <path id="Контур_162" data-name="Контур 162" d="M339.158,229.4a1.949,1.949,0,1,0-1.95,1.948A1.949,1.949,0,0,0,339.158,229.4Z" transform="translate(91.641 66.871)" fill="#bbe6e4"/>
      <path id="Контур_163" data-name="Контур 163" d="M363.687,243.566a1.949,1.949,0,1,0-1.948,1.948A1.948,1.948,0,0,0,363.687,243.566Z" transform="translate(104.51 74.301)" fill="#bbe6e4"/>
      <path id="Контур_164" data-name="Контур 164" d="M339.158,229.4a1.949,1.949,0,1,0-1.95,1.948A1.949,1.949,0,0,0,339.158,229.4Z" transform="translate(91.641 66.871)" fill="#bbe6e4"/>
      <path id="Контур_165" data-name="Контур 165" d="M339.158,201.079a1.949,1.949,0,1,0-1.95,1.948A1.949,1.949,0,0,0,339.158,201.079Z" transform="translate(91.641 52.011)" fill="#bbe6e4"/>
      <path id="Контур_166" data-name="Контур 166" d="M363.687,186.916a1.949,1.949,0,1,0-1.948,1.948A1.948,1.948,0,0,0,363.687,186.916Z" transform="translate(104.51 44.581)" fill="#bbe6e4"/>
      <path id="Контур_167" data-name="Контур 167" d="M388.217,201.079a1.948,1.948,0,1,0-1.948,1.948A1.948,1.948,0,0,0,388.217,201.079Z" transform="translate(117.38 52.011)" fill="#bbe6e4"/>
      <path id="Контур_168" data-name="Контур 168" d="M388.217,229.4a1.948,1.948,0,1,0-1.948,1.948A1.948,1.948,0,0,0,388.217,229.4Z" transform="translate(117.38 66.871)" fill="#bbe6e4"/>
      <path id="Контур_169" data-name="Контур 169" d="M412.747,243.566a1.948,1.948,0,1,0-1.948,1.948A1.948,1.948,0,0,0,412.747,243.566Z" transform="translate(130.249 74.301)" fill="#bbe6e4"/>
      <path id="Контур_170" data-name="Контур 170" d="M388.217,229.4a1.948,1.948,0,1,0-1.948,1.948A1.948,1.948,0,0,0,388.217,229.4Z" transform="translate(117.38 66.871)" fill="#bbe6e4"/>
      <path id="Контур_171" data-name="Контур 171" d="M388.217,201.079a1.948,1.948,0,1,0-1.948,1.948A1.948,1.948,0,0,0,388.217,201.079Z" transform="translate(117.38 52.011)" fill="#bbe6e4"/>
      <path id="Контур_172" data-name="Контур 172" d="M412.747,186.916a1.948,1.948,0,1,0-1.948,1.948A1.948,1.948,0,0,0,412.747,186.916Z" transform="translate(130.249 44.581)" fill="#bbe6e4"/>
      <path id="Контур_173" data-name="Контур 173" d="M437.277,201.079a1.948,1.948,0,1,0-1.949,1.948A1.948,1.948,0,0,0,437.277,201.079Z" transform="translate(143.118 52.011)" fill="#bbe6e4"/>
      <path id="Контур_174" data-name="Контур 174" d="M437.277,229.4a1.948,1.948,0,1,0-1.949,1.948A1.948,1.948,0,0,0,437.277,229.4Z" transform="translate(143.118 66.871)" fill="#bbe6e4"/>
      <path id="Контур_175" data-name="Контур 175" d="M461.808,243.566a1.949,1.949,0,1,0-1.95,1.948A1.949,1.949,0,0,0,461.808,243.566Z" transform="translate(155.987 74.301)" fill="#bbe6e4"/>
      <path id="Контур_176" data-name="Контур 176" d="M437.277,229.4a1.948,1.948,0,1,0-1.949,1.948A1.948,1.948,0,0,0,437.277,229.4Z" transform="translate(143.118 66.871)" fill="#bbe6e4"/>
      <path id="Контур_177" data-name="Контур 177" d="M437.277,201.079a1.948,1.948,0,1,0-1.949,1.948A1.948,1.948,0,0,0,437.277,201.079Z" transform="translate(143.118 52.011)" fill="#bbe6e4"/>
      <path id="Контур_178" data-name="Контур 178" d="M461.808,186.916a1.949,1.949,0,1,0-1.95,1.948A1.949,1.949,0,0,0,461.808,186.916Z" transform="translate(155.987 44.581)" fill="#bbe6e4"/>
      <path id="Контур_179" data-name="Контур 179" d="M486.338,201.079a1.948,1.948,0,1,0-1.948,1.948A1.948,1.948,0,0,0,486.338,201.079Z" transform="translate(168.857 52.011)" fill="#bbe6e4"/>
      <path id="Контур_180" data-name="Контур 180" d="M486.338,229.4a1.948,1.948,0,1,0-1.948,1.948A1.948,1.948,0,0,0,486.338,229.4Z" transform="translate(168.857 66.871)" fill="#bbe6e4"/>
      <path id="Контур_181" data-name="Контур 181" d="M510.868,243.566a1.948,1.948,0,1,0-1.949,1.948A1.948,1.948,0,0,0,510.868,243.566Z" transform="translate(181.726 74.301)" fill="#bbe6e4"/>
      <path id="Контур_182" data-name="Контур 182" d="M486.338,229.4a1.948,1.948,0,1,0-1.948,1.948A1.948,1.948,0,0,0,486.338,229.4Z" transform="translate(168.857 66.871)" fill="#bbe6e4"/>
      <path id="Контур_183" data-name="Контур 183" d="M486.338,201.079a1.948,1.948,0,1,0-1.948,1.948A1.948,1.948,0,0,0,486.338,201.079Z" transform="translate(168.857 52.011)" fill="#bbe6e4"/>
      <path id="Контур_184" data-name="Контур 184" d="M510.868,186.916a1.948,1.948,0,1,0-1.949,1.948A1.948,1.948,0,0,0,510.868,186.916Z" transform="translate(181.726 44.581)" fill="#bbe6e4"/>
      <path id="Контур_185" data-name="Контур 185" d="M535.4,201.079a1.948,1.948,0,1,0-1.948,1.948A1.948,1.948,0,0,0,535.4,201.079Z" transform="translate(194.595 52.011)" fill="#bbe6e4"/>
      <path id="Контур_186" data-name="Контур 186" d="M535.4,229.4a1.948,1.948,0,1,0-1.948,1.948A1.948,1.948,0,0,0,535.4,229.4Z" transform="translate(194.595 66.871)" fill="#bbe6e4"/>
      <path id="Контур_187" data-name="Контур 187" d="M559.929,243.566a1.949,1.949,0,1,0-1.95,1.948A1.949,1.949,0,0,0,559.929,243.566Z" transform="translate(207.465 74.301)" fill="#bbe6e4"/>
      <path id="Контур_188" data-name="Контур 188" d="M535.4,229.4a1.948,1.948,0,1,0-1.948,1.948A1.948,1.948,0,0,0,535.4,229.4Z" transform="translate(194.595 66.871)" fill="#bbe6e4"/>
      <path id="Контур_189" data-name="Контур 189" d="M535.4,201.079a1.948,1.948,0,1,0-1.948,1.948A1.948,1.948,0,0,0,535.4,201.079Z" transform="translate(194.595 52.011)" fill="#bbe6e4"/>
      <path id="Контур_190" data-name="Контур 190" d="M559.929,186.916a1.949,1.949,0,1,0-1.95,1.948A1.949,1.949,0,0,0,559.929,186.916Z" transform="translate(207.465 44.581)" fill="#bbe6e4"/>
      <path id="Контур_191" data-name="Контур 191" d="M584.459,201.079a1.949,1.949,0,1,0-1.948,1.948A1.948,1.948,0,0,0,584.459,201.079Z" transform="translate(220.334 52.011)" fill="#bbe6e4"/>
      <path id="Контур_192" data-name="Контур 192" d="M584.459,229.4a1.949,1.949,0,1,0-1.948,1.948A1.948,1.948,0,0,0,584.459,229.4Z" transform="translate(220.334 66.871)" fill="#bbe6e4"/>
      <path id="Контур_193" data-name="Контур 193" d="M584.459,229.4a1.949,1.949,0,1,0-1.948,1.948A1.948,1.948,0,0,0,584.459,229.4Z" transform="translate(220.334 66.871)" fill="#bbe6e4"/>
      <path id="Контур_194" data-name="Контур 194" d="M584.459,201.079a1.949,1.949,0,1,0-1.948,1.948A1.948,1.948,0,0,0,584.459,201.079Z" transform="translate(220.334 52.011)" fill="#bbe6e4"/>
      <path id="Контур_196" data-name="Контур 196" d="M191.975,286.054A1.948,1.948,0,1,0,190.026,288,1.948,1.948,0,0,0,191.975,286.054Z" transform="translate(14.425 96.591)" fill="#bbe6e4"/>
      <path id="Контур_198" data-name="Контур 198" d="M216.506,271.891a1.949,1.949,0,1,0-1.95,1.95A1.949,1.949,0,0,0,216.506,271.891Z" transform="translate(27.294 89.161)" fill="#bbe6e4"/>
      <path id="Контур_199" data-name="Контур 199" d="M241.036,286.054A1.949,1.949,0,1,0,239.088,288,1.949,1.949,0,0,0,241.036,286.054Z" transform="translate(40.163 96.591)" fill="#bbe6e4"/>
      <path id="Контур_200" data-name="Контур 200" d="M216.506,271.891a1.949,1.949,0,1,0-1.95,1.95A1.949,1.949,0,0,0,216.506,271.891Z" transform="translate(27.294 89.161)" fill="#bbe6e4"/>
      <path id="Контур_201" data-name="Контур 201" d="M265.566,243.566a1.948,1.948,0,1,0-1.948,1.948A1.948,1.948,0,0,0,265.566,243.566Z" transform="translate(53.033 74.301)" fill="#bbe6e4"/>
      <path id="Контур_202" data-name="Контур 202" d="M265.566,271.891a1.948,1.948,0,1,0-1.948,1.95A1.948,1.948,0,0,0,265.566,271.891Z" transform="translate(53.033 89.161)" fill="#bbe6e4"/>
      <path id="Контур_203" data-name="Контур 203" d="M290.1,286.054A1.948,1.948,0,1,0,288.147,288,1.948,1.948,0,0,0,290.1,286.054Z" transform="translate(65.902 96.591)" fill="#bbe6e4"/>
      <path id="Контур_204" data-name="Контур 204" d="M265.566,271.891a1.948,1.948,0,1,0-1.948,1.95A1.948,1.948,0,0,0,265.566,271.891Z" transform="translate(53.033 89.161)" fill="#bbe6e4"/>
      <path id="Контур_205" data-name="Контур 205" d="M265.566,243.566a1.948,1.948,0,1,0-1.948,1.948A1.948,1.948,0,0,0,265.566,243.566Z" transform="translate(53.033 74.301)" fill="#bbe6e4"/>
      <path id="Контур_206" data-name="Контур 206" d="M290.1,229.4a1.948,1.948,0,1,0-1.949,1.948A1.948,1.948,0,0,0,290.1,229.4Z" transform="translate(65.902 66.871)" fill="#bbe6e4"/>
      <path id="Контур_207" data-name="Контур 207" d="M314.626,243.566a1.948,1.948,0,1,0-1.949,1.948A1.948,1.948,0,0,0,314.626,243.566Z" transform="translate(78.771 74.301)" fill="#bbe6e4"/>
      <path id="Контур_208" data-name="Контур 208" d="M314.626,271.891a1.948,1.948,0,1,0-1.949,1.95A1.948,1.948,0,0,0,314.626,271.891Z" transform="translate(78.771 89.161)" fill="#bbe6e4"/>
      <path id="Контур_209" data-name="Контур 209" d="M339.158,286.054a1.949,1.949,0,1,0-1.95,1.948A1.949,1.949,0,0,0,339.158,286.054Z" transform="translate(91.641 96.591)" fill="#bbe6e4"/>
      <path id="Контур_210" data-name="Контур 210" d="M314.626,271.891a1.948,1.948,0,1,0-1.949,1.95A1.948,1.948,0,0,0,314.626,271.891Z" transform="translate(78.771 89.161)" fill="#bbe6e4"/>
      <path id="Контур_211" data-name="Контур 211" d="M314.626,243.566a1.948,1.948,0,1,0-1.949,1.948A1.948,1.948,0,0,0,314.626,243.566Z" transform="translate(78.771 74.301)" fill="#bbe6e4"/>
      <path id="Контур_212" data-name="Контур 212" d="M339.158,229.4a1.949,1.949,0,1,0-1.95,1.948A1.949,1.949,0,0,0,339.158,229.4Z" transform="translate(91.641 66.871)" fill="#bbe6e4"/>
      <path id="Контур_213" data-name="Контур 213" d="M363.687,243.566a1.949,1.949,0,1,0-1.948,1.948A1.948,1.948,0,0,0,363.687,243.566Z" transform="translate(104.51 74.301)" fill="#bbe6e4"/>
      <path id="Контур_214" data-name="Контур 214" d="M363.687,271.891a1.949,1.949,0,1,0-1.948,1.95A1.948,1.948,0,0,0,363.687,271.891Z" transform="translate(104.51 89.161)" fill="#bbe6e4"/>
      <path id="Контур_215" data-name="Контур 215" d="M388.217,286.054A1.948,1.948,0,1,0,386.268,288,1.948,1.948,0,0,0,388.217,286.054Z" transform="translate(117.38 96.591)" fill="#bbe6e4"/>
      <path id="Контур_216" data-name="Контур 216" d="M363.687,271.891a1.949,1.949,0,1,0-1.948,1.95A1.948,1.948,0,0,0,363.687,271.891Z" transform="translate(104.51 89.161)" fill="#bbe6e4"/>
      <path id="Контур_217" data-name="Контур 217" d="M363.687,243.566a1.949,1.949,0,1,0-1.948,1.948A1.948,1.948,0,0,0,363.687,243.566Z" transform="translate(104.51 74.301)" fill="#bbe6e4"/>
      <path id="Контур_218" data-name="Контур 218" d="M388.217,229.4a1.948,1.948,0,1,0-1.948,1.948A1.948,1.948,0,0,0,388.217,229.4Z" transform="translate(117.38 66.871)" fill="#bbe6e4"/>
      <path id="Контур_219" data-name="Контур 219" d="M412.747,243.566a1.948,1.948,0,1,0-1.948,1.948A1.948,1.948,0,0,0,412.747,243.566Z" transform="translate(130.249 74.301)" fill="#bbe6e4"/>
      <path id="Контур_220" data-name="Контур 220" d="M412.747,271.891a1.948,1.948,0,1,0-1.948,1.95A1.948,1.948,0,0,0,412.747,271.891Z" transform="translate(130.249 89.161)" fill="#bbe6e4"/>
      <path id="Контур_221" data-name="Контур 221" d="M437.277,286.054A1.948,1.948,0,1,0,435.328,288,1.948,1.948,0,0,0,437.277,286.054Z" transform="translate(143.118 96.591)" fill="#bbe6e4"/>
      <path id="Контур_222" data-name="Контур 222" d="M412.747,271.891a1.948,1.948,0,1,0-1.948,1.95A1.948,1.948,0,0,0,412.747,271.891Z" transform="translate(130.249 89.161)" fill="#bbe6e4"/>
      <path id="Контур_223" data-name="Контур 223" d="M412.747,243.566a1.948,1.948,0,1,0-1.948,1.948A1.948,1.948,0,0,0,412.747,243.566Z" transform="translate(130.249 74.301)" fill="#bbe6e4"/>
      <path id="Контур_224" data-name="Контур 224" d="M437.277,229.4a1.948,1.948,0,1,0-1.949,1.948A1.948,1.948,0,0,0,437.277,229.4Z" transform="translate(143.118 66.871)" fill="#bbe6e4"/>
      <path id="Контур_225" data-name="Контур 225" d="M461.808,243.566a1.949,1.949,0,1,0-1.95,1.948A1.949,1.949,0,0,0,461.808,243.566Z" transform="translate(155.987 74.301)" fill="#bbe6e4"/>
      <path id="Контур_226" data-name="Контур 226" d="M461.808,271.891a1.949,1.949,0,1,0-1.95,1.95A1.949,1.949,0,0,0,461.808,271.891Z" transform="translate(155.987 89.161)" fill="#bbe6e4"/>
      <path id="Контур_227" data-name="Контур 227" d="M486.338,286.054A1.948,1.948,0,1,0,484.389,288,1.948,1.948,0,0,0,486.338,286.054Z" transform="translate(168.857 96.591)" fill="#bbe6e4"/>
      <path id="Контур_228" data-name="Контур 228" d="M461.808,271.891a1.949,1.949,0,1,0-1.95,1.95A1.949,1.949,0,0,0,461.808,271.891Z" transform="translate(155.987 89.161)" fill="#bbe6e4"/>
      <path id="Контур_229" data-name="Контур 229" d="M461.808,243.566a1.949,1.949,0,1,0-1.95,1.948A1.949,1.949,0,0,0,461.808,243.566Z" transform="translate(155.987 74.301)" fill="#bbe6e4"/>
      <path id="Контур_230" data-name="Контур 230" d="M486.338,229.4a1.948,1.948,0,1,0-1.948,1.948A1.948,1.948,0,0,0,486.338,229.4Z" transform="translate(168.857 66.871)" fill="#bbe6e4"/>
      <path id="Контур_231" data-name="Контур 231" d="M510.868,243.566a1.948,1.948,0,1,0-1.949,1.948A1.948,1.948,0,0,0,510.868,243.566Z" transform="translate(181.726 74.301)" fill="#bbe6e4"/>
      <path id="Контур_232" data-name="Контур 232" d="M510.868,271.891a1.948,1.948,0,1,0-1.949,1.95A1.948,1.948,0,0,0,510.868,271.891Z" transform="translate(181.726 89.161)" fill="#bbe6e4"/>
      <path id="Контур_233" data-name="Контур 233" d="M535.4,286.054A1.948,1.948,0,1,0,533.449,288,1.948,1.948,0,0,0,535.4,286.054Z" transform="translate(194.595 96.591)" fill="#bbe6e4"/>
      <path id="Контур_234" data-name="Контур 234" d="M510.868,271.891a1.948,1.948,0,1,0-1.949,1.95A1.948,1.948,0,0,0,510.868,271.891Z" transform="translate(181.726 89.161)" fill="#bbe6e4"/>
      <path id="Контур_235" data-name="Контур 235" d="M510.868,243.566a1.948,1.948,0,1,0-1.949,1.948A1.948,1.948,0,0,0,510.868,243.566Z" transform="translate(181.726 74.301)" fill="#bbe6e4"/>
      <path id="Контур_236" data-name="Контур 236" d="M535.4,229.4a1.948,1.948,0,1,0-1.948,1.948A1.948,1.948,0,0,0,535.4,229.4Z" transform="translate(194.595 66.871)" fill="#bbe6e4"/>
      <path id="Контур_237" data-name="Контур 237" d="M559.929,243.566a1.949,1.949,0,1,0-1.95,1.948A1.949,1.949,0,0,0,559.929,243.566Z" transform="translate(207.465 74.301)" fill="#bbe6e4"/>
      <path id="Контур_238" data-name="Контур 238" d="M559.929,271.891a1.949,1.949,0,1,0-1.95,1.95A1.949,1.949,0,0,0,559.929,271.891Z" transform="translate(207.465 89.161)" fill="#bbe6e4"/>
      <path id="Контур_239" data-name="Контур 239" d="M584.459,286.054A1.949,1.949,0,1,0,582.511,288,1.948,1.948,0,0,0,584.459,286.054Z" transform="translate(220.334 96.591)" fill="#bbe6e4"/>
      <path id="Контур_240" data-name="Контур 240" d="M559.929,271.891a1.949,1.949,0,1,0-1.95,1.95A1.949,1.949,0,0,0,559.929,271.891Z" transform="translate(207.465 89.161)" fill="#bbe6e4"/>
      <path id="Контур_241" data-name="Контур 241" d="M559.929,243.566a1.949,1.949,0,1,0-1.95,1.948A1.949,1.949,0,0,0,559.929,243.566Z" transform="translate(207.465 74.301)" fill="#bbe6e4"/>
      <path id="Контур_242" data-name="Контур 242" d="M584.459,229.4a1.949,1.949,0,1,0-1.948,1.948A1.948,1.948,0,0,0,584.459,229.4Z" transform="translate(220.334 66.871)" fill="#bbe6e4"/>
      <path id="Контур_244" data-name="Контур 244" d="M191.975,286.054A1.948,1.948,0,1,0,190.026,288,1.948,1.948,0,0,0,191.975,286.054Z" transform="translate(14.425 96.591)" fill="#bbe6e4"/>
      <path id="Контур_245" data-name="Контур 245" d="M191.975,286.054A1.948,1.948,0,1,0,190.026,288,1.948,1.948,0,0,0,191.975,286.054Z" transform="translate(14.425 96.591)" fill="#bbe6e4"/>
      <path id="Контур_246" data-name="Контур 246" d="M216.506,271.891a1.949,1.949,0,1,0-1.95,1.95A1.949,1.949,0,0,0,216.506,271.891Z" transform="translate(27.294 89.161)" fill="#bbe6e4"/>
      <path id="Контур_247" data-name="Контур 247" d="M241.036,286.054A1.949,1.949,0,1,0,239.088,288,1.949,1.949,0,0,0,241.036,286.054Z" transform="translate(40.163 96.591)" fill="#bbe6e4"/>
      <path id="Контур_248" data-name="Контур 248" d="M241.036,286.054A1.949,1.949,0,1,0,239.088,288,1.949,1.949,0,0,0,241.036,286.054Z" transform="translate(40.163 96.591)" fill="#bbe6e4"/>
      <path id="Контур_249" data-name="Контур 249" d="M265.566,271.891a1.948,1.948,0,1,0-1.948,1.95A1.948,1.948,0,0,0,265.566,271.891Z" transform="translate(53.033 89.161)" fill="#bbe6e4"/>
      <path id="Контур_250" data-name="Контур 250" d="M290.1,286.054A1.948,1.948,0,1,0,288.147,288,1.948,1.948,0,0,0,290.1,286.054Z" transform="translate(65.902 96.591)" fill="#bbe6e4"/>
      <path id="Контур_251" data-name="Контур 251" d="M290.1,286.054A1.948,1.948,0,1,0,288.147,288,1.948,1.948,0,0,0,290.1,286.054Z" transform="translate(65.902 96.591)" fill="#bbe6e4"/>
      <path id="Контур_252" data-name="Контур 252" d="M314.626,271.891a1.948,1.948,0,1,0-1.949,1.95A1.948,1.948,0,0,0,314.626,271.891Z" transform="translate(78.771 89.161)" fill="#bbe6e4"/>
      <path id="Контур_253" data-name="Контур 253" d="M339.158,286.054a1.949,1.949,0,1,0-1.95,1.948A1.949,1.949,0,0,0,339.158,286.054Z" transform="translate(91.641 96.591)" fill="#bbe6e4"/>
      <path id="Контур_254" data-name="Контур 254" d="M339.158,286.054a1.949,1.949,0,1,0-1.95,1.948A1.949,1.949,0,0,0,339.158,286.054Z" transform="translate(91.641 96.591)" fill="#bbe6e4"/>
      <path id="Контур_255" data-name="Контур 255" d="M363.687,271.891a1.949,1.949,0,1,0-1.948,1.95A1.948,1.948,0,0,0,363.687,271.891Z" transform="translate(104.51 89.161)" fill="#bbe6e4"/>
      <path id="Контур_256" data-name="Контур 256" d="M388.217,286.054A1.948,1.948,0,1,0,386.268,288,1.948,1.948,0,0,0,388.217,286.054Z" transform="translate(117.38 96.591)" fill="#bbe6e4"/>
      <path id="Контур_257" data-name="Контур 257" d="M388.217,286.054A1.948,1.948,0,1,0,386.268,288,1.948,1.948,0,0,0,388.217,286.054Z" transform="translate(117.38 96.591)" fill="#bbe6e4"/>
      <path id="Контур_258" data-name="Контур 258" d="M412.747,271.891a1.948,1.948,0,1,0-1.948,1.95A1.948,1.948,0,0,0,412.747,271.891Z" transform="translate(130.249 89.161)" fill="#bbe6e4"/>
      <path id="Контур_259" data-name="Контур 259" d="M437.277,286.054A1.948,1.948,0,1,0,435.328,288,1.948,1.948,0,0,0,437.277,286.054Z" transform="translate(143.118 96.591)" fill="#bbe6e4"/>
      <path id="Контур_260" data-name="Контур 260" d="M437.277,286.054A1.948,1.948,0,1,0,435.328,288,1.948,1.948,0,0,0,437.277,286.054Z" transform="translate(143.118 96.591)" fill="#bbe6e4"/>
      <path id="Контур_261" data-name="Контур 261" d="M461.808,271.891a1.949,1.949,0,1,0-1.95,1.95A1.949,1.949,0,0,0,461.808,271.891Z" transform="translate(155.987 89.161)" fill="#bbe6e4"/>
      <path id="Контур_262" data-name="Контур 262" d="M486.338,286.054A1.948,1.948,0,1,0,484.389,288,1.948,1.948,0,0,0,486.338,286.054Z" transform="translate(168.857 96.591)" fill="#bbe6e4"/>
      <path id="Контур_263" data-name="Контур 263" d="M486.338,286.054A1.948,1.948,0,1,0,484.389,288,1.948,1.948,0,0,0,486.338,286.054Z" transform="translate(168.857 96.591)" fill="#bbe6e4"/>
      <path id="Контур_264" data-name="Контур 264" d="M510.868,271.891a1.948,1.948,0,1,0-1.949,1.95A1.948,1.948,0,0,0,510.868,271.891Z" transform="translate(181.726 89.161)" fill="#bbe6e4"/>
      <path id="Контур_265" data-name="Контур 265" d="M535.4,286.054A1.948,1.948,0,1,0,533.449,288,1.948,1.948,0,0,0,535.4,286.054Z" transform="translate(194.595 96.591)" fill="#bbe6e4"/>
      <path id="Контур_266" data-name="Контур 266" d="M535.4,286.054A1.948,1.948,0,1,0,533.449,288,1.948,1.948,0,0,0,535.4,286.054Z" transform="translate(194.595 96.591)" fill="#bbe6e4"/>
      <path id="Контур_267" data-name="Контур 267" d="M559.929,271.891a1.949,1.949,0,1,0-1.95,1.95A1.949,1.949,0,0,0,559.929,271.891Z" transform="translate(207.465 89.161)" fill="#bbe6e4"/>
      <path id="Контур_268" data-name="Контур 268" d="M584.459,286.054A1.949,1.949,0,1,0,582.511,288,1.948,1.948,0,0,0,584.459,286.054Z" transform="translate(220.334 96.591)" fill="#bbe6e4"/>
      <path id="Контур_269" data-name="Контур 269" d="M584.459,286.054A1.949,1.949,0,1,0,582.511,288,1.948,1.948,0,0,0,584.459,286.054Z" transform="translate(220.334 96.591)" fill="#bbe6e4"/>
      <path id="Контур_270" data-name="Контур 270" d="M363.687,130.254a1.949,1.949,0,1,0-1.948,1.948A1.948,1.948,0,0,0,363.687,130.254Z" transform="translate(104.51 14.854)" fill="#bbe6e4"/>
      <path id="Контур_271" data-name="Контур 271" d="M412.747,130.254A1.948,1.948,0,1,0,410.8,132.2,1.948,1.948,0,0,0,412.747,130.254Z" transform="translate(130.249 14.854)" fill="#bbe6e4"/>
      <path id="Контур_272" data-name="Контур 272" d="M461.808,130.254a1.949,1.949,0,1,0-1.95,1.948A1.949,1.949,0,0,0,461.808,130.254Z" transform="translate(155.987 14.854)" fill="#bbe6e4"/>
      <path id="Контур_273" data-name="Контур 273" d="M510.868,130.254a1.948,1.948,0,1,0-1.949,1.948A1.948,1.948,0,0,0,510.868,130.254Z" transform="translate(181.726 14.854)" fill="#bbe6e4"/>
      <path id="Контур_274" data-name="Контур 274" d="M535.4,116.091a1.948,1.948,0,1,0-1.948,1.948A1.948,1.948,0,0,0,535.4,116.091Z" transform="translate(194.595 7.424)" fill="#bbe6e4"/>
      <path id="Контур_275" data-name="Контур 275" d="M559.929,130.254a1.949,1.949,0,1,0-1.95,1.948A1.949,1.949,0,0,0,559.929,130.254Z" transform="translate(207.465 14.854)" fill="#bbe6e4"/>
      <path id="Контур_276" data-name="Контур 276" d="M535.4,116.091a1.948,1.948,0,1,0-1.948,1.948A1.948,1.948,0,0,0,535.4,116.091Z" transform="translate(194.595 7.424)" fill="#bbe6e4"/>
      <path id="Контур_277" data-name="Контур 277" d="M584.459,116.091a1.949,1.949,0,1,0-1.948,1.948A1.948,1.948,0,0,0,584.459,116.091Z" transform="translate(220.334 7.424)" fill="#bbe6e4"/>
      <path id="Контур_278" data-name="Контур 278" d="M584.459,116.091a1.949,1.949,0,1,0-1.948,1.948A1.948,1.948,0,0,0,584.459,116.091Z" transform="translate(220.334 7.424)" fill="#bbe6e4"/>
      <path id="Контур_279" data-name="Контур 279" d="M339.158,172.741a1.949,1.949,0,1,0-1.95,1.948A1.949,1.949,0,0,0,339.158,172.741Z" transform="translate(91.641 37.144)" fill="#bbe6e4"/>
      <path id="Контур_280" data-name="Контур 280" d="M363.687,130.254a1.949,1.949,0,1,0-1.948,1.948A1.948,1.948,0,0,0,363.687,130.254Z" transform="translate(104.51 14.854)" fill="#bbe6e4"/>
      <path id="Контур_281" data-name="Контур 281" d="M363.687,158.579a1.949,1.949,0,1,0-1.948,1.948A1.948,1.948,0,0,0,363.687,158.579Z" transform="translate(104.51 29.714)" fill="#bbe6e4"/>
      <path id="Контур_282" data-name="Контур 282" d="M388.217,172.741a1.948,1.948,0,1,0-1.948,1.948A1.948,1.948,0,0,0,388.217,172.741Z" transform="translate(117.38 37.144)" fill="#bbe6e4"/>
      <path id="Контур_283" data-name="Контур 283" d="M363.687,158.579a1.949,1.949,0,1,0-1.948,1.948A1.948,1.948,0,0,0,363.687,158.579Z" transform="translate(104.51 29.714)" fill="#bbe6e4"/>
      <path id="Контур_284" data-name="Контур 284" d="M363.687,130.254a1.949,1.949,0,1,0-1.948,1.948A1.948,1.948,0,0,0,363.687,130.254Z" transform="translate(104.51 14.854)" fill="#bbe6e4"/>
      <path id="Контур_285" data-name="Контур 285" d="M412.747,130.254A1.948,1.948,0,1,0,410.8,132.2,1.948,1.948,0,0,0,412.747,130.254Z" transform="translate(130.249 14.854)" fill="#bbe6e4"/>
      <path id="Контур_286" data-name="Контур 286" d="M412.747,158.579a1.948,1.948,0,1,0-1.948,1.948A1.948,1.948,0,0,0,412.747,158.579Z" transform="translate(130.249 29.714)" fill="#bbe6e4"/>
      <path id="Контур_287" data-name="Контур 287" d="M437.277,172.741a1.948,1.948,0,1,0-1.949,1.948A1.948,1.948,0,0,0,437.277,172.741Z" transform="translate(143.118 37.144)" fill="#bbe6e4"/>
      <path id="Контур_288" data-name="Контур 288" d="M412.747,158.579a1.948,1.948,0,1,0-1.948,1.948A1.948,1.948,0,0,0,412.747,158.579Z" transform="translate(130.249 29.714)" fill="#bbe6e4"/>
      <path id="Контур_289" data-name="Контур 289" d="M412.747,130.254A1.948,1.948,0,1,0,410.8,132.2,1.948,1.948,0,0,0,412.747,130.254Z" transform="translate(130.249 14.854)" fill="#bbe6e4"/>
      <path id="Контур_290" data-name="Контур 290" d="M461.808,130.254a1.949,1.949,0,1,0-1.95,1.948A1.949,1.949,0,0,0,461.808,130.254Z" transform="translate(155.987 14.854)" fill="#bbe6e4"/>
      <path id="Контур_291" data-name="Контур 291" d="M461.808,158.579a1.949,1.949,0,1,0-1.95,1.948A1.949,1.949,0,0,0,461.808,158.579Z" transform="translate(155.987 29.714)" fill="#bbe6e4"/>
      <path id="Контур_292" data-name="Контур 292" d="M486.338,172.741a1.948,1.948,0,1,0-1.948,1.948A1.948,1.948,0,0,0,486.338,172.741Z" transform="translate(168.857 37.144)" fill="#bbe6e4"/>
      <path id="Контур_293" data-name="Контур 293" d="M461.808,158.579a1.949,1.949,0,1,0-1.95,1.948A1.949,1.949,0,0,0,461.808,158.579Z" transform="translate(155.987 29.714)" fill="#bbe6e4"/>
      <path id="Контур_294" data-name="Контур 294" d="M461.808,130.254a1.949,1.949,0,1,0-1.95,1.948A1.949,1.949,0,0,0,461.808,130.254Z" transform="translate(155.987 14.854)" fill="#bbe6e4"/>
      <path id="Контур_295" data-name="Контур 295" d="M510.868,130.254a1.948,1.948,0,1,0-1.949,1.948A1.948,1.948,0,0,0,510.868,130.254Z" transform="translate(181.726 14.854)" fill="#bbe6e4"/>
      <path id="Контур_296" data-name="Контур 296" d="M510.868,158.579a1.948,1.948,0,1,0-1.949,1.948A1.948,1.948,0,0,0,510.868,158.579Z" transform="translate(181.726 29.714)" fill="#bbe6e4"/>
      <path id="Контур_297" data-name="Контур 297" d="M535.4,172.741a1.948,1.948,0,1,0-1.948,1.948A1.948,1.948,0,0,0,535.4,172.741Z" transform="translate(194.595 37.144)" fill="#bbe6e4"/>
      <path id="Контур_298" data-name="Контур 298" d="M510.868,158.579a1.948,1.948,0,1,0-1.949,1.948A1.948,1.948,0,0,0,510.868,158.579Z" transform="translate(181.726 29.714)" fill="#bbe6e4"/>
      <path id="Контур_299" data-name="Контур 299" d="M510.868,130.254a1.948,1.948,0,1,0-1.949,1.948A1.948,1.948,0,0,0,510.868,130.254Z" transform="translate(181.726 14.854)" fill="#bbe6e4"/>
      <path id="Контур_300" data-name="Контур 300" d="M535.4,116.091a1.948,1.948,0,1,0-1.948,1.948A1.948,1.948,0,0,0,535.4,116.091Z" transform="translate(194.595 7.424)" fill="#bbe6e4"/>
      <path id="Контур_301" data-name="Контур 301" d="M559.929,130.254a1.949,1.949,0,1,0-1.95,1.948A1.949,1.949,0,0,0,559.929,130.254Z" transform="translate(207.465 14.854)" fill="#bbe6e4"/>
      <path id="Контур_302" data-name="Контур 302" d="M559.929,158.579a1.949,1.949,0,1,0-1.95,1.948A1.949,1.949,0,0,0,559.929,158.579Z" transform="translate(207.465 29.714)" fill="#bbe6e4"/>
      <path id="Контур_303" data-name="Контур 303" d="M584.459,172.741a1.949,1.949,0,1,0-1.948,1.948A1.948,1.948,0,0,0,584.459,172.741Z" transform="translate(220.334 37.144)" fill="#bbe6e4"/>
      <path id="Контур_304" data-name="Контур 304" d="M559.929,158.579a1.949,1.949,0,1,0-1.95,1.948A1.949,1.949,0,0,0,559.929,158.579Z" transform="translate(207.465 29.714)" fill="#bbe6e4"/>
      <path id="Контур_305" data-name="Контур 305" d="M559.929,130.254a1.949,1.949,0,1,0-1.95,1.948A1.949,1.949,0,0,0,559.929,130.254Z" transform="translate(207.465 14.854)" fill="#bbe6e4"/>
      <path id="Контур_306" data-name="Контур 306" d="M584.459,116.091a1.949,1.949,0,1,0-1.948,1.948A1.948,1.948,0,0,0,584.459,116.091Z" transform="translate(220.334 7.424)" fill="#bbe6e4"/>
      <path id="Контур_307" data-name="Контур 307" d="M314.626,215.229a1.948,1.948,0,1,0-1.949,1.948A1.948,1.948,0,0,0,314.626,215.229Z" transform="translate(78.771 59.434)" fill="#bbe6e4"/>
      <path id="Контур_308" data-name="Контур 308" d="M339.158,172.741a1.949,1.949,0,1,0-1.95,1.948A1.949,1.949,0,0,0,339.158,172.741Z" transform="translate(91.641 37.144)" fill="#bbe6e4"/>
      <path id="Контур_309" data-name="Контур 309" d="M339.158,201.066a1.949,1.949,0,1,0-1.95,1.95A1.949,1.949,0,0,0,339.158,201.066Z" transform="translate(91.641 52.004)" fill="#bbe6e4"/>
      <path id="Контур_310" data-name="Контур 310" d="M363.687,215.229a1.949,1.949,0,1,0-1.948,1.948A1.948,1.948,0,0,0,363.687,215.229Z" transform="translate(104.51 59.434)" fill="#bbe6e4"/>
      <path id="Контур_311" data-name="Контур 311" d="M339.158,201.066a1.949,1.949,0,1,0-1.95,1.95A1.949,1.949,0,0,0,339.158,201.066Z" transform="translate(91.641 52.004)" fill="#bbe6e4"/>
      <path id="Контур_312" data-name="Контур 312" d="M339.158,172.741a1.949,1.949,0,1,0-1.95,1.948A1.949,1.949,0,0,0,339.158,172.741Z" transform="translate(91.641 37.144)" fill="#bbe6e4"/>
      <path id="Контур_313" data-name="Контур 313" d="M363.687,158.579a1.949,1.949,0,1,0-1.948,1.948A1.948,1.948,0,0,0,363.687,158.579Z" transform="translate(104.51 29.714)" fill="#bbe6e4"/>
      <path id="Контур_314" data-name="Контур 314" d="M388.217,172.741a1.948,1.948,0,1,0-1.948,1.948A1.948,1.948,0,0,0,388.217,172.741Z" transform="translate(117.38 37.144)" fill="#bbe6e4"/>
      <path id="Контур_315" data-name="Контур 315" d="M388.217,201.066a1.948,1.948,0,1,0-1.948,1.95A1.948,1.948,0,0,0,388.217,201.066Z" transform="translate(117.38 52.004)" fill="#bbe6e4"/>
      <path id="Контур_316" data-name="Контур 316" d="M412.747,215.229a1.948,1.948,0,1,0-1.948,1.948A1.948,1.948,0,0,0,412.747,215.229Z" transform="translate(130.249 59.434)" fill="#bbe6e4"/>
      <path id="Контур_317" data-name="Контур 317" d="M388.217,201.066a1.948,1.948,0,1,0-1.948,1.95A1.948,1.948,0,0,0,388.217,201.066Z" transform="translate(117.38 52.004)" fill="#bbe6e4"/>
      <path id="Контур_318" data-name="Контур 318" d="M388.217,172.741a1.948,1.948,0,1,0-1.948,1.948A1.948,1.948,0,0,0,388.217,172.741Z" transform="translate(117.38 37.144)" fill="#bbe6e4"/>
      <path id="Контур_319" data-name="Контур 319" d="M412.747,158.579a1.948,1.948,0,1,0-1.948,1.948A1.948,1.948,0,0,0,412.747,158.579Z" transform="translate(130.249 29.714)" fill="#bbe6e4"/>
      <path id="Контур_320" data-name="Контур 320" d="M437.277,172.741a1.948,1.948,0,1,0-1.949,1.948A1.948,1.948,0,0,0,437.277,172.741Z" transform="translate(143.118 37.144)" fill="#bbe6e4"/>
      <path id="Контур_321" data-name="Контур 321" d="M437.277,201.066a1.948,1.948,0,1,0-1.949,1.95A1.948,1.948,0,0,0,437.277,201.066Z" transform="translate(143.118 52.004)" fill="#bbe6e4"/>
      <path id="Контур_322" data-name="Контур 322" d="M461.808,215.229a1.949,1.949,0,1,0-1.95,1.948A1.949,1.949,0,0,0,461.808,215.229Z" transform="translate(155.987 59.434)" fill="#bbe6e4"/>
      <path id="Контур_323" data-name="Контур 323" d="M437.277,201.066a1.948,1.948,0,1,0-1.949,1.95A1.948,1.948,0,0,0,437.277,201.066Z" transform="translate(143.118 52.004)" fill="#bbe6e4"/>
      <path id="Контур_324" data-name="Контур 324" d="M437.277,172.741a1.948,1.948,0,1,0-1.949,1.948A1.948,1.948,0,0,0,437.277,172.741Z" transform="translate(143.118 37.144)" fill="#bbe6e4"/>
      <path id="Контур_325" data-name="Контур 325" d="M461.808,158.579a1.949,1.949,0,1,0-1.95,1.948A1.949,1.949,0,0,0,461.808,158.579Z" transform="translate(155.987 29.714)" fill="#bbe6e4"/>
      <path id="Контур_326" data-name="Контур 326" d="M486.338,172.741a1.948,1.948,0,1,0-1.948,1.948A1.948,1.948,0,0,0,486.338,172.741Z" transform="translate(168.857 37.144)" fill="#bbe6e4"/>
      <path id="Контур_327" data-name="Контур 327" d="M486.338,201.066a1.948,1.948,0,1,0-1.948,1.95A1.948,1.948,0,0,0,486.338,201.066Z" transform="translate(168.857 52.004)" fill="#bbe6e4"/>
      <path id="Контур_328" data-name="Контур 328" d="M510.868,215.229a1.948,1.948,0,1,0-1.949,1.948A1.948,1.948,0,0,0,510.868,215.229Z" transform="translate(181.726 59.434)" fill="#bbe6e4"/>
      <path id="Контур_329" data-name="Контур 329" d="M486.338,201.066a1.948,1.948,0,1,0-1.948,1.95A1.948,1.948,0,0,0,486.338,201.066Z" transform="translate(168.857 52.004)" fill="#bbe6e4"/>
      <path id="Контур_330" data-name="Контур 330" d="M486.338,172.741a1.948,1.948,0,1,0-1.948,1.948A1.948,1.948,0,0,0,486.338,172.741Z" transform="translate(168.857 37.144)" fill="#bbe6e4"/>
      <path id="Контур_331" data-name="Контур 331" d="M510.868,158.579a1.948,1.948,0,1,0-1.949,1.948A1.948,1.948,0,0,0,510.868,158.579Z" transform="translate(181.726 29.714)" fill="#bbe6e4"/>
      <path id="Контур_332" data-name="Контур 332" d="M535.4,172.741a1.948,1.948,0,1,0-1.948,1.948A1.948,1.948,0,0,0,535.4,172.741Z" transform="translate(194.595 37.144)" fill="#bbe6e4"/>
      <path id="Контур_333" data-name="Контур 333" d="M535.4,201.066a1.948,1.948,0,1,0-1.948,1.95A1.948,1.948,0,0,0,535.4,201.066Z" transform="translate(194.595 52.004)" fill="#bbe6e4"/>
      <path id="Контур_334" data-name="Контур 334" d="M559.929,215.229a1.949,1.949,0,1,0-1.95,1.948A1.949,1.949,0,0,0,559.929,215.229Z" transform="translate(207.465 59.434)" fill="#bbe6e4"/>
      <path id="Контур_335" data-name="Контур 335" d="M535.4,201.066a1.948,1.948,0,1,0-1.948,1.95A1.948,1.948,0,0,0,535.4,201.066Z" transform="translate(194.595 52.004)" fill="#bbe6e4"/>
      <path id="Контур_336" data-name="Контур 336" d="M535.4,172.741a1.948,1.948,0,1,0-1.948,1.948A1.948,1.948,0,0,0,535.4,172.741Z" transform="translate(194.595 37.144)" fill="#bbe6e4"/>
      <path id="Контур_337" data-name="Контур 337" d="M559.929,158.579a1.949,1.949,0,1,0-1.95,1.948A1.949,1.949,0,0,0,559.929,158.579Z" transform="translate(207.465 29.714)" fill="#bbe6e4"/>
      <path id="Контур_338" data-name="Контур 338" d="M584.459,172.741a1.949,1.949,0,1,0-1.948,1.948A1.948,1.948,0,0,0,584.459,172.741Z" transform="translate(220.334 37.144)" fill="#bbe6e4"/>
      <path id="Контур_339" data-name="Контур 339" d="M584.459,201.066a1.949,1.949,0,1,0-1.948,1.95A1.948,1.948,0,0,0,584.459,201.066Z" transform="translate(220.334 52.004)" fill="#bbe6e4"/>
      <path id="Контур_340" data-name="Контур 340" d="M584.459,201.066a1.949,1.949,0,1,0-1.948,1.95A1.948,1.948,0,0,0,584.459,201.066Z" transform="translate(220.334 52.004)" fill="#bbe6e4"/>
      <path id="Контур_341" data-name="Контур 341" d="M584.459,172.741a1.949,1.949,0,1,0-1.948,1.948A1.948,1.948,0,0,0,584.459,172.741Z" transform="translate(220.334 37.144)" fill="#bbe6e4"/>
      <path id="Контур_342" data-name="Контур 342" d="M241.036,257.716a1.949,1.949,0,1,0-1.948,1.95A1.95,1.95,0,0,0,241.036,257.716Z" transform="translate(40.163 81.725)" fill="#bbe6e4"/>
      <path id="Контур_343" data-name="Контур 343" d="M265.566,243.554a1.948,1.948,0,1,0-1.948,1.948A1.948,1.948,0,0,0,265.566,243.554Z" transform="translate(53.033 74.295)" fill="#bbe6e4"/>
      <path id="Контур_344" data-name="Контур 344" d="M290.1,257.716a1.948,1.948,0,1,0-1.949,1.95A1.949,1.949,0,0,0,290.1,257.716Z" transform="translate(65.902 81.725)" fill="#bbe6e4"/>
      <path id="Контур_345" data-name="Контур 345" d="M265.566,243.554a1.948,1.948,0,1,0-1.948,1.948A1.948,1.948,0,0,0,265.566,243.554Z" transform="translate(53.033 74.295)" fill="#bbe6e4"/>
      <path id="Контур_346" data-name="Контур 346" d="M314.626,215.229a1.948,1.948,0,1,0-1.949,1.948A1.948,1.948,0,0,0,314.626,215.229Z" transform="translate(78.771 59.434)" fill="#bbe6e4"/>
      <path id="Контур_347" data-name="Контур 347" d="M314.626,243.554a1.948,1.948,0,1,0-1.949,1.948A1.948,1.948,0,0,0,314.626,243.554Z" transform="translate(78.771 74.295)" fill="#bbe6e4"/>
      <path id="Контур_348" data-name="Контур 348" d="M339.158,257.716a1.949,1.949,0,1,0-1.95,1.95A1.95,1.95,0,0,0,339.158,257.716Z" transform="translate(91.641 81.725)" fill="#bbe6e4"/>
      <path id="Контур_349" data-name="Контур 349" d="M314.626,243.554a1.948,1.948,0,1,0-1.949,1.948A1.948,1.948,0,0,0,314.626,243.554Z" transform="translate(78.771 74.295)" fill="#bbe6e4"/>
      <path id="Контур_350" data-name="Контур 350" d="M314.626,215.229a1.948,1.948,0,1,0-1.949,1.948A1.948,1.948,0,0,0,314.626,215.229Z" transform="translate(78.771 59.434)" fill="#bbe6e4"/>
      <path id="Контур_351" data-name="Контур 351" d="M339.158,201.066a1.949,1.949,0,1,0-1.95,1.95A1.949,1.949,0,0,0,339.158,201.066Z" transform="translate(91.641 52.004)" fill="#bbe6e4"/>
      <path id="Контур_352" data-name="Контур 352" d="M363.687,215.229a1.949,1.949,0,1,0-1.948,1.948A1.948,1.948,0,0,0,363.687,215.229Z" transform="translate(104.51 59.434)" fill="#bbe6e4"/>
      <path id="Контур_353" data-name="Контур 353" d="M363.687,243.554a1.949,1.949,0,1,0-1.948,1.948A1.948,1.948,0,0,0,363.687,243.554Z" transform="translate(104.51 74.295)" fill="#bbe6e4"/>
      <path id="Контур_354" data-name="Контур 354" d="M388.217,257.716a1.948,1.948,0,1,0-1.948,1.95A1.949,1.949,0,0,0,388.217,257.716Z" transform="translate(117.38 81.725)" fill="#bbe6e4"/>
      <path id="Контур_355" data-name="Контур 355" d="M363.687,243.554a1.949,1.949,0,1,0-1.948,1.948A1.948,1.948,0,0,0,363.687,243.554Z" transform="translate(104.51 74.295)" fill="#bbe6e4"/>
      <path id="Контур_356" data-name="Контур 356" d="M363.687,215.229a1.949,1.949,0,1,0-1.948,1.948A1.948,1.948,0,0,0,363.687,215.229Z" transform="translate(104.51 59.434)" fill="#bbe6e4"/>
      <path id="Контур_357" data-name="Контур 357" d="M388.217,201.066a1.948,1.948,0,1,0-1.948,1.95A1.948,1.948,0,0,0,388.217,201.066Z" transform="translate(117.38 52.004)" fill="#bbe6e4"/>
      <path id="Контур_358" data-name="Контур 358" d="M412.747,215.229a1.948,1.948,0,1,0-1.948,1.948A1.948,1.948,0,0,0,412.747,215.229Z" transform="translate(130.249 59.434)" fill="#bbe6e4"/>
      <path id="Контур_359" data-name="Контур 359" d="M412.747,243.554A1.948,1.948,0,1,0,410.8,245.5,1.948,1.948,0,0,0,412.747,243.554Z" transform="translate(130.249 74.295)" fill="#bbe6e4"/>
      <path id="Контур_360" data-name="Контур 360" d="M437.277,257.716a1.948,1.948,0,1,0-1.949,1.95A1.949,1.949,0,0,0,437.277,257.716Z" transform="translate(143.118 81.725)" fill="#bbe6e4"/>
      <path id="Контур_361" data-name="Контур 361" d="M412.747,243.554A1.948,1.948,0,1,0,410.8,245.5,1.948,1.948,0,0,0,412.747,243.554Z" transform="translate(130.249 74.295)" fill="#bbe6e4"/>
      <path id="Контур_362" data-name="Контур 362" d="M412.747,215.229a1.948,1.948,0,1,0-1.948,1.948A1.948,1.948,0,0,0,412.747,215.229Z" transform="translate(130.249 59.434)" fill="#bbe6e4"/>
      <path id="Контур_363" data-name="Контур 363" d="M437.277,201.066a1.948,1.948,0,1,0-1.949,1.95A1.948,1.948,0,0,0,437.277,201.066Z" transform="translate(143.118 52.004)" fill="#bbe6e4"/>
      <path id="Контур_364" data-name="Контур 364" d="M461.808,215.229a1.949,1.949,0,1,0-1.95,1.948A1.949,1.949,0,0,0,461.808,215.229Z" transform="translate(155.987 59.434)" fill="#bbe6e4"/>
      <path id="Контур_365" data-name="Контур 365" d="M461.808,243.554a1.949,1.949,0,1,0-1.95,1.948A1.949,1.949,0,0,0,461.808,243.554Z" transform="translate(155.987 74.295)" fill="#bbe6e4"/>
      <path id="Контур_366" data-name="Контур 366" d="M486.338,257.716a1.948,1.948,0,1,0-1.948,1.95A1.949,1.949,0,0,0,486.338,257.716Z" transform="translate(168.857 81.725)" fill="#bbe6e4"/>
      <path id="Контур_367" data-name="Контур 367" d="M461.808,243.554a1.949,1.949,0,1,0-1.95,1.948A1.949,1.949,0,0,0,461.808,243.554Z" transform="translate(155.987 74.295)" fill="#bbe6e4"/>
      <path id="Контур_368" data-name="Контур 368" d="M461.808,215.229a1.949,1.949,0,1,0-1.95,1.948A1.949,1.949,0,0,0,461.808,215.229Z" transform="translate(155.987 59.434)" fill="#bbe6e4"/>
      <path id="Контур_369" data-name="Контур 369" d="M486.338,201.066a1.948,1.948,0,1,0-1.948,1.95A1.948,1.948,0,0,0,486.338,201.066Z" transform="translate(168.857 52.004)" fill="#bbe6e4"/>
      <path id="Контур_370" data-name="Контур 370" d="M510.868,215.229a1.948,1.948,0,1,0-1.949,1.948A1.948,1.948,0,0,0,510.868,215.229Z" transform="translate(181.726 59.434)" fill="#bbe6e4"/>
      <path id="Контур_371" data-name="Контур 371" d="M510.868,243.554a1.948,1.948,0,1,0-1.949,1.948A1.948,1.948,0,0,0,510.868,243.554Z" transform="translate(181.726 74.295)" fill="#bbe6e4"/>
      <path id="Контур_372" data-name="Контур 372" d="M535.4,257.716a1.948,1.948,0,1,0-1.948,1.95A1.949,1.949,0,0,0,535.4,257.716Z" transform="translate(194.595 81.725)" fill="#bbe6e4"/>
      <path id="Контур_373" data-name="Контур 373" d="M510.868,243.554a1.948,1.948,0,1,0-1.949,1.948A1.948,1.948,0,0,0,510.868,243.554Z" transform="translate(181.726 74.295)" fill="#bbe6e4"/>
      <path id="Контур_374" data-name="Контур 374" d="M510.868,215.229a1.948,1.948,0,1,0-1.949,1.948A1.948,1.948,0,0,0,510.868,215.229Z" transform="translate(181.726 59.434)" fill="#bbe6e4"/>
      <path id="Контур_375" data-name="Контур 375" d="M535.4,201.066a1.948,1.948,0,1,0-1.948,1.95A1.948,1.948,0,0,0,535.4,201.066Z" transform="translate(194.595 52.004)" fill="#bbe6e4"/>
      <path id="Контур_376" data-name="Контур 376" d="M559.929,215.229a1.949,1.949,0,1,0-1.95,1.948A1.949,1.949,0,0,0,559.929,215.229Z" transform="translate(207.465 59.434)" fill="#bbe6e4"/>
      <path id="Контур_377" data-name="Контур 377" d="M559.929,243.554a1.949,1.949,0,1,0-1.95,1.948A1.949,1.949,0,0,0,559.929,243.554Z" transform="translate(207.465 74.295)" fill="#bbe6e4"/>
      <path id="Контур_378" data-name="Контур 378" d="M584.459,257.716a1.949,1.949,0,1,0-1.948,1.95A1.949,1.949,0,0,0,584.459,257.716Z" transform="translate(220.334 81.725)" fill="#bbe6e4"/>
      <path id="Контур_379" data-name="Контур 379" d="M559.929,243.554a1.949,1.949,0,1,0-1.95,1.948A1.949,1.949,0,0,0,559.929,243.554Z" transform="translate(207.465 74.295)" fill="#bbe6e4"/>
      <path id="Контур_380" data-name="Контур 380" d="M559.929,215.229a1.949,1.949,0,1,0-1.95,1.948A1.949,1.949,0,0,0,559.929,215.229Z" transform="translate(207.465 59.434)" fill="#bbe6e4"/>
      <path id="Контур_381" data-name="Контур 381" d="M584.459,201.066a1.949,1.949,0,1,0-1.948,1.95A1.948,1.948,0,0,0,584.459,201.066Z" transform="translate(220.334 52.004)" fill="#bbe6e4"/>
      <path id="Контур_382" data-name="Контур 382" d="M167.445,300.2a1.948,1.948,0,1,0-1.948,1.948A1.948,1.948,0,0,0,167.445,300.2Z" transform="translate(1.556 104.015)" fill="#bbe6e4"/>
      <path id="Контур_383" data-name="Контур 383" d="M191.975,286.043a1.948,1.948,0,1,0-1.948,1.948A1.949,1.949,0,0,0,191.975,286.043Z" transform="translate(14.425 96.585)" fill="#bbe6e4"/>
      <path id="Контур_384" data-name="Контур 384" d="M216.506,300.2a1.949,1.949,0,1,0-1.95,1.948A1.949,1.949,0,0,0,216.506,300.2Z" transform="translate(27.294 104.015)" fill="#bbe6e4"/>
      <path id="Контур_385" data-name="Контур 385" d="M191.975,286.043a1.948,1.948,0,1,0-1.948,1.948A1.949,1.949,0,0,0,191.975,286.043Z" transform="translate(14.425 96.585)" fill="#bbe6e4"/>
      <path id="Контур_386" data-name="Контур 386" d="M241.036,257.716a1.949,1.949,0,1,0-1.948,1.95A1.95,1.95,0,0,0,241.036,257.716Z" transform="translate(40.163 81.725)" fill="#bbe6e4"/>
      <path id="Контур_387" data-name="Контур 387" d="M241.036,286.043a1.949,1.949,0,1,0-1.948,1.948A1.95,1.95,0,0,0,241.036,286.043Z" transform="translate(40.163 96.585)" fill="#bbe6e4"/>
      <path id="Контур_388" data-name="Контур 388" d="M265.566,300.2a1.948,1.948,0,1,0-1.948,1.948A1.948,1.948,0,0,0,265.566,300.2Z" transform="translate(53.033 104.015)" fill="#bbe6e4"/>
      <path id="Контур_389" data-name="Контур 389" d="M241.036,286.043a1.949,1.949,0,1,0-1.948,1.948A1.95,1.95,0,0,0,241.036,286.043Z" transform="translate(40.163 96.585)" fill="#bbe6e4"/>
      <path id="Контур_390" data-name="Контур 390" d="M241.036,257.716a1.949,1.949,0,1,0-1.948,1.95A1.95,1.95,0,0,0,241.036,257.716Z" transform="translate(40.163 81.725)" fill="#bbe6e4"/>
      <path id="Контур_391" data-name="Контур 391" d="M265.566,243.554a1.948,1.948,0,1,0-1.948,1.948A1.948,1.948,0,0,0,265.566,243.554Z" transform="translate(53.033 74.295)" fill="#bbe6e4"/>
      <path id="Контур_392" data-name="Контур 392" d="M290.1,257.716a1.948,1.948,0,1,0-1.949,1.95A1.949,1.949,0,0,0,290.1,257.716Z" transform="translate(65.902 81.725)" fill="#bbe6e4"/>
      <path id="Контур_393" data-name="Контур 393" d="M290.1,286.043a1.948,1.948,0,1,0-1.949,1.948A1.949,1.949,0,0,0,290.1,286.043Z" transform="translate(65.902 96.585)" fill="#bbe6e4"/>
      <path id="Контур_394" data-name="Контур 394" d="M314.626,300.2a1.948,1.948,0,1,0-1.949,1.948A1.948,1.948,0,0,0,314.626,300.2Z" transform="translate(78.771 104.015)" fill="#bbe6e4"/>
      <path id="Контур_395" data-name="Контур 395" d="M290.1,286.043a1.948,1.948,0,1,0-1.949,1.948A1.949,1.949,0,0,0,290.1,286.043Z" transform="translate(65.902 96.585)" fill="#bbe6e4"/>
      <path id="Контур_396" data-name="Контур 396" d="M290.1,257.716a1.948,1.948,0,1,0-1.949,1.95A1.949,1.949,0,0,0,290.1,257.716Z" transform="translate(65.902 81.725)" fill="#bbe6e4"/>
      <path id="Контур_397" data-name="Контур 397" d="M314.626,243.554a1.948,1.948,0,1,0-1.949,1.948A1.948,1.948,0,0,0,314.626,243.554Z" transform="translate(78.771 74.295)" fill="#bbe6e4"/>
      <path id="Контур_398" data-name="Контур 398" d="M339.158,257.716a1.949,1.949,0,1,0-1.95,1.95A1.95,1.95,0,0,0,339.158,257.716Z" transform="translate(91.641 81.725)" fill="#bbe6e4"/>
      <path id="Контур_399" data-name="Контур 399" d="M339.158,286.043a1.949,1.949,0,1,0-1.95,1.948A1.951,1.951,0,0,0,339.158,286.043Z" transform="translate(91.641 96.585)" fill="#bbe6e4"/>
      <path id="Контур_400" data-name="Контур 400" d="M363.687,300.2a1.949,1.949,0,1,0-1.948,1.948A1.948,1.948,0,0,0,363.687,300.2Z" transform="translate(104.51 104.015)" fill="#bbe6e4"/>
      <path id="Контур_401" data-name="Контур 401" d="M339.158,286.043a1.949,1.949,0,1,0-1.95,1.948A1.951,1.951,0,0,0,339.158,286.043Z" transform="translate(91.641 96.585)" fill="#bbe6e4"/>
      <path id="Контур_402" data-name="Контур 402" d="M339.158,257.716a1.949,1.949,0,1,0-1.95,1.95A1.95,1.95,0,0,0,339.158,257.716Z" transform="translate(91.641 81.725)" fill="#bbe6e4"/>
      <path id="Контур_403" data-name="Контур 403" d="M363.687,243.554a1.949,1.949,0,1,0-1.948,1.948A1.948,1.948,0,0,0,363.687,243.554Z" transform="translate(104.51 74.295)" fill="#bbe6e4"/>
      <path id="Контур_404" data-name="Контур 404" d="M388.217,257.716a1.948,1.948,0,1,0-1.948,1.95A1.949,1.949,0,0,0,388.217,257.716Z" transform="translate(117.38 81.725)" fill="#bbe6e4"/>
      <path id="Контур_405" data-name="Контур 405" d="M388.217,286.043a1.948,1.948,0,1,0-1.948,1.948A1.95,1.95,0,0,0,388.217,286.043Z" transform="translate(117.38 96.585)" fill="#bbe6e4"/>
      <path id="Контур_406" data-name="Контур 406" d="M412.747,300.2a1.948,1.948,0,1,0-1.948,1.948A1.948,1.948,0,0,0,412.747,300.2Z" transform="translate(130.249 104.015)" fill="#bbe6e4"/>
      <path id="Контур_407" data-name="Контур 407" d="M388.217,286.043a1.948,1.948,0,1,0-1.948,1.948A1.95,1.95,0,0,0,388.217,286.043Z" transform="translate(117.38 96.585)" fill="#bbe6e4"/>
      <path id="Контур_408" data-name="Контур 408" d="M388.217,257.716a1.948,1.948,0,1,0-1.948,1.95A1.949,1.949,0,0,0,388.217,257.716Z" transform="translate(117.38 81.725)" fill="#bbe6e4"/>
      <path id="Контур_409" data-name="Контур 409" d="M412.747,243.554A1.948,1.948,0,1,0,410.8,245.5,1.948,1.948,0,0,0,412.747,243.554Z" transform="translate(130.249 74.295)" fill="#bbe6e4"/>
      <path id="Контур_410" data-name="Контур 410" d="M437.277,257.716a1.948,1.948,0,1,0-1.949,1.95A1.949,1.949,0,0,0,437.277,257.716Z" transform="translate(143.118 81.725)" fill="#bbe6e4"/>
      <path id="Контур_411" data-name="Контур 411" d="M437.277,286.043a1.948,1.948,0,1,0-1.949,1.948A1.95,1.95,0,0,0,437.277,286.043Z" transform="translate(143.118 96.585)" fill="#bbe6e4"/>
      <path id="Контур_412" data-name="Контур 412" d="M461.808,300.2a1.949,1.949,0,1,0-1.95,1.948A1.949,1.949,0,0,0,461.808,300.2Z" transform="translate(155.987 104.015)" fill="#bbe6e4"/>
      <path id="Контур_413" data-name="Контур 413" d="M437.277,286.043a1.948,1.948,0,1,0-1.949,1.948A1.95,1.95,0,0,0,437.277,286.043Z" transform="translate(143.118 96.585)" fill="#bbe6e4"/>
      <path id="Контур_414" data-name="Контур 414" d="M437.277,257.716a1.948,1.948,0,1,0-1.949,1.95A1.949,1.949,0,0,0,437.277,257.716Z" transform="translate(143.118 81.725)" fill="#bbe6e4"/>
      <path id="Контур_415" data-name="Контур 415" d="M461.808,243.554a1.949,1.949,0,1,0-1.95,1.948A1.949,1.949,0,0,0,461.808,243.554Z" transform="translate(155.987 74.295)" fill="#bbe6e4"/>
      <path id="Контур_416" data-name="Контур 416" d="M486.338,257.716a1.948,1.948,0,1,0-1.948,1.95A1.949,1.949,0,0,0,486.338,257.716Z" transform="translate(168.857 81.725)" fill="#bbe6e4"/>
      <path id="Контур_417" data-name="Контур 417" d="M486.338,286.043a1.948,1.948,0,1,0-1.948,1.948A1.95,1.95,0,0,0,486.338,286.043Z" transform="translate(168.857 96.585)" fill="#bbe6e4"/>
      <path id="Контур_418" data-name="Контур 418" d="M510.868,300.2a1.948,1.948,0,1,0-1.949,1.948A1.948,1.948,0,0,0,510.868,300.2Z" transform="translate(181.726 104.015)" fill="#bbe6e4"/>
      <path id="Контур_419" data-name="Контур 419" d="M486.338,286.043a1.948,1.948,0,1,0-1.948,1.948A1.95,1.95,0,0,0,486.338,286.043Z" transform="translate(168.857 96.585)" fill="#bbe6e4"/>
      <path id="Контур_420" data-name="Контур 420" d="M486.338,257.716a1.948,1.948,0,1,0-1.948,1.95A1.949,1.949,0,0,0,486.338,257.716Z" transform="translate(168.857 81.725)" fill="#bbe6e4"/>
      <path id="Контур_421" data-name="Контур 421" d="M510.868,243.554a1.948,1.948,0,1,0-1.949,1.948A1.948,1.948,0,0,0,510.868,243.554Z" transform="translate(181.726 74.295)" fill="#bbe6e4"/>
      <path id="Контур_422" data-name="Контур 422" d="M535.4,257.716a1.948,1.948,0,1,0-1.948,1.95A1.949,1.949,0,0,0,535.4,257.716Z" transform="translate(194.595 81.725)" fill="#bbe6e4"/>
      <path id="Контур_423" data-name="Контур 423" d="M535.4,286.043a1.948,1.948,0,1,0-1.948,1.948A1.949,1.949,0,0,0,535.4,286.043Z" transform="translate(194.595 96.585)" fill="#bbe6e4"/>
      <path id="Контур_424" data-name="Контур 424" d="M559.929,300.2a1.949,1.949,0,1,0-1.95,1.948A1.949,1.949,0,0,0,559.929,300.2Z" transform="translate(207.465 104.015)" fill="#bbe6e4"/>
      <path id="Контур_425" data-name="Контур 425" d="M535.4,286.043a1.948,1.948,0,1,0-1.948,1.948A1.949,1.949,0,0,0,535.4,286.043Z" transform="translate(194.595 96.585)" fill="#bbe6e4"/>
      <path id="Контур_426" data-name="Контур 426" d="M535.4,257.716a1.948,1.948,0,1,0-1.948,1.95A1.949,1.949,0,0,0,535.4,257.716Z" transform="translate(194.595 81.725)" fill="#bbe6e4"/>
      <path id="Контур_427" data-name="Контур 427" d="M559.929,243.554a1.949,1.949,0,1,0-1.95,1.948A1.949,1.949,0,0,0,559.929,243.554Z" transform="translate(207.465 74.295)" fill="#bbe6e4"/>
      <path id="Контур_428" data-name="Контур 428" d="M584.459,257.716a1.949,1.949,0,1,0-1.948,1.95A1.949,1.949,0,0,0,584.459,257.716Z" transform="translate(220.334 81.725)" fill="#bbe6e4"/>
      <path id="Контур_429" data-name="Контур 429" d="M584.459,286.043a1.949,1.949,0,1,0-1.948,1.948A1.949,1.949,0,0,0,584.459,286.043Z" transform="translate(220.334 96.585)" fill="#bbe6e4"/>
      <path id="Контур_430" data-name="Контур 430" d="M584.459,286.043a1.949,1.949,0,1,0-1.948,1.948A1.949,1.949,0,0,0,584.459,286.043Z" transform="translate(220.334 96.585)" fill="#bbe6e4"/>
      <path id="Контур_431" data-name="Контур 431" d="M584.459,257.716a1.949,1.949,0,1,0-1.948,1.95A1.949,1.949,0,0,0,584.459,257.716Z" transform="translate(220.334 81.725)" fill="#bbe6e4"/>
      <path id="Контур_432" data-name="Контур 432" d="M167.445,300.2a1.948,1.948,0,1,0-1.948,1.948A1.948,1.948,0,0,0,167.445,300.2Z" transform="translate(1.556 104.015)" fill="#bbe6e4"/>
      <path id="Контур_433" data-name="Контур 433" d="M167.445,300.2a1.948,1.948,0,1,0-1.948,1.948A1.948,1.948,0,0,0,167.445,300.2Z" transform="translate(1.556 104.015)" fill="#bbe6e4"/>
      <path id="Контур_434" data-name="Контур 434" d="M191.975,286.043a1.948,1.948,0,1,0-1.948,1.948A1.949,1.949,0,0,0,191.975,286.043Z" transform="translate(14.425 96.585)" fill="#bbe6e4"/>
      <path id="Контур_435" data-name="Контур 435" d="M216.506,300.2a1.949,1.949,0,1,0-1.95,1.948A1.949,1.949,0,0,0,216.506,300.2Z" transform="translate(27.294 104.015)" fill="#bbe6e4"/>
      <path id="Контур_436" data-name="Контур 436" d="M216.506,300.2a1.949,1.949,0,1,0-1.95,1.948A1.949,1.949,0,0,0,216.506,300.2Z" transform="translate(27.294 104.015)" fill="#bbe6e4"/>
      <path id="Контур_437" data-name="Контур 437" d="M241.036,286.043a1.949,1.949,0,1,0-1.948,1.948A1.95,1.95,0,0,0,241.036,286.043Z" transform="translate(40.163 96.585)" fill="#bbe6e4"/>
      <path id="Контур_438" data-name="Контур 438" d="M265.566,300.2a1.948,1.948,0,1,0-1.948,1.948A1.948,1.948,0,0,0,265.566,300.2Z" transform="translate(53.033 104.015)" fill="#bbe6e4"/>
      <path id="Контур_439" data-name="Контур 439" d="M265.566,300.2a1.948,1.948,0,1,0-1.948,1.948A1.948,1.948,0,0,0,265.566,300.2Z" transform="translate(53.033 104.015)" fill="#bbe6e4"/>
      <path id="Контур_440" data-name="Контур 440" d="M290.1,286.043a1.948,1.948,0,1,0-1.949,1.948A1.949,1.949,0,0,0,290.1,286.043Z" transform="translate(65.902 96.585)" fill="#bbe6e4"/>
      <path id="Контур_441" data-name="Контур 441" d="M314.626,300.2a1.948,1.948,0,1,0-1.949,1.948A1.948,1.948,0,0,0,314.626,300.2Z" transform="translate(78.771 104.015)" fill="#bbe6e4"/>
      <path id="Контур_442" data-name="Контур 442" d="M314.626,300.2a1.948,1.948,0,1,0-1.949,1.948A1.948,1.948,0,0,0,314.626,300.2Z" transform="translate(78.771 104.015)" fill="#bbe6e4"/>
      <path id="Контур_443" data-name="Контур 443" d="M339.158,286.043a1.949,1.949,0,1,0-1.95,1.948A1.951,1.951,0,0,0,339.158,286.043Z" transform="translate(91.641 96.585)" fill="#bbe6e4"/>
      <path id="Контур_444" data-name="Контур 444" d="M363.687,300.2a1.949,1.949,0,1,0-1.948,1.948A1.948,1.948,0,0,0,363.687,300.2Z" transform="translate(104.51 104.015)" fill="#bbe6e4"/>
      <path id="Контур_445" data-name="Контур 445" d="M363.687,300.2a1.949,1.949,0,1,0-1.948,1.948A1.948,1.948,0,0,0,363.687,300.2Z" transform="translate(104.51 104.015)" fill="#bbe6e4"/>
      <path id="Контур_446" data-name="Контур 446" d="M388.217,286.043a1.948,1.948,0,1,0-1.948,1.948A1.95,1.95,0,0,0,388.217,286.043Z" transform="translate(117.38 96.585)" fill="#bbe6e4"/>
      <path id="Контур_447" data-name="Контур 447" d="M412.747,300.2a1.948,1.948,0,1,0-1.948,1.948A1.948,1.948,0,0,0,412.747,300.2Z" transform="translate(130.249 104.015)" fill="#bbe6e4"/>
      <path id="Контур_448" data-name="Контур 448" d="M412.747,300.2a1.948,1.948,0,1,0-1.948,1.948A1.948,1.948,0,0,0,412.747,300.2Z" transform="translate(130.249 104.015)" fill="#bbe6e4"/>
      <path id="Контур_449" data-name="Контур 449" d="M437.277,286.043a1.948,1.948,0,1,0-1.949,1.948A1.95,1.95,0,0,0,437.277,286.043Z" transform="translate(143.118 96.585)" fill="#bbe6e4"/>
      <path id="Контур_450" data-name="Контур 450" d="M461.808,300.2a1.949,1.949,0,1,0-1.95,1.948A1.949,1.949,0,0,0,461.808,300.2Z" transform="translate(155.987 104.015)" fill="#bbe6e4"/>
      <path id="Контур_451" data-name="Контур 451" d="M461.808,300.2a1.949,1.949,0,1,0-1.95,1.948A1.949,1.949,0,0,0,461.808,300.2Z" transform="translate(155.987 104.015)" fill="#bbe6e4"/>
      <path id="Контур_452" data-name="Контур 452" d="M486.338,286.043a1.948,1.948,0,1,0-1.948,1.948A1.95,1.95,0,0,0,486.338,286.043Z" transform="translate(168.857 96.585)" fill="#bbe6e4"/>
      <path id="Контур_453" data-name="Контур 453" d="M510.868,300.2a1.948,1.948,0,1,0-1.949,1.948A1.948,1.948,0,0,0,510.868,300.2Z" transform="translate(181.726 104.015)" fill="#bbe6e4"/>
      <path id="Контур_454" data-name="Контур 454" d="M510.868,300.2a1.948,1.948,0,1,0-1.949,1.948A1.948,1.948,0,0,0,510.868,300.2Z" transform="translate(181.726 104.015)" fill="#bbe6e4"/>
      <path id="Контур_455" data-name="Контур 455" d="M535.4,286.043a1.948,1.948,0,1,0-1.948,1.948A1.949,1.949,0,0,0,535.4,286.043Z" transform="translate(194.595 96.585)" fill="#bbe6e4"/>
      <path id="Контур_456" data-name="Контур 456" d="M559.929,300.2a1.949,1.949,0,1,0-1.95,1.948A1.949,1.949,0,0,0,559.929,300.2Z" transform="translate(207.465 104.015)" fill="#bbe6e4"/>
      <path id="Контур_457" data-name="Контур 457" d="M559.929,300.2a1.949,1.949,0,1,0-1.95,1.948A1.949,1.949,0,0,0,559.929,300.2Z" transform="translate(207.465 104.015)" fill="#bbe6e4"/>
      <path id="Контур_458" data-name="Контур 458" d="M584.459,286.043a1.949,1.949,0,1,0-1.948,1.948A1.949,1.949,0,0,0,584.459,286.043Z" transform="translate(220.334 96.585)" fill="#bbe6e4"/>
    </g>
  </g>
</svg>
