<svg xmlns="http://www.w3.org/2000/svg" xmlns:xlink="http://www.w3.org/1999/xlink" width="400" height="146" viewBox="0 0 400 146">
  <defs>
    <clipPath id="clip-path">
      <rect id="Прямоугольник_7775" data-name="Прямоугольник 7775" width="400" height="146" transform="translate(898.83 1108.635)" fill="#fff" stroke="#707070" stroke-width="1"/>
    </clipPath>
  </defs>
  <g id="Группа_масок_36" data-name="Группа масок 36" transform="translate(-898.83 -1108.635)" opacity="0.15" clip-path="url(#clip-path)">
    <g id="Сгруппировать_1205" data-name="Сгруппировать 1205" transform="translate(830.508 1109.37)" style="isolation: isolate">
      <g id="Сгруппировать_969" data-name="Сгруппировать 969" transform="translate(0 0.991)">
        <g id="Сгруппировать_935" data-name="Сгруппировать 935">
          <g id="Сгруппировать_908" data-name="Сгруппировать 908" transform="translate(418.999)">
            <path id="Контур_43" data-name="Контур 43" d="M582.451,152.01l-21.988,12.7-27.25-15.734V117.5l27.25-15.734,21.988,12.7v-.9l-21.988-12.695-27.834,16.071-.195.112v32.367L560.463,165.6l21.988-12.7Z" transform="translate(-532.434 -100.872)" fill="#bbe6e4"/>
          </g>
          <g id="Сгруппировать_909" data-name="Сгруппировать 909" transform="translate(225.515 47.875)">
            <path id="Контур_44" data-name="Контур 44" d="M388.752,208.091l-28.03-16.182V159.543l.194-.112,27.836-16.071,28.03,16.183v32.366l-.195.112ZM361.5,191.458l27.253,15.734L416,191.458V159.993l-27.251-15.734L361.5,159.993Z" transform="translate(-360.722 -143.36)" fill="#bbe6e4"/>
          </g>
          <g id="Сгруппировать_910" data-name="Сгруппировать 910" transform="translate(280.796 47.875)">
            <path id="Контур_45" data-name="Контур 45" d="M437.812,208.091l-28.029-16.182V159.543l.195-.112,27.834-16.071,28.03,16.183v32.366l-.195.112Zm-27.25-16.633,27.25,15.734,27.251-15.734V159.993l-27.251-15.734-27.25,15.734Z" transform="translate(-409.783 -143.36)" fill="#bbe6e4"/>
          </g>
          <g id="Сгруппировать_911" data-name="Сгруппировать 911" transform="translate(336.077 47.875)">
            <path id="Контур_46" data-name="Контур 46" d="M486.873,208.091l-28.03-16.182V159.543l.195-.112,27.835-16.071L514.9,159.543v32.366l-.195.112Zm-27.251-16.633,27.251,15.734,27.25-15.734V159.993l-27.25-15.734-27.251,15.734Z" transform="translate(-458.843 -143.36)" fill="#bbe6e4"/>
          </g>
          <g id="Сгруппировать_912" data-name="Сгруппировать 912" transform="translate(391.357 47.875)">
            <path id="Контур_47" data-name="Контур 47" d="M535.933,208.091,507.9,191.909V159.543l.195-.112,27.835-16.071,28.029,16.183v32.366l-.195.112Zm-27.251-16.633,27.251,15.734,27.25-15.734V159.993l-27.25-15.734-27.251,15.734Z" transform="translate(-507.903 -143.36)" fill="#bbe6e4"/>
          </g>
          <g id="Сгруппировать_913" data-name="Сгруппировать 913" transform="translate(446.638 51.139)">
            <path id="Контур_48" data-name="Контур 48" d="M579.341,203.562l-21.6-12.471V159.625l21.6-12.471v-.9l-22.183,12.807-.195.112v32.366l22.378,12.919Z" transform="translate(-556.964 -146.256)" fill="#bbe6e4"/>
          </g>
          <g id="Сгруппировать_914" data-name="Сгруппировать 914" transform="translate(197.875 95.749)">
            <path id="Контур_49" data-name="Контур 49" d="M364.221,250.579,336.192,234.4V202.03l.195-.112,27.834-16.071,28.03,16.183V234.4l-.195.112Zm-27.25-16.633,27.25,15.733,27.251-15.733V202.48l-27.251-15.733-27.25,15.733Z" transform="translate(-336.192 -185.847)" fill="#bbe6e4"/>
          </g>
          <g id="Сгруппировать_915" data-name="Сгруппировать 915" transform="translate(253.155 95.749)">
            <path id="Контур_50" data-name="Контур 50" d="M413.283,250.579,385.252,234.4V202.03l.195-.112,27.836-16.071,28.028,16.183V234.4l-.194.112Zm-27.253-16.633,27.253,15.733,27.25-15.733V202.48l-27.25-15.733L386.031,202.48Z" transform="translate(-385.252 -185.847)" fill="#bbe6e4"/>
          </g>
          <g id="Сгруппировать_916" data-name="Сгруппировать 916" transform="translate(308.436 95.749)">
            <path id="Контур_51" data-name="Контур 51" d="M462.343,250.579,434.313,234.4V202.03l.194-.112,27.836-16.071,28.03,16.183V234.4l-.195.112ZM435.09,233.946l27.253,15.733,27.251-15.733V202.48l-27.251-15.733L435.09,202.48Z" transform="translate(-434.313 -185.847)" fill="#bbe6e4"/>
          </g>
          <g id="Сгруппировать_917" data-name="Сгруппировать 917" transform="translate(363.718 95.749)">
            <path id="Контур_52" data-name="Контур 52" d="M511.4,250.579,483.374,234.4V202.03l.195-.112L511.4,185.847l28.03,16.183V234.4l-.2.112Zm-27.25-16.633L511.4,249.68l27.251-15.733V202.48L511.4,186.746l-27.25,15.733Z" transform="translate(-483.374 -185.847)" fill="#bbe6e4"/>
          </g>
          <g id="Сгруппировать_918" data-name="Сгруппировать 918" transform="translate(418.999 95.749)">
            <path id="Контур_53" data-name="Контур 53" d="M582.451,236.985,560.463,249.68l-27.25-15.733V202.48l27.25-15.734,21.988,12.7v-.9l-21.988-12.695-27.834,16.071-.195.112V234.4l28.029,16.182,21.988-12.695Z" transform="translate(-532.434 -185.847)" fill="#bbe6e4"/>
          </g>
          <g id="Сгруппировать_919" data-name="Сгруппировать 919" transform="translate(114.954 143.624)">
            <path id="Контур_54" data-name="Контур 54" d="M290.632,293.067,262.6,276.884V244.517l.194-.112,27.836-16.07,28.028,16.182v32.367l-.194.112Zm-27.253-16.633,27.253,15.733,27.25-15.733V244.968l-27.25-15.733-27.253,15.733Z" transform="translate(-262.602 -228.335)" fill="#bbe6e4"/>
          </g>
          <g id="Сгруппировать_920" data-name="Сгруппировать 920" transform="translate(170.234 143.624)">
            <path id="Контур_55" data-name="Контур 55" d="M339.692,293.067l-28.03-16.183V244.517l.194-.112,27.836-16.07,28.028,16.182v32.367l-.194.112Zm-27.253-16.633,27.253,15.733,27.25-15.733V244.968l-27.25-15.733-27.253,15.733Z" transform="translate(-311.662 -228.335)" fill="#bbe6e4"/>
          </g>
          <g id="Сгруппировать_921" data-name="Сгруппировать 921" transform="translate(225.515 143.624)">
            <path id="Контур_56" data-name="Контур 56" d="M388.752,293.067l-28.03-16.183V244.517l.194-.112,27.836-16.07,28.03,16.182v32.367l-.195.112ZM361.5,276.434l27.253,15.733L416,276.434V244.968l-27.251-15.733L361.5,244.968Z" transform="translate(-360.722 -228.335)" fill="#bbe6e4"/>
          </g>
          <g id="Сгруппировать_922" data-name="Сгруппировать 922" transform="translate(280.796 143.624)">
            <path id="Контур_57" data-name="Контур 57" d="M437.812,293.067l-28.029-16.183V244.517l.195-.112,27.834-16.07,28.03,16.182v32.367l-.195.112Zm-27.25-16.633,27.25,15.733,27.251-15.733V244.968l-27.251-15.733-27.25,15.733Z" transform="translate(-409.783 -228.335)" fill="#bbe6e4"/>
          </g>
          <g id="Сгруппировать_923" data-name="Сгруппировать 923" transform="translate(336.077 143.624)">
            <path id="Контур_58" data-name="Контур 58" d="M486.873,293.067l-28.03-16.183V244.517l.195-.112,27.835-16.07L514.9,244.517v32.367l-.195.112Zm-27.251-16.633,27.251,15.733,27.25-15.733V244.968l-27.25-15.733-27.251,15.733Z" transform="translate(-458.843 -228.335)" fill="#bbe6e4"/>
          </g>
          <g id="Сгруппировать_924" data-name="Сгруппировать 924" transform="translate(391.357 143.624)">
            <path id="Контур_59" data-name="Контур 59" d="M535.933,293.067,507.9,276.884V244.517l.195-.112,27.835-16.07,28.029,16.182v32.367l-.195.112Zm-27.251-16.633,27.251,15.733,27.25-15.733V244.968l-27.25-15.733-27.251,15.733Z" transform="translate(-507.903 -228.335)" fill="#bbe6e4"/>
          </g>
          <g id="Сгруппировать_925" data-name="Сгруппировать 925" transform="translate(446.638 146.888)">
            <path id="Контур_60" data-name="Контур 60" d="M579.341,288.537l-21.6-12.471V244.6l21.6-12.47v-.9l-22.183,12.807-.195.112v32.367l22.378,12.919Z" transform="translate(-556.964 -231.231)" fill="#bbe6e4"/>
          </g>
          <g id="Сгруппировать_926" data-name="Сгруппировать 926" transform="translate(0 191.499)">
            <path id="Контур_61" data-name="Контур 61" d="M165.363,270.823l-4.78,2.76v.9l4.78-2.76,27.252,15.734v17.468h.778V287.005Z" transform="translate(-160.583 -270.823)" fill="#bbe6e4"/>
          </g>
          <g id="Сгруппировать_927" data-name="Сгруппировать 927" transform="translate(32.032 191.499)">
            <path id="Контур_62" data-name="Контур 62" d="M189.789,304.923V287.455l27.252-15.734,27.25,15.734v17.468h.778V287.005l-28.029-16.183-27.836,16.071-.194.112v17.918Z" transform="translate(-189.011 -270.823)" fill="#bbe6e4"/>
          </g>
          <g id="Сгруппировать_928" data-name="Сгруппировать 928" transform="translate(87.313 191.499)">
            <path id="Контур_63" data-name="Контур 63" d="M238.849,304.923V287.455L266.1,271.721l27.252,15.734v17.468h.778V287.005L266.1,270.823l-27.836,16.071-.195.112v17.918Z" transform="translate(-238.071 -270.823)" fill="#bbe6e4"/>
          </g>
          <g id="Сгруппировать_929" data-name="Сгруппировать 929" transform="translate(142.595 191.499)">
            <path id="Контур_64" data-name="Контур 64" d="M287.911,304.923V287.455l27.25-15.734,27.252,15.734v17.468h.778V287.005l-28.03-16.183-27.834,16.071-.195.112v17.918Z" transform="translate(-287.132 -270.823)" fill="#bbe6e4"/>
          </g>
          <g id="Сгруппировать_930" data-name="Сгруппировать 930" transform="translate(197.875 191.499)">
            <path id="Контур_65" data-name="Контур 65" d="M336.971,304.923V287.455l27.25-15.734,27.252,15.734v17.468h.778V287.005l-28.03-16.183-27.834,16.071-.195.112v17.918Z" transform="translate(-336.192 -270.823)" fill="#bbe6e4"/>
          </g>
          <g id="Сгруппировать_931" data-name="Сгруппировать 931" transform="translate(253.156 191.499)">
            <path id="Контур_66" data-name="Контур 66" d="M386.031,304.923V287.455l27.252-15.734,27.25,15.734v17.468h.778V287.005l-28.029-16.183-27.836,16.071-.195.112v17.918Z" transform="translate(-385.253 -270.823)" fill="#bbe6e4"/>
          </g>
          <g id="Сгруппировать_932" data-name="Сгруппировать 932" transform="translate(308.436 191.499)">
            <path id="Контур_67" data-name="Контур 67" d="M435.091,304.923V287.455l27.252-15.734,27.252,15.734v17.468h.778V287.005l-28.03-16.183-27.836,16.071-.195.112v17.918Z" transform="translate(-434.313 -270.823)" fill="#bbe6e4"/>
          </g>
          <g id="Сгруппировать_933" data-name="Сгруппировать 933" transform="translate(363.718 191.499)">
            <path id="Контур_68" data-name="Контур 68" d="M484.152,304.923V287.455l27.25-15.734,27.252,15.734v17.468h.778V287.005L511.4,270.823l-27.834,16.071-.195.112v17.918Z" transform="translate(-483.374 -270.823)" fill="#bbe6e4"/>
          </g>
          <g id="Сгруппировать_934" data-name="Сгруппировать 934" transform="translate(418.999 191.499)">
            <path id="Контур_69" data-name="Контур 69" d="M582.451,283.517l-21.988-12.695-27.834,16.071-.195.112v17.918h.778V287.455l27.25-15.734,21.988,12.7Z" transform="translate(-532.434 -270.823)" fill="#bbe6e4"/>
          </g>
        </g>
        <g id="Сгруппировать_968" data-name="Сгруппировать 968" transform="translate(0 15.945)">
          <g id="Сгруппировать_936" data-name="Сгруппировать 936" transform="translate(225.515)">
            <path id="Контур_70" data-name="Контур 70" d="M388.752,179.754l-28.03-16.183V131.2l.194-.112,27.836-16.07,28.03,16.182v32.366l-.195.112ZM361.5,163.121l27.253,15.735L416,163.121V131.656l-27.251-15.734L361.5,131.656Z" transform="translate(-360.722 -115.023)" fill="#bbe6e4"/>
          </g>
          <g id="Сгруппировать_937" data-name="Сгруппировать 937" transform="translate(280.796)">
            <path id="Контур_71" data-name="Контур 71" d="M437.812,179.754l-28.029-16.183V131.2l.195-.112,27.834-16.07,28.03,16.182v32.366l-.195.112Zm-27.25-16.633,27.25,15.735,27.251-15.735V131.656l-27.251-15.734-27.25,15.734Z" transform="translate(-409.783 -115.023)" fill="#bbe6e4"/>
          </g>
          <g id="Сгруппировать_938" data-name="Сгруппировать 938" transform="translate(391.357)">
            <path id="Контур_72" data-name="Контур 72" d="M535.933,179.754,507.9,163.571V131.2l.195-.112,27.835-16.07L563.962,131.2v32.366l-.195.112Zm-27.251-16.633,27.251,15.735,27.25-15.735V131.656l-27.25-15.734-27.251,15.734Z" transform="translate(-507.903 -115.023)" fill="#bbe6e4"/>
          </g>
          <g id="Сгруппировать_939" data-name="Сгруппировать 939" transform="translate(446.638 3.263)">
            <path id="Контур_73" data-name="Контур 73" d="M579.341,175.225l-21.6-12.471V131.288l21.6-12.471v-.9l-22.183,12.807-.195.112V163.2l22.378,12.919Z" transform="translate(-556.964 -117.919)" fill="#bbe6e4"/>
          </g>
          <g id="Сгруппировать_940" data-name="Сгруппировать 940" transform="translate(197.875 47.874)">
            <path id="Контур_74" data-name="Контур 74" d="M364.221,222.241l-28.029-16.182V173.693l.195-.113,27.834-16.07,28.03,16.183v32.366l-.195.112Zm-27.25-16.631,27.25,15.733,27.251-15.733V174.143l-27.251-15.734-27.25,15.734Z" transform="translate(-336.192 -157.51)" fill="#bbe6e4"/>
          </g>
          <g id="Сгруппировать_941" data-name="Сгруппировать 941" transform="translate(253.155 47.874)">
            <path id="Контур_75" data-name="Контур 75" d="M413.283,222.241l-28.031-16.182V173.693l.195-.113,27.836-16.07,28.028,16.183v32.366l-.194.112Zm-27.253-16.631,27.253,15.733,27.25-15.733V174.143l-27.25-15.734-27.253,15.734Z" transform="translate(-385.252 -157.51)" fill="#bbe6e4"/>
          </g>
          <g id="Сгруппировать_942" data-name="Сгруппировать 942" transform="translate(308.436 47.874)">
            <path id="Контур_76" data-name="Контур 76" d="M462.343,222.241l-28.03-16.182V173.693l.194-.113,27.836-16.07,28.03,16.183v32.366l-.195.112ZM435.09,205.609l27.253,15.733,27.251-15.733V174.143l-27.251-15.734L435.09,174.143Z" transform="translate(-434.313 -157.51)" fill="#bbe6e4"/>
          </g>
          <g id="Сгруппировать_943" data-name="Сгруппировать 943" transform="translate(363.718 47.874)">
            <path id="Контур_77" data-name="Контур 77" d="M511.4,222.241l-28.029-16.182V173.693l.195-.113L511.4,157.51l28.03,16.183v32.366l-.2.112Zm-27.25-16.631,27.25,15.733,27.251-15.733V174.143L511.4,158.408l-27.25,15.734Z" transform="translate(-483.374 -157.51)" fill="#bbe6e4"/>
          </g>
          <g id="Сгруппировать_944" data-name="Сгруппировать 944" transform="translate(418.999 47.874)">
            <path id="Контур_78" data-name="Контур 78" d="M582.451,208.648l-21.988,12.695-27.25-15.733V174.142l27.25-15.734,21.988,12.7v-.9L560.463,157.51l-27.834,16.071-.195.112v32.367l28.029,16.182,21.988-12.695Z" transform="translate(-532.434 -157.51)" fill="#bbe6e4"/>
          </g>
          <g id="Сгруппировать_945" data-name="Сгруппировать 945" transform="translate(170.234 95.749)">
            <path id="Контур_79" data-name="Контур 79" d="M339.692,264.729l-28.03-16.182V216.18l.194-.112L339.692,200,367.72,216.18v32.367l-.194.112ZM312.439,248.1l27.253,15.734,27.25-15.734V216.629L339.692,200.9l-27.253,15.733Z" transform="translate(-311.662 -199.998)" fill="#bbe6e4"/>
          </g>
          <g id="Сгруппировать_946" data-name="Сгруппировать 946" transform="translate(225.515 95.749)">
            <path id="Контур_80" data-name="Контур 80" d="M388.752,264.729l-28.03-16.182V216.18l.194-.112L388.752,200l28.03,16.182v32.367l-.195.112ZM361.5,248.1l27.253,15.734L416,248.1V216.629L388.752,200.9,361.5,216.629Z" transform="translate(-360.722 -199.998)" fill="#bbe6e4"/>
          </g>
          <g id="Сгруппировать_947" data-name="Сгруппировать 947" transform="translate(280.796 95.749)">
            <path id="Контур_81" data-name="Контур 81" d="M437.812,264.729l-28.029-16.182V216.18l.195-.112L437.812,200l28.03,16.182v32.367l-.195.112ZM410.562,248.1l27.25,15.734L465.063,248.1V216.629L437.812,200.9l-27.25,15.733Z" transform="translate(-409.783 -199.998)" fill="#bbe6e4"/>
          </g>
          <g id="Сгруппировать_948" data-name="Сгруппировать 948" transform="translate(336.077 95.749)">
            <path id="Контур_82" data-name="Контур 82" d="M486.873,264.729l-28.03-16.182V216.18l.195-.112L486.873,200,514.9,216.18v32.367l-.195.112ZM459.622,248.1l27.251,15.734,27.25-15.734V216.629L486.873,200.9l-27.251,15.733Z" transform="translate(-458.843 -199.998)" fill="#bbe6e4"/>
          </g>
          <g id="Сгруппировать_949" data-name="Сгруппировать 949" transform="translate(391.357 95.749)">
            <path id="Контур_83" data-name="Контур 83" d="M535.933,264.729,507.9,248.547V216.18l.195-.112L535.933,200l28.029,16.182v32.367l-.195.112ZM508.682,248.1l27.251,15.734,27.25-15.734V216.629L535.933,200.9l-27.251,15.733Z" transform="translate(-507.903 -199.998)" fill="#bbe6e4"/>
          </g>
          <g id="Сгруппировать_950" data-name="Сгруппировать 950" transform="translate(446.638 99.012)">
            <path id="Контур_84" data-name="Контур 84" d="M579.341,260.2l-21.6-12.471V216.262l21.6-12.47v-.9L557.158,215.7l-.195.112v32.367L579.341,261.1Z" transform="translate(-556.964 -202.894)" fill="#bbe6e4"/>
          </g>
          <g id="Сгруппировать_951" data-name="Сгруппировать 951" transform="translate(87.313 143.623)">
            <path id="Контур_85" data-name="Контур 85" d="M266.1,307.216l-28.03-16.182V258.668l.194-.112L266.1,242.485l28.03,16.183v32.366l-.195.112Zm-27.253-16.631L266.1,306.318l27.251-15.733V259.118L266.1,243.383l-27.253,15.735Z" transform="translate(-238.071 -242.485)" fill="#bbe6e4"/>
          </g>
          <g id="Сгруппировать_952" data-name="Сгруппировать 952" transform="translate(142.594 143.623)">
            <path id="Контур_86" data-name="Контур 86" d="M315.161,307.216l-28.029-16.182V258.668l.195-.112,27.834-16.071,28.03,16.183v32.366l-.195.112Zm-27.25-16.631,27.25,15.733,27.251-15.733V259.118l-27.251-15.735-27.25,15.735Z" transform="translate(-287.132 -242.485)" fill="#bbe6e4"/>
          </g>
          <g id="Сгруппировать_953" data-name="Сгруппировать 953" transform="translate(197.875 143.623)">
            <path id="Контур_87" data-name="Контур 87" d="M364.221,307.216l-28.029-16.182V258.668l.195-.112,27.834-16.071,28.03,16.183v32.366l-.195.112Zm-27.25-16.631,27.25,15.733,27.251-15.733V259.118l-27.251-15.735-27.25,15.735Z" transform="translate(-336.192 -242.485)" fill="#bbe6e4"/>
          </g>
          <g id="Сгруппировать_954" data-name="Сгруппировать 954" transform="translate(253.155 143.623)">
            <path id="Контур_88" data-name="Контур 88" d="M413.283,307.216l-28.031-16.182V258.668l.195-.112,27.836-16.071,28.028,16.183v32.366l-.194.112Zm-27.253-16.631,27.253,15.733,27.25-15.733V259.118l-27.25-15.735-27.253,15.735Z" transform="translate(-385.252 -242.485)" fill="#bbe6e4"/>
          </g>
          <g id="Сгруппировать_955" data-name="Сгруппировать 955" transform="translate(308.436 143.623)">
            <path id="Контур_89" data-name="Контур 89" d="M462.343,307.216l-28.03-16.182V258.668l.194-.112,27.836-16.071,28.03,16.183v32.366l-.195.112ZM435.09,290.584l27.253,15.733,27.251-15.733V259.118l-27.251-15.735L435.09,259.118Z" transform="translate(-434.313 -242.485)" fill="#bbe6e4"/>
          </g>
          <g id="Сгруппировать_956" data-name="Сгруппировать 956" transform="translate(363.718 143.623)">
            <path id="Контур_90" data-name="Контур 90" d="M511.4,307.216l-28.029-16.182V258.668l.195-.112L511.4,242.485l28.03,16.183v32.366l-.2.112Zm-27.25-16.631,27.25,15.733,27.251-15.733V259.118L511.4,243.383l-27.25,15.735Z" transform="translate(-483.374 -242.485)" fill="#bbe6e4"/>
          </g>
          <g id="Сгруппировать_957" data-name="Сгруппировать 957" transform="translate(418.999 143.623)">
            <path id="Контур_91" data-name="Контур 91" d="M582.451,293.623l-21.988,12.7-27.25-15.734V259.118l27.25-15.734,21.988,12.7v-.9l-21.988-12.695-27.834,16.071-.195.112v32.366l28.029,16.183,21.988-12.7Z" transform="translate(-532.434 -242.485)" fill="#bbe6e4"/>
          </g>
          <g id="Сгруппировать_958" data-name="Сгруппировать 958" transform="translate(0 204.695)">
            <path id="Контур_92" data-name="Контур 92" d="M160.583,296.685v.9l4.391,2.536v1.524h.778V299.67Z" transform="translate(-160.583 -296.685)" fill="#bbe6e4"/>
          </g>
          <g id="Сгруппировать_959" data-name="Сгруппировать 959" transform="translate(4.391 191.498)">
            <path id="Контур_93" data-name="Контур 93" d="M165.258,303.129v-1.524l27.252-15.734,27.252,15.734v1.524h.778v-1.974l-28.03-16.182-27.836,16.071-.195.112v1.974Z" transform="translate(-164.48 -284.973)" fill="#bbe6e4"/>
          </g>
          <g id="Сгруппировать_960" data-name="Сгруппировать 960" transform="translate(59.673 191.498)">
            <path id="Контур_94" data-name="Контур 94" d="M214.32,303.129v-1.524l27.25-15.734,27.252,15.734v1.524h.778v-1.974l-28.03-16.182-27.834,16.071-.195.112v1.974Z" transform="translate(-213.542 -284.973)" fill="#bbe6e4"/>
          </g>
          <g id="Сгруппировать_961" data-name="Сгруппировать 961" transform="translate(114.954 191.498)">
            <path id="Контур_95" data-name="Контур 95" d="M263.38,303.129v-1.524l27.252-15.734,27.25,15.734v1.524h.778v-1.974l-28.029-16.182L262.8,301.043l-.195.112v1.974Z" transform="translate(-262.602 -284.973)" fill="#bbe6e4"/>
          </g>
          <g id="Сгруппировать_962" data-name="Сгруппировать 962" transform="translate(170.234 191.498)">
            <path id="Контур_96" data-name="Контур 96" d="M312.44,303.129v-1.524l27.252-15.734,27.25,15.734v1.524h.778v-1.974l-28.028-16.182-27.836,16.071-.195.112v1.974Z" transform="translate(-311.662 -284.973)" fill="#bbe6e4"/>
          </g>
          <g id="Сгруппировать_963" data-name="Сгруппировать 963" transform="translate(225.515 191.498)">
            <path id="Контур_97" data-name="Контур 97" d="M361.5,303.129v-1.524l27.252-15.734L416,301.605v1.524h.778v-1.974l-28.03-16.182-27.836,16.071-.195.112v1.974Z" transform="translate(-360.722 -284.973)" fill="#bbe6e4"/>
          </g>
          <g id="Сгруппировать_964" data-name="Сгруппировать 964" transform="translate(280.797 191.498)">
            <path id="Контур_98" data-name="Контур 98" d="M410.561,303.129v-1.524l27.25-15.734,27.252,15.734v1.524h.778v-1.974l-28.03-16.182-27.834,16.071-.195.112v1.974Z" transform="translate(-409.783 -284.973)" fill="#bbe6e4"/>
          </g>
          <g id="Сгруппировать_965" data-name="Сгруппировать 965" transform="translate(336.077 191.498)">
            <path id="Контур_99" data-name="Контур 99" d="M459.622,303.129v-1.524l27.252-15.734,27.25,15.734v1.524h.778v-1.974l-28.029-16.182-27.836,16.071-.194.112v1.974Z" transform="translate(-458.843 -284.973)" fill="#bbe6e4"/>
          </g>
          <g id="Сгруппировать_966" data-name="Сгруппировать 966" transform="translate(391.357 191.498)">
            <path id="Контур_100" data-name="Контур 100" d="M508.682,303.129v-1.524l27.252-15.734,27.25,15.734v1.524h.778v-1.974l-28.029-16.182L508.1,301.043l-.195.112v1.974Z" transform="translate(-507.903 -284.973)" fill="#bbe6e4"/>
          </g>
          <g id="Сгруппировать_967" data-name="Сгруппировать 967" transform="translate(446.638 194.761)">
            <path id="Контур_101" data-name="Контур 101" d="M579.341,287.869l-22.183,12.807-.195.112v1.974h.778v-1.524l21.6-12.471Z" transform="translate(-556.964 -287.869)" fill="#bbe6e4"/>
          </g>
        </g>
      </g>
      <path id="Контур_102" data-name="Контур 102" d="M534.381,115.6a1.44,1.44,0,1,0-1.44,1.441A1.44,1.44,0,0,0,534.381,115.6Z" transform="translate(-113.554 -98.197)" fill="#bbe6e4"/>
      <path id="Контур_103" data-name="Контур 103" d="M558.912,101.433a1.441,1.441,0,1,0-1.441,1.44A1.441,1.441,0,0,0,558.912,101.433Z" transform="translate(-110.444 -99.993)" fill="#bbe6e4"/>
      <path id="Контур_104" data-name="Контур 104" d="M583.442,115.6a1.441,1.441,0,1,0-1.44,1.441A1.441,1.441,0,0,0,583.442,115.6Z" transform="translate(-107.334 -98.197)" fill="#bbe6e4"/>
      <path id="Контур_105" data-name="Контур 105" d="M558.912,101.433a1.441,1.441,0,1,0-1.441,1.44A1.441,1.441,0,0,0,558.912,101.433Z" transform="translate(-110.444 -99.993)" fill="#bbe6e4"/>
      <path id="Контур_106" data-name="Контур 106" d="M362.67,158.083a1.441,1.441,0,1,0-1.44,1.44A1.44,1.44,0,0,0,362.67,158.083Z" transform="translate(-135.325 -92.81)" fill="#bbe6e4"/>
      <path id="Контур_107" data-name="Контур 107" d="M387.2,143.921a1.44,1.44,0,1,0-1.44,1.44A1.441,1.441,0,0,0,387.2,143.921Z" transform="translate(-132.215 -94.606)" fill="#bbe6e4"/>
      <path id="Контур_108" data-name="Контур 108" d="M411.73,158.083a1.44,1.44,0,1,0-1.44,1.44A1.44,1.44,0,0,0,411.73,158.083Z" transform="translate(-129.105 -92.81)" fill="#bbe6e4"/>
      <path id="Контур_109" data-name="Контур 109" d="M387.2,143.921a1.44,1.44,0,1,0-1.44,1.44A1.441,1.441,0,0,0,387.2,143.921Z" transform="translate(-132.215 -94.606)" fill="#bbe6e4"/>
      <path id="Контур_110" data-name="Контур 110" d="M436.26,143.921a1.44,1.44,0,1,0-1.44,1.44A1.441,1.441,0,0,0,436.26,143.921Z" transform="translate(-125.995 -94.606)" fill="#bbe6e4"/>
      <path id="Контур_111" data-name="Контур 111" d="M460.791,158.083a1.441,1.441,0,1,0-1.441,1.44A1.441,1.441,0,0,0,460.791,158.083Z" transform="translate(-122.885 -92.81)" fill="#bbe6e4"/>
      <path id="Контур_112" data-name="Контур 112" d="M436.26,143.921a1.44,1.44,0,1,0-1.44,1.44A1.441,1.441,0,0,0,436.26,143.921Z" transform="translate(-125.995 -94.606)" fill="#bbe6e4"/>
      <path id="Контур_113" data-name="Контур 113" d="M485.321,143.921a1.44,1.44,0,1,0-1.44,1.44A1.441,1.441,0,0,0,485.321,143.921Z" transform="translate(-119.774 -94.606)" fill="#bbe6e4"/>
      <path id="Контур_114" data-name="Контур 114" d="M509.851,158.083a1.44,1.44,0,1,0-1.44,1.44A1.44,1.44,0,0,0,509.851,158.083Z" transform="translate(-116.664 -92.81)" fill="#bbe6e4"/>
      <path id="Контур_115" data-name="Контур 115" d="M485.321,143.921a1.44,1.44,0,1,0-1.44,1.44A1.441,1.441,0,0,0,485.321,143.921Z" transform="translate(-119.774 -94.606)" fill="#bbe6e4"/>
      <path id="Контур_116" data-name="Контур 116" d="M534.381,115.6a1.44,1.44,0,1,0-1.44,1.441A1.44,1.44,0,0,0,534.381,115.6Z" transform="translate(-113.554 -98.197)" fill="#bbe6e4"/>
      <path id="Контур_117" data-name="Контур 117" d="M534.381,143.921a1.44,1.44,0,1,0-1.44,1.44A1.441,1.441,0,0,0,534.381,143.921Z" transform="translate(-113.554 -94.606)" fill="#bbe6e4"/>
      <path id="Контур_118" data-name="Контур 118" d="M558.912,158.083a1.441,1.441,0,1,0-1.441,1.44A1.441,1.441,0,0,0,558.912,158.083Z" transform="translate(-110.444 -92.81)" fill="#bbe6e4"/>
      <path id="Контур_119" data-name="Контур 119" d="M534.381,143.921a1.44,1.44,0,1,0-1.44,1.44A1.441,1.441,0,0,0,534.381,143.921Z" transform="translate(-113.554 -94.606)" fill="#bbe6e4"/>
      <path id="Контур_120" data-name="Контур 120" d="M534.381,115.6a1.44,1.44,0,1,0-1.44,1.441A1.44,1.44,0,0,0,534.381,115.6Z" transform="translate(-113.554 -98.197)" fill="#bbe6e4"/>
      <path id="Контур_121" data-name="Контур 121" d="M558.912,101.433a1.441,1.441,0,1,0-1.441,1.44A1.441,1.441,0,0,0,558.912,101.433Z" transform="translate(-110.444 -99.993)" fill="#bbe6e4"/>
      <path id="Контур_122" data-name="Контур 122" d="M583.442,115.6a1.441,1.441,0,1,0-1.44,1.441A1.441,1.441,0,0,0,583.442,115.6Z" transform="translate(-107.334 -98.197)" fill="#bbe6e4"/>
      <path id="Контур_123" data-name="Контур 123" d="M583.442,143.921a1.441,1.441,0,1,0-1.44,1.44A1.441,1.441,0,0,0,583.442,143.921Z" transform="translate(-107.334 -94.606)" fill="#bbe6e4"/>
      <path id="Контур_124" data-name="Контур 124" d="M583.442,143.921a1.441,1.441,0,1,0-1.44,1.44A1.441,1.441,0,0,0,583.442,143.921Z" transform="translate(-107.334 -94.606)" fill="#bbe6e4"/>
      <path id="Контур_125" data-name="Контур 125" d="M583.442,115.6a1.441,1.441,0,1,0-1.44,1.441A1.441,1.441,0,0,0,583.442,115.6Z" transform="translate(-107.334 -98.197)" fill="#bbe6e4"/>
      <path id="Контур_126" data-name="Контур 126" d="M338.14,200.571a1.441,1.441,0,1,0-1.441,1.44A1.441,1.441,0,0,0,338.14,200.571Z" transform="translate(-138.436 -87.423)" fill="#bbe6e4"/>
      <path id="Контур_127" data-name="Контур 127" d="M362.67,158.083a1.441,1.441,0,1,0-1.44,1.44A1.44,1.44,0,0,0,362.67,158.083Z" transform="translate(-135.325 -92.81)" fill="#bbe6e4"/>
      <path id="Контур_128" data-name="Контур 128" d="M362.67,186.408a1.441,1.441,0,1,0-1.44,1.44A1.44,1.44,0,0,0,362.67,186.408Z" transform="translate(-135.325 -89.219)" fill="#bbe6e4"/>
      <path id="Контур_129" data-name="Контур 129" d="M387.2,200.571a1.44,1.44,0,1,0-1.44,1.44A1.44,1.44,0,0,0,387.2,200.571Z" transform="translate(-132.215 -87.423)" fill="#bbe6e4"/>
      <path id="Контур_130" data-name="Контур 130" d="M362.67,186.408a1.441,1.441,0,1,0-1.44,1.44A1.44,1.44,0,0,0,362.67,186.408Z" transform="translate(-135.325 -89.219)" fill="#bbe6e4"/>
      <path id="Контур_131" data-name="Контур 131" d="M362.67,158.083a1.441,1.441,0,1,0-1.44,1.44A1.44,1.44,0,0,0,362.67,158.083Z" transform="translate(-135.325 -92.81)" fill="#bbe6e4"/>
      <path id="Контур_132" data-name="Контур 132" d="M387.2,143.921a1.44,1.44,0,1,0-1.44,1.44A1.441,1.441,0,0,0,387.2,143.921Z" transform="translate(-132.215 -94.606)" fill="#bbe6e4"/>
      <path id="Контур_133" data-name="Контур 133" d="M411.73,158.083a1.44,1.44,0,1,0-1.44,1.44A1.44,1.44,0,0,0,411.73,158.083Z" transform="translate(-129.105 -92.81)" fill="#bbe6e4"/>
      <path id="Контур_134" data-name="Контур 134" d="M411.73,186.408a1.44,1.44,0,1,0-1.44,1.44A1.44,1.44,0,0,0,411.73,186.408Z" transform="translate(-129.105 -89.219)" fill="#bbe6e4"/>
      <path id="Контур_135" data-name="Контур 135" d="M436.26,200.571a1.44,1.44,0,1,0-1.44,1.44A1.44,1.44,0,0,0,436.26,200.571Z" transform="translate(-125.995 -87.423)" fill="#bbe6e4"/>
      <path id="Контур_136" data-name="Контур 136" d="M411.73,186.408a1.44,1.44,0,1,0-1.44,1.44A1.44,1.44,0,0,0,411.73,186.408Z" transform="translate(-129.105 -89.219)" fill="#bbe6e4"/>
      <path id="Контур_137" data-name="Контур 137" d="M411.73,158.083a1.44,1.44,0,1,0-1.44,1.44A1.44,1.44,0,0,0,411.73,158.083Z" transform="translate(-129.105 -92.81)" fill="#bbe6e4"/>
      <path id="Контур_138" data-name="Контур 138" d="M436.26,143.921a1.44,1.44,0,1,0-1.44,1.44A1.441,1.441,0,0,0,436.26,143.921Z" transform="translate(-125.995 -94.606)" fill="#bbe6e4"/>
      <path id="Контур_139" data-name="Контур 139" d="M460.791,158.083a1.441,1.441,0,1,0-1.441,1.44A1.441,1.441,0,0,0,460.791,158.083Z" transform="translate(-122.885 -92.81)" fill="#bbe6e4"/>
      <path id="Контур_140" data-name="Контур 140" d="M460.791,186.408a1.441,1.441,0,1,0-1.441,1.44A1.441,1.441,0,0,0,460.791,186.408Z" transform="translate(-122.885 -89.219)" fill="#bbe6e4"/>
      <path id="Контур_141" data-name="Контур 141" d="M485.321,200.571a1.44,1.44,0,1,0-1.44,1.44A1.44,1.44,0,0,0,485.321,200.571Z" transform="translate(-119.774 -87.423)" fill="#bbe6e4"/>
      <path id="Контур_142" data-name="Контур 142" d="M460.791,186.408a1.441,1.441,0,1,0-1.441,1.44A1.441,1.441,0,0,0,460.791,186.408Z" transform="translate(-122.885 -89.219)" fill="#bbe6e4"/>
      <path id="Контур_143" data-name="Контур 143" d="M460.791,158.083a1.441,1.441,0,1,0-1.441,1.44A1.441,1.441,0,0,0,460.791,158.083Z" transform="translate(-122.885 -92.81)" fill="#bbe6e4"/>
      <path id="Контур_144" data-name="Контур 144" d="M485.321,143.921a1.44,1.44,0,1,0-1.44,1.44A1.441,1.441,0,0,0,485.321,143.921Z" transform="translate(-119.774 -94.606)" fill="#bbe6e4"/>
      <path id="Контур_145" data-name="Контур 145" d="M509.851,158.083a1.44,1.44,0,1,0-1.44,1.44A1.44,1.44,0,0,0,509.851,158.083Z" transform="translate(-116.664 -92.81)" fill="#bbe6e4"/>
      <path id="Контур_146" data-name="Контур 146" d="M509.851,186.408a1.44,1.44,0,1,0-1.44,1.44A1.44,1.44,0,0,0,509.851,186.408Z" transform="translate(-116.664 -89.219)" fill="#bbe6e4"/>
      <path id="Контур_147" data-name="Контур 147" d="M534.381,200.571a1.44,1.44,0,1,0-1.44,1.44A1.44,1.44,0,0,0,534.381,200.571Z" transform="translate(-113.554 -87.423)" fill="#bbe6e4"/>
      <path id="Контур_148" data-name="Контур 148" d="M509.851,186.408a1.44,1.44,0,1,0-1.44,1.44A1.44,1.44,0,0,0,509.851,186.408Z" transform="translate(-116.664 -89.219)" fill="#bbe6e4"/>
      <path id="Контур_149" data-name="Контур 149" d="M509.851,158.083a1.44,1.44,0,1,0-1.44,1.44A1.44,1.44,0,0,0,509.851,158.083Z" transform="translate(-116.664 -92.81)" fill="#bbe6e4"/>
      <path id="Контур_150" data-name="Контур 150" d="M534.381,143.921a1.44,1.44,0,1,0-1.44,1.44A1.441,1.441,0,0,0,534.381,143.921Z" transform="translate(-113.554 -94.606)" fill="#bbe6e4"/>
      <path id="Контур_151" data-name="Контур 151" d="M558.912,158.083a1.441,1.441,0,1,0-1.441,1.44A1.441,1.441,0,0,0,558.912,158.083Z" transform="translate(-110.444 -92.81)" fill="#bbe6e4"/>
      <path id="Контур_152" data-name="Контур 152" d="M558.912,186.408a1.441,1.441,0,1,0-1.441,1.44A1.441,1.441,0,0,0,558.912,186.408Z" transform="translate(-110.444 -89.219)" fill="#bbe6e4"/>
      <path id="Контур_153" data-name="Контур 153" d="M583.442,200.571a1.441,1.441,0,1,0-1.44,1.44A1.44,1.44,0,0,0,583.442,200.571Z" transform="translate(-107.334 -87.423)" fill="#bbe6e4"/>
      <path id="Контур_154" data-name="Контур 154" d="M558.912,186.408a1.441,1.441,0,1,0-1.441,1.44A1.441,1.441,0,0,0,558.912,186.408Z" transform="translate(-110.444 -89.219)" fill="#bbe6e4"/>
      <path id="Контур_155" data-name="Контур 155" d="M558.912,158.083a1.441,1.441,0,1,0-1.441,1.44A1.441,1.441,0,0,0,558.912,158.083Z" transform="translate(-110.444 -92.81)" fill="#bbe6e4"/>
      <path id="Контур_156" data-name="Контур 156" d="M583.442,143.921a1.441,1.441,0,1,0-1.44,1.44A1.441,1.441,0,0,0,583.442,143.921Z" transform="translate(-107.334 -94.606)" fill="#bbe6e4"/>
      <path id="Контур_157" data-name="Контур 157" d="M264.549,243.058a1.44,1.44,0,1,0-1.44,1.44A1.44,1.44,0,0,0,264.549,243.058Z" transform="translate(-147.766 -82.036)" fill="#bbe6e4"/>
      <path id="Контур_158" data-name="Контур 158" d="M289.079,228.9a1.44,1.44,0,1,0-1.44,1.44A1.44,1.44,0,0,0,289.079,228.9Z" transform="translate(-144.656 -83.832)" fill="#bbe6e4"/>
      <path id="Контур_159" data-name="Контур 159" d="M313.609,243.058a1.44,1.44,0,1,0-1.44,1.44A1.44,1.44,0,0,0,313.609,243.058Z" transform="translate(-141.546 -82.036)" fill="#bbe6e4"/>
      <path id="Контур_160" data-name="Контур 160" d="M289.079,228.9a1.44,1.44,0,1,0-1.44,1.44A1.44,1.44,0,0,0,289.079,228.9Z" transform="translate(-144.656 -83.832)" fill="#bbe6e4"/>
      <path id="Контур_161" data-name="Контур 161" d="M338.14,200.571a1.441,1.441,0,1,0-1.441,1.44A1.441,1.441,0,0,0,338.14,200.571Z" transform="translate(-138.436 -87.423)" fill="#bbe6e4"/>
      <path id="Контур_162" data-name="Контур 162" d="M338.14,228.9a1.441,1.441,0,1,0-1.441,1.44A1.441,1.441,0,0,0,338.14,228.9Z" transform="translate(-138.436 -83.832)" fill="#bbe6e4"/>
      <path id="Контур_163" data-name="Контур 163" d="M362.67,243.058a1.441,1.441,0,1,0-1.44,1.44A1.44,1.44,0,0,0,362.67,243.058Z" transform="translate(-135.325 -82.036)" fill="#bbe6e4"/>
      <path id="Контур_164" data-name="Контур 164" d="M338.14,228.9a1.441,1.441,0,1,0-1.441,1.44A1.441,1.441,0,0,0,338.14,228.9Z" transform="translate(-138.436 -83.832)" fill="#bbe6e4"/>
      <path id="Контур_165" data-name="Контур 165" d="M338.14,200.571a1.441,1.441,0,1,0-1.441,1.44A1.441,1.441,0,0,0,338.14,200.571Z" transform="translate(-138.436 -87.423)" fill="#bbe6e4"/>
      <path id="Контур_166" data-name="Контур 166" d="M362.67,186.408a1.441,1.441,0,1,0-1.44,1.44A1.44,1.44,0,0,0,362.67,186.408Z" transform="translate(-135.325 -89.219)" fill="#bbe6e4"/>
      <path id="Контур_167" data-name="Контур 167" d="M387.2,200.571a1.44,1.44,0,1,0-1.44,1.44A1.44,1.44,0,0,0,387.2,200.571Z" transform="translate(-132.215 -87.423)" fill="#bbe6e4"/>
      <path id="Контур_168" data-name="Контур 168" d="M387.2,228.9a1.44,1.44,0,1,0-1.44,1.44A1.44,1.44,0,0,0,387.2,228.9Z" transform="translate(-132.215 -83.832)" fill="#bbe6e4"/>
      <path id="Контур_169" data-name="Контур 169" d="M411.73,243.058a1.44,1.44,0,1,0-1.44,1.44A1.44,1.44,0,0,0,411.73,243.058Z" transform="translate(-129.105 -82.036)" fill="#bbe6e4"/>
      <path id="Контур_170" data-name="Контур 170" d="M387.2,228.9a1.44,1.44,0,1,0-1.44,1.44A1.44,1.44,0,0,0,387.2,228.9Z" transform="translate(-132.215 -83.832)" fill="#bbe6e4"/>
      <path id="Контур_171" data-name="Контур 171" d="M387.2,200.571a1.44,1.44,0,1,0-1.44,1.44A1.44,1.44,0,0,0,387.2,200.571Z" transform="translate(-132.215 -87.423)" fill="#bbe6e4"/>
      <path id="Контур_172" data-name="Контур 172" d="M411.73,186.408a1.44,1.44,0,1,0-1.44,1.44A1.44,1.44,0,0,0,411.73,186.408Z" transform="translate(-129.105 -89.219)" fill="#bbe6e4"/>
      <path id="Контур_173" data-name="Контур 173" d="M436.26,200.571a1.44,1.44,0,1,0-1.44,1.44A1.44,1.44,0,0,0,436.26,200.571Z" transform="translate(-125.995 -87.423)" fill="#bbe6e4"/>
      <path id="Контур_174" data-name="Контур 174" d="M436.26,228.9a1.44,1.44,0,1,0-1.44,1.44A1.44,1.44,0,0,0,436.26,228.9Z" transform="translate(-125.995 -83.832)" fill="#bbe6e4"/>
      <path id="Контур_175" data-name="Контур 175" d="M460.791,243.058a1.441,1.441,0,1,0-1.441,1.44A1.441,1.441,0,0,0,460.791,243.058Z" transform="translate(-122.885 -82.036)" fill="#bbe6e4"/>
      <path id="Контур_176" data-name="Контур 176" d="M436.26,228.9a1.44,1.44,0,1,0-1.44,1.44A1.44,1.44,0,0,0,436.26,228.9Z" transform="translate(-125.995 -83.832)" fill="#bbe6e4"/>
      <path id="Контур_177" data-name="Контур 177" d="M436.26,200.571a1.44,1.44,0,1,0-1.44,1.44A1.44,1.44,0,0,0,436.26,200.571Z" transform="translate(-125.995 -87.423)" fill="#bbe6e4"/>
      <path id="Контур_178" data-name="Контур 178" d="M460.791,186.408a1.441,1.441,0,1,0-1.441,1.44A1.441,1.441,0,0,0,460.791,186.408Z" transform="translate(-122.885 -89.219)" fill="#bbe6e4"/>
      <path id="Контур_179" data-name="Контур 179" d="M485.321,200.571a1.44,1.44,0,1,0-1.44,1.44A1.44,1.44,0,0,0,485.321,200.571Z" transform="translate(-119.774 -87.423)" fill="#bbe6e4"/>
      <path id="Контур_180" data-name="Контур 180" d="M485.321,228.9a1.44,1.44,0,1,0-1.44,1.44A1.44,1.44,0,0,0,485.321,228.9Z" transform="translate(-119.774 -83.832)" fill="#bbe6e4"/>
      <path id="Контур_181" data-name="Контур 181" d="M509.851,243.058a1.44,1.44,0,1,0-1.44,1.44A1.44,1.44,0,0,0,509.851,243.058Z" transform="translate(-116.664 -82.036)" fill="#bbe6e4"/>
      <path id="Контур_182" data-name="Контур 182" d="M485.321,228.9a1.44,1.44,0,1,0-1.44,1.44A1.44,1.44,0,0,0,485.321,228.9Z" transform="translate(-119.774 -83.832)" fill="#bbe6e4"/>
      <path id="Контур_183" data-name="Контур 183" d="M485.321,200.571a1.44,1.44,0,1,0-1.44,1.44A1.44,1.44,0,0,0,485.321,200.571Z" transform="translate(-119.774 -87.423)" fill="#bbe6e4"/>
      <path id="Контур_184" data-name="Контур 184" d="M509.851,186.408a1.44,1.44,0,1,0-1.44,1.44A1.44,1.44,0,0,0,509.851,186.408Z" transform="translate(-116.664 -89.219)" fill="#bbe6e4"/>
      <path id="Контур_185" data-name="Контур 185" d="M534.381,200.571a1.44,1.44,0,1,0-1.44,1.44A1.44,1.44,0,0,0,534.381,200.571Z" transform="translate(-113.554 -87.423)" fill="#bbe6e4"/>
      <path id="Контур_186" data-name="Контур 186" d="M534.381,228.9a1.44,1.44,0,1,0-1.44,1.44A1.44,1.44,0,0,0,534.381,228.9Z" transform="translate(-113.554 -83.832)" fill="#bbe6e4"/>
      <path id="Контур_187" data-name="Контур 187" d="M558.912,243.058a1.441,1.441,0,1,0-1.441,1.44A1.441,1.441,0,0,0,558.912,243.058Z" transform="translate(-110.444 -82.036)" fill="#bbe6e4"/>
      <path id="Контур_188" data-name="Контур 188" d="M534.381,228.9a1.44,1.44,0,1,0-1.44,1.44A1.44,1.44,0,0,0,534.381,228.9Z" transform="translate(-113.554 -83.832)" fill="#bbe6e4"/>
      <path id="Контур_189" data-name="Контур 189" d="M534.381,200.571a1.44,1.44,0,1,0-1.44,1.44A1.44,1.44,0,0,0,534.381,200.571Z" transform="translate(-113.554 -87.423)" fill="#bbe6e4"/>
      <path id="Контур_190" data-name="Контур 190" d="M558.912,186.408a1.441,1.441,0,1,0-1.441,1.44A1.441,1.441,0,0,0,558.912,186.408Z" transform="translate(-110.444 -89.219)" fill="#bbe6e4"/>
      <path id="Контур_191" data-name="Контур 191" d="M583.442,200.571a1.441,1.441,0,1,0-1.44,1.44A1.44,1.44,0,0,0,583.442,200.571Z" transform="translate(-107.334 -87.423)" fill="#bbe6e4"/>
      <path id="Контур_192" data-name="Контур 192" d="M583.442,228.9a1.441,1.441,0,1,0-1.44,1.44A1.44,1.44,0,0,0,583.442,228.9Z" transform="translate(-107.334 -83.832)" fill="#bbe6e4"/>
      <path id="Контур_193" data-name="Контур 193" d="M583.442,228.9a1.441,1.441,0,1,0-1.44,1.44A1.44,1.44,0,0,0,583.442,228.9Z" transform="translate(-107.334 -83.832)" fill="#bbe6e4"/>
      <path id="Контур_194" data-name="Контур 194" d="M583.442,200.571a1.441,1.441,0,1,0-1.44,1.44A1.44,1.44,0,0,0,583.442,200.571Z" transform="translate(-107.334 -87.423)" fill="#bbe6e4"/>
      <path id="Контур_196" data-name="Контур 196" d="M190.958,285.546a1.44,1.44,0,1,0-1.44,1.44A1.44,1.44,0,0,0,190.958,285.546Z" transform="translate(-157.097 -76.649)" fill="#bbe6e4"/>
      <path id="Контур_198" data-name="Контур 198" d="M215.489,271.383a1.441,1.441,0,1,0-1.441,1.441A1.441,1.441,0,0,0,215.489,271.383Z" transform="translate(-153.987 -78.445)" fill="#bbe6e4"/>
      <path id="Контур_199" data-name="Контур 199" d="M240.019,285.546a1.441,1.441,0,1,0-1.44,1.44A1.441,1.441,0,0,0,240.019,285.546Z" transform="translate(-150.876 -76.649)" fill="#bbe6e4"/>
      <path id="Контур_200" data-name="Контур 200" d="M215.489,271.383a1.441,1.441,0,1,0-1.441,1.441A1.441,1.441,0,0,0,215.489,271.383Z" transform="translate(-153.987 -78.445)" fill="#bbe6e4"/>
      <path id="Контур_201" data-name="Контур 201" d="M264.549,243.058a1.44,1.44,0,1,0-1.44,1.44A1.44,1.44,0,0,0,264.549,243.058Z" transform="translate(-147.766 -82.036)" fill="#bbe6e4"/>
      <path id="Контур_202" data-name="Контур 202" d="M264.549,271.383a1.44,1.44,0,1,0-1.44,1.441A1.44,1.44,0,0,0,264.549,271.383Z" transform="translate(-147.766 -78.445)" fill="#bbe6e4"/>
      <path id="Контур_203" data-name="Контур 203" d="M289.079,285.546a1.44,1.44,0,1,0-1.44,1.44A1.44,1.44,0,0,0,289.079,285.546Z" transform="translate(-144.656 -76.649)" fill="#bbe6e4"/>
      <path id="Контур_204" data-name="Контур 204" d="M264.549,271.383a1.44,1.44,0,1,0-1.44,1.441A1.44,1.44,0,0,0,264.549,271.383Z" transform="translate(-147.766 -78.445)" fill="#bbe6e4"/>
      <path id="Контур_205" data-name="Контур 205" d="M264.549,243.058a1.44,1.44,0,1,0-1.44,1.44A1.44,1.44,0,0,0,264.549,243.058Z" transform="translate(-147.766 -82.036)" fill="#bbe6e4"/>
      <path id="Контур_206" data-name="Контур 206" d="M289.079,228.9a1.44,1.44,0,1,0-1.44,1.44A1.44,1.44,0,0,0,289.079,228.9Z" transform="translate(-144.656 -83.832)" fill="#bbe6e4"/>
      <path id="Контур_207" data-name="Контур 207" d="M313.609,243.058a1.44,1.44,0,1,0-1.44,1.44A1.44,1.44,0,0,0,313.609,243.058Z" transform="translate(-141.546 -82.036)" fill="#bbe6e4"/>
      <path id="Контур_208" data-name="Контур 208" d="M313.609,271.383a1.44,1.44,0,1,0-1.44,1.441A1.44,1.44,0,0,0,313.609,271.383Z" transform="translate(-141.546 -78.445)" fill="#bbe6e4"/>
      <path id="Контур_209" data-name="Контур 209" d="M338.14,285.546a1.441,1.441,0,1,0-1.441,1.44A1.441,1.441,0,0,0,338.14,285.546Z" transform="translate(-138.436 -76.649)" fill="#bbe6e4"/>
      <path id="Контур_210" data-name="Контур 210" d="M313.609,271.383a1.44,1.44,0,1,0-1.44,1.441A1.44,1.44,0,0,0,313.609,271.383Z" transform="translate(-141.546 -78.445)" fill="#bbe6e4"/>
      <path id="Контур_211" data-name="Контур 211" d="M313.609,243.058a1.44,1.44,0,1,0-1.44,1.44A1.44,1.44,0,0,0,313.609,243.058Z" transform="translate(-141.546 -82.036)" fill="#bbe6e4"/>
      <path id="Контур_212" data-name="Контур 212" d="M338.14,228.9a1.441,1.441,0,1,0-1.441,1.44A1.441,1.441,0,0,0,338.14,228.9Z" transform="translate(-138.436 -83.832)" fill="#bbe6e4"/>
      <path id="Контур_213" data-name="Контур 213" d="M362.67,243.058a1.441,1.441,0,1,0-1.44,1.44A1.44,1.44,0,0,0,362.67,243.058Z" transform="translate(-135.325 -82.036)" fill="#bbe6e4"/>
      <path id="Контур_214" data-name="Контур 214" d="M362.67,271.383a1.441,1.441,0,1,0-1.44,1.441A1.44,1.44,0,0,0,362.67,271.383Z" transform="translate(-135.325 -78.445)" fill="#bbe6e4"/>
      <path id="Контур_215" data-name="Контур 215" d="M387.2,285.546a1.44,1.44,0,1,0-1.44,1.44A1.44,1.44,0,0,0,387.2,285.546Z" transform="translate(-132.215 -76.649)" fill="#bbe6e4"/>
      <path id="Контур_216" data-name="Контур 216" d="M362.67,271.383a1.441,1.441,0,1,0-1.44,1.441A1.44,1.44,0,0,0,362.67,271.383Z" transform="translate(-135.325 -78.445)" fill="#bbe6e4"/>
      <path id="Контур_217" data-name="Контур 217" d="M362.67,243.058a1.441,1.441,0,1,0-1.44,1.44A1.44,1.44,0,0,0,362.67,243.058Z" transform="translate(-135.325 -82.036)" fill="#bbe6e4"/>
      <path id="Контур_218" data-name="Контур 218" d="M387.2,228.9a1.44,1.44,0,1,0-1.44,1.44A1.44,1.44,0,0,0,387.2,228.9Z" transform="translate(-132.215 -83.832)" fill="#bbe6e4"/>
      <path id="Контур_219" data-name="Контур 219" d="M411.73,243.058a1.44,1.44,0,1,0-1.44,1.44A1.44,1.44,0,0,0,411.73,243.058Z" transform="translate(-129.105 -82.036)" fill="#bbe6e4"/>
      <path id="Контур_220" data-name="Контур 220" d="M411.73,271.383a1.44,1.44,0,1,0-1.44,1.441A1.44,1.44,0,0,0,411.73,271.383Z" transform="translate(-129.105 -78.445)" fill="#bbe6e4"/>
      <path id="Контур_221" data-name="Контур 221" d="M436.26,285.546a1.44,1.44,0,1,0-1.44,1.44A1.44,1.44,0,0,0,436.26,285.546Z" transform="translate(-125.995 -76.649)" fill="#bbe6e4"/>
      <path id="Контур_222" data-name="Контур 222" d="M411.73,271.383a1.44,1.44,0,1,0-1.44,1.441A1.44,1.44,0,0,0,411.73,271.383Z" transform="translate(-129.105 -78.445)" fill="#bbe6e4"/>
      <path id="Контур_223" data-name="Контур 223" d="M411.73,243.058a1.44,1.44,0,1,0-1.44,1.44A1.44,1.44,0,0,0,411.73,243.058Z" transform="translate(-129.105 -82.036)" fill="#bbe6e4"/>
      <path id="Контур_224" data-name="Контур 224" d="M436.26,228.9a1.44,1.44,0,1,0-1.44,1.44A1.44,1.44,0,0,0,436.26,228.9Z" transform="translate(-125.995 -83.832)" fill="#bbe6e4"/>
      <path id="Контур_225" data-name="Контур 225" d="M460.791,243.058a1.441,1.441,0,1,0-1.441,1.44A1.441,1.441,0,0,0,460.791,243.058Z" transform="translate(-122.885 -82.036)" fill="#bbe6e4"/>
      <path id="Контур_226" data-name="Контур 226" d="M460.791,271.383a1.441,1.441,0,1,0-1.441,1.441A1.441,1.441,0,0,0,460.791,271.383Z" transform="translate(-122.885 -78.445)" fill="#bbe6e4"/>
      <path id="Контур_227" data-name="Контур 227" d="M485.321,285.546a1.44,1.44,0,1,0-1.44,1.44A1.44,1.44,0,0,0,485.321,285.546Z" transform="translate(-119.774 -76.649)" fill="#bbe6e4"/>
      <path id="Контур_228" data-name="Контур 228" d="M460.791,271.383a1.441,1.441,0,1,0-1.441,1.441A1.441,1.441,0,0,0,460.791,271.383Z" transform="translate(-122.885 -78.445)" fill="#bbe6e4"/>
      <path id="Контур_229" data-name="Контур 229" d="M460.791,243.058a1.441,1.441,0,1,0-1.441,1.44A1.441,1.441,0,0,0,460.791,243.058Z" transform="translate(-122.885 -82.036)" fill="#bbe6e4"/>
      <path id="Контур_230" data-name="Контур 230" d="M485.321,228.9a1.44,1.44,0,1,0-1.44,1.44A1.44,1.44,0,0,0,485.321,228.9Z" transform="translate(-119.774 -83.832)" fill="#bbe6e4"/>
      <path id="Контур_231" data-name="Контур 231" d="M509.851,243.058a1.44,1.44,0,1,0-1.44,1.44A1.44,1.44,0,0,0,509.851,243.058Z" transform="translate(-116.664 -82.036)" fill="#bbe6e4"/>
      <path id="Контур_232" data-name="Контур 232" d="M509.851,271.383a1.44,1.44,0,1,0-1.44,1.441A1.44,1.44,0,0,0,509.851,271.383Z" transform="translate(-116.664 -78.445)" fill="#bbe6e4"/>
      <path id="Контур_233" data-name="Контур 233" d="M534.381,285.546a1.44,1.44,0,1,0-1.44,1.44A1.44,1.44,0,0,0,534.381,285.546Z" transform="translate(-113.554 -76.649)" fill="#bbe6e4"/>
      <path id="Контур_234" data-name="Контур 234" d="M509.851,271.383a1.44,1.44,0,1,0-1.44,1.441A1.44,1.44,0,0,0,509.851,271.383Z" transform="translate(-116.664 -78.445)" fill="#bbe6e4"/>
      <path id="Контур_235" data-name="Контур 235" d="M509.851,243.058a1.44,1.44,0,1,0-1.44,1.44A1.44,1.44,0,0,0,509.851,243.058Z" transform="translate(-116.664 -82.036)" fill="#bbe6e4"/>
      <path id="Контур_236" data-name="Контур 236" d="M534.381,228.9a1.44,1.44,0,1,0-1.44,1.44A1.44,1.44,0,0,0,534.381,228.9Z" transform="translate(-113.554 -83.832)" fill="#bbe6e4"/>
      <path id="Контур_237" data-name="Контур 237" d="M558.912,243.058a1.441,1.441,0,1,0-1.441,1.44A1.441,1.441,0,0,0,558.912,243.058Z" transform="translate(-110.444 -82.036)" fill="#bbe6e4"/>
      <path id="Контур_238" data-name="Контур 238" d="M558.912,271.383a1.441,1.441,0,1,0-1.441,1.441A1.441,1.441,0,0,0,558.912,271.383Z" transform="translate(-110.444 -78.445)" fill="#bbe6e4"/>
      <path id="Контур_239" data-name="Контур 239" d="M583.442,285.546a1.441,1.441,0,1,0-1.44,1.44A1.44,1.44,0,0,0,583.442,285.546Z" transform="translate(-107.334 -76.649)" fill="#bbe6e4"/>
      <path id="Контур_240" data-name="Контур 240" d="M558.912,271.383a1.441,1.441,0,1,0-1.441,1.441A1.441,1.441,0,0,0,558.912,271.383Z" transform="translate(-110.444 -78.445)" fill="#bbe6e4"/>
      <path id="Контур_241" data-name="Контур 241" d="M558.912,243.058a1.441,1.441,0,1,0-1.441,1.44A1.441,1.441,0,0,0,558.912,243.058Z" transform="translate(-110.444 -82.036)" fill="#bbe6e4"/>
      <path id="Контур_242" data-name="Контур 242" d="M583.442,228.9a1.441,1.441,0,1,0-1.44,1.44A1.44,1.44,0,0,0,583.442,228.9Z" transform="translate(-107.334 -83.832)" fill="#bbe6e4"/>
      <path id="Контур_244" data-name="Контур 244" d="M190.958,285.546a1.44,1.44,0,1,0-1.44,1.44A1.44,1.44,0,0,0,190.958,285.546Z" transform="translate(-157.097 -76.649)" fill="#bbe6e4"/>
      <path id="Контур_245" data-name="Контур 245" d="M190.958,285.546a1.44,1.44,0,1,0-1.44,1.44A1.44,1.44,0,0,0,190.958,285.546Z" transform="translate(-157.097 -76.649)" fill="#bbe6e4"/>
      <path id="Контур_246" data-name="Контур 246" d="M215.489,271.383a1.441,1.441,0,1,0-1.441,1.441A1.441,1.441,0,0,0,215.489,271.383Z" transform="translate(-153.987 -78.445)" fill="#bbe6e4"/>
      <path id="Контур_247" data-name="Контур 247" d="M240.019,285.546a1.441,1.441,0,1,0-1.44,1.44A1.441,1.441,0,0,0,240.019,285.546Z" transform="translate(-150.876 -76.649)" fill="#bbe6e4"/>
      <path id="Контур_248" data-name="Контур 248" d="M240.019,285.546a1.441,1.441,0,1,0-1.44,1.44A1.441,1.441,0,0,0,240.019,285.546Z" transform="translate(-150.876 -76.649)" fill="#bbe6e4"/>
      <path id="Контур_249" data-name="Контур 249" d="M264.549,271.383a1.44,1.44,0,1,0-1.44,1.441A1.44,1.44,0,0,0,264.549,271.383Z" transform="translate(-147.766 -78.445)" fill="#bbe6e4"/>
      <path id="Контур_250" data-name="Контур 250" d="M289.079,285.546a1.44,1.44,0,1,0-1.44,1.44A1.44,1.44,0,0,0,289.079,285.546Z" transform="translate(-144.656 -76.649)" fill="#bbe6e4"/>
      <path id="Контур_251" data-name="Контур 251" d="M289.079,285.546a1.44,1.44,0,1,0-1.44,1.44A1.44,1.44,0,0,0,289.079,285.546Z" transform="translate(-144.656 -76.649)" fill="#bbe6e4"/>
      <path id="Контур_252" data-name="Контур 252" d="M313.609,271.383a1.44,1.44,0,1,0-1.44,1.441A1.44,1.44,0,0,0,313.609,271.383Z" transform="translate(-141.546 -78.445)" fill="#bbe6e4"/>
      <path id="Контур_253" data-name="Контур 253" d="M338.14,285.546a1.441,1.441,0,1,0-1.441,1.44A1.441,1.441,0,0,0,338.14,285.546Z" transform="translate(-138.436 -76.649)" fill="#bbe6e4"/>
      <path id="Контур_254" data-name="Контур 254" d="M338.14,285.546a1.441,1.441,0,1,0-1.441,1.44A1.441,1.441,0,0,0,338.14,285.546Z" transform="translate(-138.436 -76.649)" fill="#bbe6e4"/>
      <path id="Контур_255" data-name="Контур 255" d="M362.67,271.383a1.441,1.441,0,1,0-1.44,1.441A1.44,1.44,0,0,0,362.67,271.383Z" transform="translate(-135.325 -78.445)" fill="#bbe6e4"/>
      <path id="Контур_256" data-name="Контур 256" d="M387.2,285.546a1.44,1.44,0,1,0-1.44,1.44A1.44,1.44,0,0,0,387.2,285.546Z" transform="translate(-132.215 -76.649)" fill="#bbe6e4"/>
      <path id="Контур_257" data-name="Контур 257" d="M387.2,285.546a1.44,1.44,0,1,0-1.44,1.44A1.44,1.44,0,0,0,387.2,285.546Z" transform="translate(-132.215 -76.649)" fill="#bbe6e4"/>
      <path id="Контур_258" data-name="Контур 258" d="M411.73,271.383a1.44,1.44,0,1,0-1.44,1.441A1.44,1.44,0,0,0,411.73,271.383Z" transform="translate(-129.105 -78.445)" fill="#bbe6e4"/>
      <path id="Контур_259" data-name="Контур 259" d="M436.26,285.546a1.44,1.44,0,1,0-1.44,1.44A1.44,1.44,0,0,0,436.26,285.546Z" transform="translate(-125.995 -76.649)" fill="#bbe6e4"/>
      <path id="Контур_260" data-name="Контур 260" d="M436.26,285.546a1.44,1.44,0,1,0-1.44,1.44A1.44,1.44,0,0,0,436.26,285.546Z" transform="translate(-125.995 -76.649)" fill="#bbe6e4"/>
      <path id="Контур_261" data-name="Контур 261" d="M460.791,271.383a1.441,1.441,0,1,0-1.441,1.441A1.441,1.441,0,0,0,460.791,271.383Z" transform="translate(-122.885 -78.445)" fill="#bbe6e4"/>
      <path id="Контур_262" data-name="Контур 262" d="M485.321,285.546a1.44,1.44,0,1,0-1.44,1.44A1.44,1.44,0,0,0,485.321,285.546Z" transform="translate(-119.774 -76.649)" fill="#bbe6e4"/>
      <path id="Контур_263" data-name="Контур 263" d="M485.321,285.546a1.44,1.44,0,1,0-1.44,1.44A1.44,1.44,0,0,0,485.321,285.546Z" transform="translate(-119.774 -76.649)" fill="#bbe6e4"/>
      <path id="Контур_264" data-name="Контур 264" d="M509.851,271.383a1.44,1.44,0,1,0-1.44,1.441A1.44,1.44,0,0,0,509.851,271.383Z" transform="translate(-116.664 -78.445)" fill="#bbe6e4"/>
      <path id="Контур_265" data-name="Контур 265" d="M534.381,285.546a1.44,1.44,0,1,0-1.44,1.44A1.44,1.44,0,0,0,534.381,285.546Z" transform="translate(-113.554 -76.649)" fill="#bbe6e4"/>
      <path id="Контур_266" data-name="Контур 266" d="M534.381,285.546a1.44,1.44,0,1,0-1.44,1.44A1.44,1.44,0,0,0,534.381,285.546Z" transform="translate(-113.554 -76.649)" fill="#bbe6e4"/>
      <path id="Контур_267" data-name="Контур 267" d="M558.912,271.383a1.441,1.441,0,1,0-1.441,1.441A1.441,1.441,0,0,0,558.912,271.383Z" transform="translate(-110.444 -78.445)" fill="#bbe6e4"/>
      <path id="Контур_268" data-name="Контур 268" d="M583.442,285.546a1.441,1.441,0,1,0-1.44,1.44A1.44,1.44,0,0,0,583.442,285.546Z" transform="translate(-107.334 -76.649)" fill="#bbe6e4"/>
      <path id="Контур_269" data-name="Контур 269" d="M583.442,285.546a1.441,1.441,0,1,0-1.44,1.44A1.44,1.44,0,0,0,583.442,285.546Z" transform="translate(-107.334 -76.649)" fill="#bbe6e4"/>
      <path id="Контур_270" data-name="Контур 270" d="M362.67,129.746a1.441,1.441,0,1,0-1.44,1.44A1.44,1.44,0,0,0,362.67,129.746Z" transform="translate(-135.325 -96.403)" fill="#bbe6e4"/>
      <path id="Контур_271" data-name="Контур 271" d="M411.73,129.746a1.44,1.44,0,1,0-1.44,1.44A1.44,1.44,0,0,0,411.73,129.746Z" transform="translate(-129.105 -96.403)" fill="#bbe6e4"/>
      <path id="Контур_272" data-name="Контур 272" d="M460.791,129.746a1.441,1.441,0,1,0-1.441,1.44A1.441,1.441,0,0,0,460.791,129.746Z" transform="translate(-122.885 -96.403)" fill="#bbe6e4"/>
      <path id="Контур_273" data-name="Контур 273" d="M509.851,129.746a1.44,1.44,0,1,0-1.44,1.44A1.44,1.44,0,0,0,509.851,129.746Z" transform="translate(-116.664 -96.403)" fill="#bbe6e4"/>
      <path id="Контур_274" data-name="Контур 274" d="M534.381,115.583a1.44,1.44,0,1,0-1.44,1.44A1.44,1.44,0,0,0,534.381,115.583Z" transform="translate(-113.554 -98.199)" fill="#bbe6e4"/>
      <path id="Контур_275" data-name="Контур 275" d="M558.912,129.746a1.441,1.441,0,1,0-1.441,1.44A1.441,1.441,0,0,0,558.912,129.746Z" transform="translate(-110.444 -96.403)" fill="#bbe6e4"/>
      <path id="Контур_276" data-name="Контур 276" d="M534.381,115.583a1.44,1.44,0,1,0-1.44,1.44A1.44,1.44,0,0,0,534.381,115.583Z" transform="translate(-113.554 -98.199)" fill="#bbe6e4"/>
      <path id="Контур_277" data-name="Контур 277" d="M583.442,115.583a1.441,1.441,0,1,0-1.44,1.44A1.44,1.44,0,0,0,583.442,115.583Z" transform="translate(-107.334 -98.199)" fill="#bbe6e4"/>
      <path id="Контур_278" data-name="Контур 278" d="M583.442,115.583a1.441,1.441,0,1,0-1.44,1.44A1.44,1.44,0,0,0,583.442,115.583Z" transform="translate(-107.334 -98.199)" fill="#bbe6e4"/>
      <path id="Контур_279" data-name="Контур 279" d="M338.14,172.233a1.441,1.441,0,1,0-1.441,1.44A1.441,1.441,0,0,0,338.14,172.233Z" transform="translate(-138.436 -91.016)" fill="#bbe6e4"/>
      <path id="Контур_280" data-name="Контур 280" d="M362.67,129.746a1.441,1.441,0,1,0-1.44,1.44A1.44,1.44,0,0,0,362.67,129.746Z" transform="translate(-135.325 -96.403)" fill="#bbe6e4"/>
      <path id="Контур_281" data-name="Контур 281" d="M362.67,158.071a1.441,1.441,0,1,0-1.44,1.44A1.44,1.44,0,0,0,362.67,158.071Z" transform="translate(-135.325 -92.812)" fill="#bbe6e4"/>
      <path id="Контур_282" data-name="Контур 282" d="M387.2,172.233a1.44,1.44,0,1,0-1.44,1.44A1.44,1.44,0,0,0,387.2,172.233Z" transform="translate(-132.215 -91.016)" fill="#bbe6e4"/>
      <path id="Контур_283" data-name="Контур 283" d="M362.67,158.071a1.441,1.441,0,1,0-1.44,1.44A1.44,1.44,0,0,0,362.67,158.071Z" transform="translate(-135.325 -92.812)" fill="#bbe6e4"/>
      <path id="Контур_284" data-name="Контур 284" d="M362.67,129.746a1.441,1.441,0,1,0-1.44,1.44A1.44,1.44,0,0,0,362.67,129.746Z" transform="translate(-135.325 -96.403)" fill="#bbe6e4"/>
      <path id="Контур_285" data-name="Контур 285" d="M411.73,129.746a1.44,1.44,0,1,0-1.44,1.44A1.44,1.44,0,0,0,411.73,129.746Z" transform="translate(-129.105 -96.403)" fill="#bbe6e4"/>
      <path id="Контур_286" data-name="Контур 286" d="M411.73,158.071a1.44,1.44,0,1,0-1.44,1.44A1.44,1.44,0,0,0,411.73,158.071Z" transform="translate(-129.105 -92.812)" fill="#bbe6e4"/>
      <path id="Контур_287" data-name="Контур 287" d="M436.26,172.233a1.44,1.44,0,1,0-1.44,1.44A1.44,1.44,0,0,0,436.26,172.233Z" transform="translate(-125.995 -91.016)" fill="#bbe6e4"/>
      <path id="Контур_288" data-name="Контур 288" d="M411.73,158.071a1.44,1.44,0,1,0-1.44,1.44A1.44,1.44,0,0,0,411.73,158.071Z" transform="translate(-129.105 -92.812)" fill="#bbe6e4"/>
      <path id="Контур_289" data-name="Контур 289" d="M411.73,129.746a1.44,1.44,0,1,0-1.44,1.44A1.44,1.44,0,0,0,411.73,129.746Z" transform="translate(-129.105 -96.403)" fill="#bbe6e4"/>
      <path id="Контур_290" data-name="Контур 290" d="M460.791,129.746a1.441,1.441,0,1,0-1.441,1.44A1.441,1.441,0,0,0,460.791,129.746Z" transform="translate(-122.885 -96.403)" fill="#bbe6e4"/>
      <path id="Контур_291" data-name="Контур 291" d="M460.791,158.071a1.441,1.441,0,1,0-1.441,1.44A1.441,1.441,0,0,0,460.791,158.071Z" transform="translate(-122.885 -92.812)" fill="#bbe6e4"/>
      <path id="Контур_292" data-name="Контур 292" d="M485.321,172.233a1.44,1.44,0,1,0-1.44,1.44A1.44,1.44,0,0,0,485.321,172.233Z" transform="translate(-119.774 -91.016)" fill="#bbe6e4"/>
      <path id="Контур_293" data-name="Контур 293" d="M460.791,158.071a1.441,1.441,0,1,0-1.441,1.44A1.441,1.441,0,0,0,460.791,158.071Z" transform="translate(-122.885 -92.812)" fill="#bbe6e4"/>
      <path id="Контур_294" data-name="Контур 294" d="M460.791,129.746a1.441,1.441,0,1,0-1.441,1.44A1.441,1.441,0,0,0,460.791,129.746Z" transform="translate(-122.885 -96.403)" fill="#bbe6e4"/>
      <path id="Контур_295" data-name="Контур 295" d="M509.851,129.746a1.44,1.44,0,1,0-1.44,1.44A1.44,1.44,0,0,0,509.851,129.746Z" transform="translate(-116.664 -96.403)" fill="#bbe6e4"/>
      <path id="Контур_296" data-name="Контур 296" d="M509.851,158.071a1.44,1.44,0,1,0-1.44,1.44A1.44,1.44,0,0,0,509.851,158.071Z" transform="translate(-116.664 -92.812)" fill="#bbe6e4"/>
      <path id="Контур_297" data-name="Контур 297" d="M534.381,172.233a1.44,1.44,0,1,0-1.44,1.44A1.44,1.44,0,0,0,534.381,172.233Z" transform="translate(-113.554 -91.016)" fill="#bbe6e4"/>
      <path id="Контур_298" data-name="Контур 298" d="M509.851,158.071a1.44,1.44,0,1,0-1.44,1.44A1.44,1.44,0,0,0,509.851,158.071Z" transform="translate(-116.664 -92.812)" fill="#bbe6e4"/>
      <path id="Контур_299" data-name="Контур 299" d="M509.851,129.746a1.44,1.44,0,1,0-1.44,1.44A1.44,1.44,0,0,0,509.851,129.746Z" transform="translate(-116.664 -96.403)" fill="#bbe6e4"/>
      <path id="Контур_300" data-name="Контур 300" d="M534.381,115.583a1.44,1.44,0,1,0-1.44,1.44A1.44,1.44,0,0,0,534.381,115.583Z" transform="translate(-113.554 -98.199)" fill="#bbe6e4"/>
      <path id="Контур_301" data-name="Контур 301" d="M558.912,129.746a1.441,1.441,0,1,0-1.441,1.44A1.441,1.441,0,0,0,558.912,129.746Z" transform="translate(-110.444 -96.403)" fill="#bbe6e4"/>
      <path id="Контур_302" data-name="Контур 302" d="M558.912,158.071a1.441,1.441,0,1,0-1.441,1.44A1.441,1.441,0,0,0,558.912,158.071Z" transform="translate(-110.444 -92.812)" fill="#bbe6e4"/>
      <path id="Контур_303" data-name="Контур 303" d="M583.442,172.233a1.441,1.441,0,1,0-1.44,1.44A1.44,1.44,0,0,0,583.442,172.233Z" transform="translate(-107.334 -91.016)" fill="#bbe6e4"/>
      <path id="Контур_304" data-name="Контур 304" d="M558.912,158.071a1.441,1.441,0,1,0-1.441,1.44A1.441,1.441,0,0,0,558.912,158.071Z" transform="translate(-110.444 -92.812)" fill="#bbe6e4"/>
      <path id="Контур_305" data-name="Контур 305" d="M558.912,129.746a1.441,1.441,0,1,0-1.441,1.44A1.441,1.441,0,0,0,558.912,129.746Z" transform="translate(-110.444 -96.403)" fill="#bbe6e4"/>
      <path id="Контур_306" data-name="Контур 306" d="M583.442,115.583a1.441,1.441,0,1,0-1.44,1.44A1.44,1.44,0,0,0,583.442,115.583Z" transform="translate(-107.334 -98.199)" fill="#bbe6e4"/>
      <path id="Контур_307" data-name="Контур 307" d="M313.609,214.721a1.44,1.44,0,1,0-1.44,1.44A1.44,1.44,0,0,0,313.609,214.721Z" transform="translate(-141.546 -85.629)" fill="#bbe6e4"/>
      <path id="Контур_308" data-name="Контур 308" d="M338.14,172.233a1.441,1.441,0,1,0-1.441,1.44A1.441,1.441,0,0,0,338.14,172.233Z" transform="translate(-138.436 -91.016)" fill="#bbe6e4"/>
      <path id="Контур_309" data-name="Контур 309" d="M338.14,200.558A1.441,1.441,0,1,0,336.7,202,1.441,1.441,0,0,0,338.14,200.558Z" transform="translate(-138.436 -87.425)" fill="#bbe6e4"/>
      <path id="Контур_310" data-name="Контур 310" d="M362.67,214.721a1.441,1.441,0,1,0-1.44,1.44A1.44,1.44,0,0,0,362.67,214.721Z" transform="translate(-135.325 -85.629)" fill="#bbe6e4"/>
      <path id="Контур_311" data-name="Контур 311" d="M338.14,200.558A1.441,1.441,0,1,0,336.7,202,1.441,1.441,0,0,0,338.14,200.558Z" transform="translate(-138.436 -87.425)" fill="#bbe6e4"/>
      <path id="Контур_312" data-name="Контур 312" d="M338.14,172.233a1.441,1.441,0,1,0-1.441,1.44A1.441,1.441,0,0,0,338.14,172.233Z" transform="translate(-138.436 -91.016)" fill="#bbe6e4"/>
      <path id="Контур_313" data-name="Контур 313" d="M362.67,158.071a1.441,1.441,0,1,0-1.44,1.44A1.44,1.44,0,0,0,362.67,158.071Z" transform="translate(-135.325 -92.812)" fill="#bbe6e4"/>
      <path id="Контур_314" data-name="Контур 314" d="M387.2,172.233a1.44,1.44,0,1,0-1.44,1.44A1.44,1.44,0,0,0,387.2,172.233Z" transform="translate(-132.215 -91.016)" fill="#bbe6e4"/>
      <path id="Контур_315" data-name="Контур 315" d="M387.2,200.558A1.44,1.44,0,1,0,385.76,202,1.44,1.44,0,0,0,387.2,200.558Z" transform="translate(-132.215 -87.425)" fill="#bbe6e4"/>
      <path id="Контур_316" data-name="Контур 316" d="M411.73,214.721a1.44,1.44,0,1,0-1.44,1.44A1.44,1.44,0,0,0,411.73,214.721Z" transform="translate(-129.105 -85.629)" fill="#bbe6e4"/>
      <path id="Контур_317" data-name="Контур 317" d="M387.2,200.558A1.44,1.44,0,1,0,385.76,202,1.44,1.44,0,0,0,387.2,200.558Z" transform="translate(-132.215 -87.425)" fill="#bbe6e4"/>
      <path id="Контур_318" data-name="Контур 318" d="M387.2,172.233a1.44,1.44,0,1,0-1.44,1.44A1.44,1.44,0,0,0,387.2,172.233Z" transform="translate(-132.215 -91.016)" fill="#bbe6e4"/>
      <path id="Контур_319" data-name="Контур 319" d="M411.73,158.071a1.44,1.44,0,1,0-1.44,1.44A1.44,1.44,0,0,0,411.73,158.071Z" transform="translate(-129.105 -92.812)" fill="#bbe6e4"/>
      <path id="Контур_320" data-name="Контур 320" d="M436.26,172.233a1.44,1.44,0,1,0-1.44,1.44A1.44,1.44,0,0,0,436.26,172.233Z" transform="translate(-125.995 -91.016)" fill="#bbe6e4"/>
      <path id="Контур_321" data-name="Контур 321" d="M436.26,200.558A1.44,1.44,0,1,0,434.82,202,1.44,1.44,0,0,0,436.26,200.558Z" transform="translate(-125.995 -87.425)" fill="#bbe6e4"/>
      <path id="Контур_322" data-name="Контур 322" d="M460.791,214.721a1.441,1.441,0,1,0-1.441,1.44A1.441,1.441,0,0,0,460.791,214.721Z" transform="translate(-122.885 -85.629)" fill="#bbe6e4"/>
      <path id="Контур_323" data-name="Контур 323" d="M436.26,200.558A1.44,1.44,0,1,0,434.82,202,1.44,1.44,0,0,0,436.26,200.558Z" transform="translate(-125.995 -87.425)" fill="#bbe6e4"/>
      <path id="Контур_324" data-name="Контур 324" d="M436.26,172.233a1.44,1.44,0,1,0-1.44,1.44A1.44,1.44,0,0,0,436.26,172.233Z" transform="translate(-125.995 -91.016)" fill="#bbe6e4"/>
      <path id="Контур_325" data-name="Контур 325" d="M460.791,158.071a1.441,1.441,0,1,0-1.441,1.44A1.441,1.441,0,0,0,460.791,158.071Z" transform="translate(-122.885 -92.812)" fill="#bbe6e4"/>
      <path id="Контур_326" data-name="Контур 326" d="M485.321,172.233a1.44,1.44,0,1,0-1.44,1.44A1.44,1.44,0,0,0,485.321,172.233Z" transform="translate(-119.774 -91.016)" fill="#bbe6e4"/>
      <path id="Контур_327" data-name="Контур 327" d="M485.321,200.558a1.44,1.44,0,1,0-1.44,1.441A1.44,1.44,0,0,0,485.321,200.558Z" transform="translate(-119.774 -87.425)" fill="#bbe6e4"/>
      <path id="Контур_328" data-name="Контур 328" d="M509.851,214.721a1.44,1.44,0,1,0-1.44,1.44A1.44,1.44,0,0,0,509.851,214.721Z" transform="translate(-116.664 -85.629)" fill="#bbe6e4"/>
      <path id="Контур_329" data-name="Контур 329" d="M485.321,200.558a1.44,1.44,0,1,0-1.44,1.441A1.44,1.44,0,0,0,485.321,200.558Z" transform="translate(-119.774 -87.425)" fill="#bbe6e4"/>
      <path id="Контур_330" data-name="Контур 330" d="M485.321,172.233a1.44,1.44,0,1,0-1.44,1.44A1.44,1.44,0,0,0,485.321,172.233Z" transform="translate(-119.774 -91.016)" fill="#bbe6e4"/>
      <path id="Контур_331" data-name="Контур 331" d="M509.851,158.071a1.44,1.44,0,1,0-1.44,1.44A1.44,1.44,0,0,0,509.851,158.071Z" transform="translate(-116.664 -92.812)" fill="#bbe6e4"/>
      <path id="Контур_332" data-name="Контур 332" d="M534.381,172.233a1.44,1.44,0,1,0-1.44,1.44A1.44,1.44,0,0,0,534.381,172.233Z" transform="translate(-113.554 -91.016)" fill="#bbe6e4"/>
      <path id="Контур_333" data-name="Контур 333" d="M534.381,200.558a1.44,1.44,0,1,0-1.44,1.441A1.44,1.44,0,0,0,534.381,200.558Z" transform="translate(-113.554 -87.425)" fill="#bbe6e4"/>
      <path id="Контур_334" data-name="Контур 334" d="M558.912,214.721a1.441,1.441,0,1,0-1.441,1.44A1.441,1.441,0,0,0,558.912,214.721Z" transform="translate(-110.444 -85.629)" fill="#bbe6e4"/>
      <path id="Контур_335" data-name="Контур 335" d="M534.381,200.558a1.44,1.44,0,1,0-1.44,1.441A1.44,1.44,0,0,0,534.381,200.558Z" transform="translate(-113.554 -87.425)" fill="#bbe6e4"/>
      <path id="Контур_336" data-name="Контур 336" d="M534.381,172.233a1.44,1.44,0,1,0-1.44,1.44A1.44,1.44,0,0,0,534.381,172.233Z" transform="translate(-113.554 -91.016)" fill="#bbe6e4"/>
      <path id="Контур_337" data-name="Контур 337" d="M558.912,158.071a1.441,1.441,0,1,0-1.441,1.44A1.441,1.441,0,0,0,558.912,158.071Z" transform="translate(-110.444 -92.812)" fill="#bbe6e4"/>
      <path id="Контур_338" data-name="Контур 338" d="M583.442,172.233a1.441,1.441,0,1,0-1.44,1.44A1.44,1.44,0,0,0,583.442,172.233Z" transform="translate(-107.334 -91.016)" fill="#bbe6e4"/>
      <path id="Контур_339" data-name="Контур 339" d="M583.442,200.558A1.441,1.441,0,1,0,582,202,1.44,1.44,0,0,0,583.442,200.558Z" transform="translate(-107.334 -87.425)" fill="#bbe6e4"/>
      <path id="Контур_340" data-name="Контур 340" d="M583.442,200.558A1.441,1.441,0,1,0,582,202,1.44,1.44,0,0,0,583.442,200.558Z" transform="translate(-107.334 -87.425)" fill="#bbe6e4"/>
      <path id="Контур_341" data-name="Контур 341" d="M583.442,172.233a1.441,1.441,0,1,0-1.44,1.44A1.44,1.44,0,0,0,583.442,172.233Z" transform="translate(-107.334 -91.016)" fill="#bbe6e4"/>
      <path id="Контур_342" data-name="Контур 342" d="M240.019,257.208a1.441,1.441,0,1,0-1.44,1.441A1.441,1.441,0,0,0,240.019,257.208Z" transform="translate(-150.876 -80.242)" fill="#bbe6e4"/>
      <path id="Контур_343" data-name="Контур 343" d="M264.549,243.046a1.44,1.44,0,1,0-1.44,1.44A1.44,1.44,0,0,0,264.549,243.046Z" transform="translate(-147.766 -82.038)" fill="#bbe6e4"/>
      <path id="Контур_344" data-name="Контур 344" d="M289.079,257.208a1.44,1.44,0,1,0-1.44,1.441A1.44,1.44,0,0,0,289.079,257.208Z" transform="translate(-144.656 -80.242)" fill="#bbe6e4"/>
      <path id="Контур_345" data-name="Контур 345" d="M264.549,243.046a1.44,1.44,0,1,0-1.44,1.44A1.44,1.44,0,0,0,264.549,243.046Z" transform="translate(-147.766 -82.038)" fill="#bbe6e4"/>
      <path id="Контур_346" data-name="Контур 346" d="M313.609,214.721a1.44,1.44,0,1,0-1.44,1.44A1.44,1.44,0,0,0,313.609,214.721Z" transform="translate(-141.546 -85.629)" fill="#bbe6e4"/>
      <path id="Контур_347" data-name="Контур 347" d="M313.609,243.046a1.44,1.44,0,1,0-1.44,1.44A1.44,1.44,0,0,0,313.609,243.046Z" transform="translate(-141.546 -82.038)" fill="#bbe6e4"/>
      <path id="Контур_348" data-name="Контур 348" d="M338.14,257.208a1.441,1.441,0,1,0-1.441,1.441A1.441,1.441,0,0,0,338.14,257.208Z" transform="translate(-138.436 -80.242)" fill="#bbe6e4"/>
      <path id="Контур_349" data-name="Контур 349" d="M313.609,243.046a1.44,1.44,0,1,0-1.44,1.44A1.44,1.44,0,0,0,313.609,243.046Z" transform="translate(-141.546 -82.038)" fill="#bbe6e4"/>
      <path id="Контур_350" data-name="Контур 350" d="M313.609,214.721a1.44,1.44,0,1,0-1.44,1.44A1.44,1.44,0,0,0,313.609,214.721Z" transform="translate(-141.546 -85.629)" fill="#bbe6e4"/>
      <path id="Контур_351" data-name="Контур 351" d="M338.14,200.558A1.441,1.441,0,1,0,336.7,202,1.441,1.441,0,0,0,338.14,200.558Z" transform="translate(-138.436 -87.425)" fill="#bbe6e4"/>
      <path id="Контур_352" data-name="Контур 352" d="M362.67,214.721a1.441,1.441,0,1,0-1.44,1.44A1.44,1.44,0,0,0,362.67,214.721Z" transform="translate(-135.325 -85.629)" fill="#bbe6e4"/>
      <path id="Контур_353" data-name="Контур 353" d="M362.67,243.046a1.441,1.441,0,1,0-1.44,1.44A1.44,1.44,0,0,0,362.67,243.046Z" transform="translate(-135.325 -82.038)" fill="#bbe6e4"/>
      <path id="Контур_354" data-name="Контур 354" d="M387.2,257.208a1.44,1.44,0,1,0-1.44,1.441A1.44,1.44,0,0,0,387.2,257.208Z" transform="translate(-132.215 -80.242)" fill="#bbe6e4"/>
      <path id="Контур_355" data-name="Контур 355" d="M362.67,243.046a1.441,1.441,0,1,0-1.44,1.44A1.44,1.44,0,0,0,362.67,243.046Z" transform="translate(-135.325 -82.038)" fill="#bbe6e4"/>
      <path id="Контур_356" data-name="Контур 356" d="M362.67,214.721a1.441,1.441,0,1,0-1.44,1.44A1.44,1.44,0,0,0,362.67,214.721Z" transform="translate(-135.325 -85.629)" fill="#bbe6e4"/>
      <path id="Контур_357" data-name="Контур 357" d="M387.2,200.558A1.44,1.44,0,1,0,385.76,202,1.44,1.44,0,0,0,387.2,200.558Z" transform="translate(-132.215 -87.425)" fill="#bbe6e4"/>
      <path id="Контур_358" data-name="Контур 358" d="M411.73,214.721a1.44,1.44,0,1,0-1.44,1.44A1.44,1.44,0,0,0,411.73,214.721Z" transform="translate(-129.105 -85.629)" fill="#bbe6e4"/>
      <path id="Контур_359" data-name="Контур 359" d="M411.73,243.046a1.44,1.44,0,1,0-1.44,1.44A1.44,1.44,0,0,0,411.73,243.046Z" transform="translate(-129.105 -82.038)" fill="#bbe6e4"/>
      <path id="Контур_360" data-name="Контур 360" d="M436.26,257.208a1.44,1.44,0,1,0-1.44,1.441A1.441,1.441,0,0,0,436.26,257.208Z" transform="translate(-125.995 -80.242)" fill="#bbe6e4"/>
      <path id="Контур_361" data-name="Контур 361" d="M411.73,243.046a1.44,1.44,0,1,0-1.44,1.44A1.44,1.44,0,0,0,411.73,243.046Z" transform="translate(-129.105 -82.038)" fill="#bbe6e4"/>
      <path id="Контур_362" data-name="Контур 362" d="M411.73,214.721a1.44,1.44,0,1,0-1.44,1.44A1.44,1.44,0,0,0,411.73,214.721Z" transform="translate(-129.105 -85.629)" fill="#bbe6e4"/>
      <path id="Контур_363" data-name="Контур 363" d="M436.26,200.558A1.44,1.44,0,1,0,434.82,202,1.44,1.44,0,0,0,436.26,200.558Z" transform="translate(-125.995 -87.425)" fill="#bbe6e4"/>
      <path id="Контур_364" data-name="Контур 364" d="M460.791,214.721a1.441,1.441,0,1,0-1.441,1.44A1.441,1.441,0,0,0,460.791,214.721Z" transform="translate(-122.885 -85.629)" fill="#bbe6e4"/>
      <path id="Контур_365" data-name="Контур 365" d="M460.791,243.046a1.441,1.441,0,1,0-1.441,1.44A1.441,1.441,0,0,0,460.791,243.046Z" transform="translate(-122.885 -82.038)" fill="#bbe6e4"/>
      <path id="Контур_366" data-name="Контур 366" d="M485.321,257.208a1.44,1.44,0,1,0-1.44,1.441A1.441,1.441,0,0,0,485.321,257.208Z" transform="translate(-119.774 -80.242)" fill="#bbe6e4"/>
      <path id="Контур_367" data-name="Контур 367" d="M460.791,243.046a1.441,1.441,0,1,0-1.441,1.44A1.441,1.441,0,0,0,460.791,243.046Z" transform="translate(-122.885 -82.038)" fill="#bbe6e4"/>
      <path id="Контур_368" data-name="Контур 368" d="M460.791,214.721a1.441,1.441,0,1,0-1.441,1.44A1.441,1.441,0,0,0,460.791,214.721Z" transform="translate(-122.885 -85.629)" fill="#bbe6e4"/>
      <path id="Контур_369" data-name="Контур 369" d="M485.321,200.558a1.44,1.44,0,1,0-1.44,1.441A1.44,1.44,0,0,0,485.321,200.558Z" transform="translate(-119.774 -87.425)" fill="#bbe6e4"/>
      <path id="Контур_370" data-name="Контур 370" d="M509.851,214.721a1.44,1.44,0,1,0-1.44,1.44A1.44,1.44,0,0,0,509.851,214.721Z" transform="translate(-116.664 -85.629)" fill="#bbe6e4"/>
      <path id="Контур_371" data-name="Контур 371" d="M509.851,243.046a1.44,1.44,0,1,0-1.44,1.44A1.44,1.44,0,0,0,509.851,243.046Z" transform="translate(-116.664 -82.038)" fill="#bbe6e4"/>
      <path id="Контур_372" data-name="Контур 372" d="M534.381,257.208a1.44,1.44,0,1,0-1.44,1.441A1.44,1.44,0,0,0,534.381,257.208Z" transform="translate(-113.554 -80.242)" fill="#bbe6e4"/>
      <path id="Контур_373" data-name="Контур 373" d="M509.851,243.046a1.44,1.44,0,1,0-1.44,1.44A1.44,1.44,0,0,0,509.851,243.046Z" transform="translate(-116.664 -82.038)" fill="#bbe6e4"/>
      <path id="Контур_374" data-name="Контур 374" d="M509.851,214.721a1.44,1.44,0,1,0-1.44,1.44A1.44,1.44,0,0,0,509.851,214.721Z" transform="translate(-116.664 -85.629)" fill="#bbe6e4"/>
      <path id="Контур_375" data-name="Контур 375" d="M534.381,200.558a1.44,1.44,0,1,0-1.44,1.441A1.44,1.44,0,0,0,534.381,200.558Z" transform="translate(-113.554 -87.425)" fill="#bbe6e4"/>
      <path id="Контур_376" data-name="Контур 376" d="M558.912,214.721a1.441,1.441,0,1,0-1.441,1.44A1.441,1.441,0,0,0,558.912,214.721Z" transform="translate(-110.444 -85.629)" fill="#bbe6e4"/>
      <path id="Контур_377" data-name="Контур 377" d="M558.912,243.046a1.441,1.441,0,1,0-1.441,1.44A1.441,1.441,0,0,0,558.912,243.046Z" transform="translate(-110.444 -82.038)" fill="#bbe6e4"/>
      <path id="Контур_378" data-name="Контур 378" d="M583.442,257.208a1.441,1.441,0,1,0-1.44,1.441A1.44,1.44,0,0,0,583.442,257.208Z" transform="translate(-107.334 -80.242)" fill="#bbe6e4"/>
      <path id="Контур_379" data-name="Контур 379" d="M558.912,243.046a1.441,1.441,0,1,0-1.441,1.44A1.441,1.441,0,0,0,558.912,243.046Z" transform="translate(-110.444 -82.038)" fill="#bbe6e4"/>
      <path id="Контур_380" data-name="Контур 380" d="M558.912,214.721a1.441,1.441,0,1,0-1.441,1.44A1.441,1.441,0,0,0,558.912,214.721Z" transform="translate(-110.444 -85.629)" fill="#bbe6e4"/>
      <path id="Контур_381" data-name="Контур 381" d="M583.442,200.558A1.441,1.441,0,1,0,582,202,1.44,1.44,0,0,0,583.442,200.558Z" transform="translate(-107.334 -87.425)" fill="#bbe6e4"/>
      <path id="Контур_382" data-name="Контур 382" d="M166.428,299.7a1.44,1.44,0,1,0-1.44,1.44A1.44,1.44,0,0,0,166.428,299.7Z" transform="translate(-160.207 -74.855)" fill="#bbe6e4"/>
      <path id="Контур_383" data-name="Контур 383" d="M190.958,285.534a1.44,1.44,0,1,0-1.44,1.44A1.441,1.441,0,0,0,190.958,285.534Z" transform="translate(-157.097 -76.651)" fill="#bbe6e4"/>
      <path id="Контур_384" data-name="Контур 384" d="M215.489,299.7a1.441,1.441,0,1,0-1.441,1.44A1.441,1.441,0,0,0,215.489,299.7Z" transform="translate(-153.987 -74.855)" fill="#bbe6e4"/>
      <path id="Контур_385" data-name="Контур 385" d="M190.958,285.534a1.44,1.44,0,1,0-1.44,1.44A1.441,1.441,0,0,0,190.958,285.534Z" transform="translate(-157.097 -76.651)" fill="#bbe6e4"/>
      <path id="Контур_386" data-name="Контур 386" d="M240.019,257.208a1.441,1.441,0,1,0-1.44,1.441A1.441,1.441,0,0,0,240.019,257.208Z" transform="translate(-150.876 -80.242)" fill="#bbe6e4"/>
      <path id="Контур_387" data-name="Контур 387" d="M240.019,285.534a1.441,1.441,0,1,0-1.44,1.44A1.442,1.442,0,0,0,240.019,285.534Z" transform="translate(-150.876 -76.651)" fill="#bbe6e4"/>
      <path id="Контур_388" data-name="Контур 388" d="M264.549,299.7a1.44,1.44,0,1,0-1.44,1.44A1.44,1.44,0,0,0,264.549,299.7Z" transform="translate(-147.766 -74.855)" fill="#bbe6e4"/>
      <path id="Контур_389" data-name="Контур 389" d="M240.019,285.534a1.441,1.441,0,1,0-1.44,1.44A1.442,1.442,0,0,0,240.019,285.534Z" transform="translate(-150.876 -76.651)" fill="#bbe6e4"/>
      <path id="Контур_390" data-name="Контур 390" d="M240.019,257.208a1.441,1.441,0,1,0-1.44,1.441A1.441,1.441,0,0,0,240.019,257.208Z" transform="translate(-150.876 -80.242)" fill="#bbe6e4"/>
      <path id="Контур_391" data-name="Контур 391" d="M264.549,243.046a1.44,1.44,0,1,0-1.44,1.44A1.44,1.44,0,0,0,264.549,243.046Z" transform="translate(-147.766 -82.038)" fill="#bbe6e4"/>
      <path id="Контур_392" data-name="Контур 392" d="M289.079,257.208a1.44,1.44,0,1,0-1.44,1.441A1.44,1.44,0,0,0,289.079,257.208Z" transform="translate(-144.656 -80.242)" fill="#bbe6e4"/>
      <path id="Контур_393" data-name="Контур 393" d="M289.079,285.534a1.44,1.44,0,1,0-1.44,1.44A1.441,1.441,0,0,0,289.079,285.534Z" transform="translate(-144.656 -76.651)" fill="#bbe6e4"/>
      <path id="Контур_394" data-name="Контур 394" d="M313.609,299.7a1.44,1.44,0,1,0-1.44,1.44A1.44,1.44,0,0,0,313.609,299.7Z" transform="translate(-141.546 -74.855)" fill="#bbe6e4"/>
      <path id="Контур_395" data-name="Контур 395" d="M289.079,285.534a1.44,1.44,0,1,0-1.44,1.44A1.441,1.441,0,0,0,289.079,285.534Z" transform="translate(-144.656 -76.651)" fill="#bbe6e4"/>
      <path id="Контур_396" data-name="Контур 396" d="M289.079,257.208a1.44,1.44,0,1,0-1.44,1.441A1.44,1.44,0,0,0,289.079,257.208Z" transform="translate(-144.656 -80.242)" fill="#bbe6e4"/>
      <path id="Контур_397" data-name="Контур 397" d="M313.609,243.046a1.44,1.44,0,1,0-1.44,1.44A1.44,1.44,0,0,0,313.609,243.046Z" transform="translate(-141.546 -82.038)" fill="#bbe6e4"/>
      <path id="Контур_398" data-name="Контур 398" d="M338.14,257.208a1.441,1.441,0,1,0-1.441,1.441A1.441,1.441,0,0,0,338.14,257.208Z" transform="translate(-138.436 -80.242)" fill="#bbe6e4"/>
      <path id="Контур_399" data-name="Контур 399" d="M338.14,285.534a1.441,1.441,0,1,0-1.441,1.44A1.442,1.442,0,0,0,338.14,285.534Z" transform="translate(-138.436 -76.651)" fill="#bbe6e4"/>
      <path id="Контур_400" data-name="Контур 400" d="M362.67,299.7a1.441,1.441,0,1,0-1.44,1.44A1.44,1.44,0,0,0,362.67,299.7Z" transform="translate(-135.325 -74.855)" fill="#bbe6e4"/>
      <path id="Контур_401" data-name="Контур 401" d="M338.14,285.534a1.441,1.441,0,1,0-1.441,1.44A1.442,1.442,0,0,0,338.14,285.534Z" transform="translate(-138.436 -76.651)" fill="#bbe6e4"/>
      <path id="Контур_402" data-name="Контур 402" d="M338.14,257.208a1.441,1.441,0,1,0-1.441,1.441A1.441,1.441,0,0,0,338.14,257.208Z" transform="translate(-138.436 -80.242)" fill="#bbe6e4"/>
      <path id="Контур_403" data-name="Контур 403" d="M362.67,243.046a1.441,1.441,0,1,0-1.44,1.44A1.44,1.44,0,0,0,362.67,243.046Z" transform="translate(-135.325 -82.038)" fill="#bbe6e4"/>
      <path id="Контур_404" data-name="Контур 404" d="M387.2,257.208a1.44,1.44,0,1,0-1.44,1.441A1.44,1.44,0,0,0,387.2,257.208Z" transform="translate(-132.215 -80.242)" fill="#bbe6e4"/>
      <path id="Контур_405" data-name="Контур 405" d="M387.2,285.534a1.44,1.44,0,1,0-1.44,1.44A1.441,1.441,0,0,0,387.2,285.534Z" transform="translate(-132.215 -76.651)" fill="#bbe6e4"/>
      <path id="Контур_406" data-name="Контур 406" d="M411.73,299.7a1.44,1.44,0,1,0-1.44,1.44A1.44,1.44,0,0,0,411.73,299.7Z" transform="translate(-129.105 -74.855)" fill="#bbe6e4"/>
      <path id="Контур_407" data-name="Контур 407" d="M387.2,285.534a1.44,1.44,0,1,0-1.44,1.44A1.441,1.441,0,0,0,387.2,285.534Z" transform="translate(-132.215 -76.651)" fill="#bbe6e4"/>
      <path id="Контур_408" data-name="Контур 408" d="M387.2,257.208a1.44,1.44,0,1,0-1.44,1.441A1.44,1.44,0,0,0,387.2,257.208Z" transform="translate(-132.215 -80.242)" fill="#bbe6e4"/>
      <path id="Контур_409" data-name="Контур 409" d="M411.73,243.046a1.44,1.44,0,1,0-1.44,1.44A1.44,1.44,0,0,0,411.73,243.046Z" transform="translate(-129.105 -82.038)" fill="#bbe6e4"/>
      <path id="Контур_410" data-name="Контур 410" d="M436.26,257.208a1.44,1.44,0,1,0-1.44,1.441A1.441,1.441,0,0,0,436.26,257.208Z" transform="translate(-125.995 -80.242)" fill="#bbe6e4"/>
      <path id="Контур_411" data-name="Контур 411" d="M436.26,285.534a1.44,1.44,0,1,0-1.44,1.44A1.441,1.441,0,0,0,436.26,285.534Z" transform="translate(-125.995 -76.651)" fill="#bbe6e4"/>
      <path id="Контур_412" data-name="Контур 412" d="M460.791,299.7a1.441,1.441,0,1,0-1.441,1.44A1.441,1.441,0,0,0,460.791,299.7Z" transform="translate(-122.885 -74.855)" fill="#bbe6e4"/>
      <path id="Контур_413" data-name="Контур 413" d="M436.26,285.534a1.44,1.44,0,1,0-1.44,1.44A1.441,1.441,0,0,0,436.26,285.534Z" transform="translate(-125.995 -76.651)" fill="#bbe6e4"/>
      <path id="Контур_414" data-name="Контур 414" d="M436.26,257.208a1.44,1.44,0,1,0-1.44,1.441A1.441,1.441,0,0,0,436.26,257.208Z" transform="translate(-125.995 -80.242)" fill="#bbe6e4"/>
      <path id="Контур_415" data-name="Контур 415" d="M460.791,243.046a1.441,1.441,0,1,0-1.441,1.44A1.441,1.441,0,0,0,460.791,243.046Z" transform="translate(-122.885 -82.038)" fill="#bbe6e4"/>
      <path id="Контур_416" data-name="Контур 416" d="M485.321,257.208a1.44,1.44,0,1,0-1.44,1.441A1.441,1.441,0,0,0,485.321,257.208Z" transform="translate(-119.774 -80.242)" fill="#bbe6e4"/>
      <path id="Контур_417" data-name="Контур 417" d="M485.321,285.534a1.44,1.44,0,1,0-1.44,1.44A1.441,1.441,0,0,0,485.321,285.534Z" transform="translate(-119.774 -76.651)" fill="#bbe6e4"/>
      <path id="Контур_418" data-name="Контур 418" d="M509.851,299.7a1.44,1.44,0,1,0-1.44,1.44A1.44,1.44,0,0,0,509.851,299.7Z" transform="translate(-116.664 -74.855)" fill="#bbe6e4"/>
      <path id="Контур_419" data-name="Контур 419" d="M485.321,285.534a1.44,1.44,0,1,0-1.44,1.44A1.441,1.441,0,0,0,485.321,285.534Z" transform="translate(-119.774 -76.651)" fill="#bbe6e4"/>
      <path id="Контур_420" data-name="Контур 420" d="M485.321,257.208a1.44,1.44,0,1,0-1.44,1.441A1.441,1.441,0,0,0,485.321,257.208Z" transform="translate(-119.774 -80.242)" fill="#bbe6e4"/>
      <path id="Контур_421" data-name="Контур 421" d="M509.851,243.046a1.44,1.44,0,1,0-1.44,1.44A1.44,1.44,0,0,0,509.851,243.046Z" transform="translate(-116.664 -82.038)" fill="#bbe6e4"/>
      <path id="Контур_422" data-name="Контур 422" d="M534.381,257.208a1.44,1.44,0,1,0-1.44,1.441A1.44,1.44,0,0,0,534.381,257.208Z" transform="translate(-113.554 -80.242)" fill="#bbe6e4"/>
      <path id="Контур_423" data-name="Контур 423" d="M534.381,285.534a1.44,1.44,0,1,0-1.44,1.44A1.441,1.441,0,0,0,534.381,285.534Z" transform="translate(-113.554 -76.651)" fill="#bbe6e4"/>
      <path id="Контур_424" data-name="Контур 424" d="M558.912,299.7a1.441,1.441,0,1,0-1.441,1.44A1.441,1.441,0,0,0,558.912,299.7Z" transform="translate(-110.444 -74.855)" fill="#bbe6e4"/>
      <path id="Контур_425" data-name="Контур 425" d="M534.381,285.534a1.44,1.44,0,1,0-1.44,1.44A1.441,1.441,0,0,0,534.381,285.534Z" transform="translate(-113.554 -76.651)" fill="#bbe6e4"/>
      <path id="Контур_426" data-name="Контур 426" d="M534.381,257.208a1.44,1.44,0,1,0-1.44,1.441A1.44,1.44,0,0,0,534.381,257.208Z" transform="translate(-113.554 -80.242)" fill="#bbe6e4"/>
      <path id="Контур_427" data-name="Контур 427" d="M558.912,243.046a1.441,1.441,0,1,0-1.441,1.44A1.441,1.441,0,0,0,558.912,243.046Z" transform="translate(-110.444 -82.038)" fill="#bbe6e4"/>
      <path id="Контур_428" data-name="Контур 428" d="M583.442,257.208a1.441,1.441,0,1,0-1.44,1.441A1.44,1.44,0,0,0,583.442,257.208Z" transform="translate(-107.334 -80.242)" fill="#bbe6e4"/>
      <path id="Контур_429" data-name="Контур 429" d="M583.442,285.534a1.441,1.441,0,1,0-1.44,1.44A1.441,1.441,0,0,0,583.442,285.534Z" transform="translate(-107.334 -76.651)" fill="#bbe6e4"/>
      <path id="Контур_430" data-name="Контур 430" d="M583.442,285.534a1.441,1.441,0,1,0-1.44,1.44A1.441,1.441,0,0,0,583.442,285.534Z" transform="translate(-107.334 -76.651)" fill="#bbe6e4"/>
      <path id="Контур_431" data-name="Контур 431" d="M583.442,257.208a1.441,1.441,0,1,0-1.44,1.441A1.44,1.44,0,0,0,583.442,257.208Z" transform="translate(-107.334 -80.242)" fill="#bbe6e4"/>
      <path id="Контур_432" data-name="Контур 432" d="M166.428,299.7a1.44,1.44,0,1,0-1.44,1.44A1.44,1.44,0,0,0,166.428,299.7Z" transform="translate(-160.207 -74.855)" fill="#bbe6e4"/>
      <path id="Контур_433" data-name="Контур 433" d="M166.428,299.7a1.44,1.44,0,1,0-1.44,1.44A1.44,1.44,0,0,0,166.428,299.7Z" transform="translate(-160.207 -74.855)" fill="#bbe6e4"/>
      <path id="Контур_434" data-name="Контур 434" d="M190.958,285.534a1.44,1.44,0,1,0-1.44,1.44A1.441,1.441,0,0,0,190.958,285.534Z" transform="translate(-157.097 -76.651)" fill="#bbe6e4"/>
      <path id="Контур_435" data-name="Контур 435" d="M215.489,299.7a1.441,1.441,0,1,0-1.441,1.44A1.441,1.441,0,0,0,215.489,299.7Z" transform="translate(-153.987 -74.855)" fill="#bbe6e4"/>
      <path id="Контур_436" data-name="Контур 436" d="M215.489,299.7a1.441,1.441,0,1,0-1.441,1.44A1.441,1.441,0,0,0,215.489,299.7Z" transform="translate(-153.987 -74.855)" fill="#bbe6e4"/>
      <path id="Контур_437" data-name="Контур 437" d="M240.019,285.534a1.441,1.441,0,1,0-1.44,1.44A1.442,1.442,0,0,0,240.019,285.534Z" transform="translate(-150.876 -76.651)" fill="#bbe6e4"/>
      <path id="Контур_438" data-name="Контур 438" d="M264.549,299.7a1.44,1.44,0,1,0-1.44,1.44A1.44,1.44,0,0,0,264.549,299.7Z" transform="translate(-147.766 -74.855)" fill="#bbe6e4"/>
      <path id="Контур_439" data-name="Контур 439" d="M264.549,299.7a1.44,1.44,0,1,0-1.44,1.44A1.44,1.44,0,0,0,264.549,299.7Z" transform="translate(-147.766 -74.855)" fill="#bbe6e4"/>
      <path id="Контур_440" data-name="Контур 440" d="M289.079,285.534a1.44,1.44,0,1,0-1.44,1.44A1.441,1.441,0,0,0,289.079,285.534Z" transform="translate(-144.656 -76.651)" fill="#bbe6e4"/>
      <path id="Контур_441" data-name="Контур 441" d="M313.609,299.7a1.44,1.44,0,1,0-1.44,1.44A1.44,1.44,0,0,0,313.609,299.7Z" transform="translate(-141.546 -74.855)" fill="#bbe6e4"/>
      <path id="Контур_442" data-name="Контур 442" d="M313.609,299.7a1.44,1.44,0,1,0-1.44,1.44A1.44,1.44,0,0,0,313.609,299.7Z" transform="translate(-141.546 -74.855)" fill="#bbe6e4"/>
      <path id="Контур_443" data-name="Контур 443" d="M338.14,285.534a1.441,1.441,0,1,0-1.441,1.44A1.442,1.442,0,0,0,338.14,285.534Z" transform="translate(-138.436 -76.651)" fill="#bbe6e4"/>
      <path id="Контур_444" data-name="Контур 444" d="M362.67,299.7a1.441,1.441,0,1,0-1.44,1.44A1.44,1.44,0,0,0,362.67,299.7Z" transform="translate(-135.325 -74.855)" fill="#bbe6e4"/>
      <path id="Контур_445" data-name="Контур 445" d="M362.67,299.7a1.441,1.441,0,1,0-1.44,1.44A1.44,1.44,0,0,0,362.67,299.7Z" transform="translate(-135.325 -74.855)" fill="#bbe6e4"/>
      <path id="Контур_446" data-name="Контур 446" d="M387.2,285.534a1.44,1.44,0,1,0-1.44,1.44A1.441,1.441,0,0,0,387.2,285.534Z" transform="translate(-132.215 -76.651)" fill="#bbe6e4"/>
      <path id="Контур_447" data-name="Контур 447" d="M411.73,299.7a1.44,1.44,0,1,0-1.44,1.44A1.44,1.44,0,0,0,411.73,299.7Z" transform="translate(-129.105 -74.855)" fill="#bbe6e4"/>
      <path id="Контур_448" data-name="Контур 448" d="M411.73,299.7a1.44,1.44,0,1,0-1.44,1.44A1.44,1.44,0,0,0,411.73,299.7Z" transform="translate(-129.105 -74.855)" fill="#bbe6e4"/>
      <path id="Контур_449" data-name="Контур 449" d="M436.26,285.534a1.44,1.44,0,1,0-1.44,1.44A1.441,1.441,0,0,0,436.26,285.534Z" transform="translate(-125.995 -76.651)" fill="#bbe6e4"/>
      <path id="Контур_450" data-name="Контур 450" d="M460.791,299.7a1.441,1.441,0,1,0-1.441,1.44A1.441,1.441,0,0,0,460.791,299.7Z" transform="translate(-122.885 -74.855)" fill="#bbe6e4"/>
      <path id="Контур_451" data-name="Контур 451" d="M460.791,299.7a1.441,1.441,0,1,0-1.441,1.44A1.441,1.441,0,0,0,460.791,299.7Z" transform="translate(-122.885 -74.855)" fill="#bbe6e4"/>
      <path id="Контур_452" data-name="Контур 452" d="M485.321,285.534a1.44,1.44,0,1,0-1.44,1.44A1.441,1.441,0,0,0,485.321,285.534Z" transform="translate(-119.774 -76.651)" fill="#bbe6e4"/>
      <path id="Контур_453" data-name="Контур 453" d="M509.851,299.7a1.44,1.44,0,1,0-1.44,1.44A1.44,1.44,0,0,0,509.851,299.7Z" transform="translate(-116.664 -74.855)" fill="#bbe6e4"/>
      <path id="Контур_454" data-name="Контур 454" d="M509.851,299.7a1.44,1.44,0,1,0-1.44,1.44A1.44,1.44,0,0,0,509.851,299.7Z" transform="translate(-116.664 -74.855)" fill="#bbe6e4"/>
      <path id="Контур_455" data-name="Контур 455" d="M534.381,285.534a1.44,1.44,0,1,0-1.44,1.44A1.441,1.441,0,0,0,534.381,285.534Z" transform="translate(-113.554 -76.651)" fill="#bbe6e4"/>
      <path id="Контур_456" data-name="Контур 456" d="M558.912,299.7a1.441,1.441,0,1,0-1.441,1.44A1.441,1.441,0,0,0,558.912,299.7Z" transform="translate(-110.444 -74.855)" fill="#bbe6e4"/>
      <path id="Контур_457" data-name="Контур 457" d="M558.912,299.7a1.441,1.441,0,1,0-1.441,1.44A1.441,1.441,0,0,0,558.912,299.7Z" transform="translate(-110.444 -74.855)" fill="#bbe6e4"/>
      <path id="Контур_458" data-name="Контур 458" d="M583.442,285.534a1.441,1.441,0,1,0-1.44,1.44A1.441,1.441,0,0,0,583.442,285.534Z" transform="translate(-107.334 -76.651)" fill="#bbe6e4"/>
    </g>
  </g>
</svg>
