<svg xmlns="http://www.w3.org/2000/svg" width="21.325" height="15.993" viewBox="0 0 21.325 15.993">
  <path id="envelope" d="M20.921,69.281a.251.251,0,0,1,.4.2v8.517a2,2,0,0,1-2,2H2a2,2,0,0,1-2-2V69.481a.249.249,0,0,1,.4-.2c.933.725,2.17,1.645,6.418,4.731.879.641,2.362,1.991,3.84,1.983,1.487.013,3-1.366,3.844-1.983C18.755,70.93,19.988,70.006,20.921,69.281ZM10.662,74.662c.966.017,2.357-1.216,3.057-1.724,5.527-4.011,5.948-4.361,7.222-5.36a1,1,0,0,0,.383-.787V66a2,2,0,0,0-2-2H2a2,2,0,0,0-2,2v.791a1,1,0,0,0,.383.787c1.274,1,1.7,1.349,7.222,5.36C8.305,73.446,9.7,74.679,10.662,74.662Z" transform="translate(0 -64)" fill="#42bfdd"/>
</svg>
