<svg xmlns="http://www.w3.org/2000/svg" width="14.865" height="19.82" viewBox="0 0 14.865 19.82">
  <path id="file-pdf" d="M7.042,9.914A3.735,3.735,0,0,1,6.964,8.1C7.289,8.1,7.258,9.527,7.042,9.914Zm-.066,1.827a17.863,17.863,0,0,1-1.1,2.427,14.255,14.255,0,0,1,2.435-.848,5.015,5.015,0,0,1-1.336-1.579ZM3.333,16.572c0,.031.511-.209,1.351-1.556A5.35,5.35,0,0,0,3.333,16.572ZM9.6,6.194h5.265v12.7a.927.927,0,0,1-.929.929H.929A.927.927,0,0,1,0,18.891V.929A.927.927,0,0,1,.929,0H8.671V5.265A.932.932,0,0,0,9.6,6.194Zm-.31,6.651a3.885,3.885,0,0,1-1.653-2.083,5.564,5.564,0,0,0,.24-2.485.97.97,0,0,0-1.85-.263,6.437,6.437,0,0,0,.314,2.981,36.351,36.351,0,0,1-1.579,3.321s0,0-.008,0c-1.049.538-2.849,1.723-2.11,2.632a1.2,1.2,0,0,0,.832.387c.693,0,1.382-.7,2.365-2.392a22.066,22.066,0,0,1,3.058-.9,5.867,5.867,0,0,0,2.478.755,1,1,0,0,0,.763-1.68C11.6,12.6,10.038,12.748,9.291,12.844Zm5.3-8.78L10.8.271A.928.928,0,0,0,10.142,0H9.91V4.955h4.955V4.719A.926.926,0,0,0,14.594,4.065Zm-2.869,9.883c.159-.1-.1-.461-1.657-.348C11.505,14.211,11.726,13.948,11.726,13.948Z"/>
</svg>
