<svg id="light-bulb" xmlns="http://www.w3.org/2000/svg" width="49.221" height="61.527" viewBox="0 0 49.221 61.527">
  <g id="Сгруппировать_10" data-name="Сгруппировать 10" transform="translate(0)">
    <g id="Сгруппировать_9" data-name="Сгруппировать 9">
      <path id="Контур_10" data-name="Контур 10" d="M233.028,6.153a1.025,1.025,0,0,0,1.025-1.025v-4.1a1.025,1.025,0,1,0-2.051,0v4.1A1.025,1.025,0,0,0,233.028,6.153Z" transform="translate(-208.418)" fill="#012f55"/>
      <path id="Контур_11" data-name="Контур 11" d="M140.116,26.152l2.051,3.551a1.025,1.025,0,1,0,1.783-1.014l-.007-.012-2.051-3.551a1.025,1.025,0,1,0-1.783,1.014Z" transform="translate(-128.186 -21.454)" fill="#012f55"/>
      <path id="Контур_12" data-name="Контур 12" d="M73.118,93.883l.012.007,3.551,2.051a1.025,1.025,0,0,0,1.037-1.769l-.012-.007-3.551-2.051a1.025,1.025,0,1,0-1.037,1.769Z" transform="translate(-69.457 -80.183)" fill="#012f55"/>
      <path id="Контур_13" data-name="Контур 13" d="M54.156,185.025A1.025,1.025,0,0,0,53.13,184h-4.1a1.025,1.025,0,1,0,0,2.051h4.1A1.026,1.026,0,0,0,54.156,185.025Z" transform="translate(-48.003 -160.415)" fill="#012f55"/>
      <path id="Контур_14" data-name="Контур 14" d="M76.693,260.106l-.012.007-3.551,2.051a1.025,1.025,0,1,0,1.013,1.783l.012-.007,3.551-2.051a1.025,1.025,0,0,0-1.013-1.783Z" transform="translate(-69.457 -226.649)" fill="#012f55"/>
      <path id="Контур_15" data-name="Контур 15" d="M368.7,262.171l-.012-.007-3.551-2.051a1.025,1.025,0,1,0-1.037,1.769l.012.007,3.551,2.051a1.025,1.025,0,0,0,1.037-1.769Z" transform="translate(-323.142 -226.649)" fill="#012f55"/>
      <path id="Контур_16" data-name="Контур 16" d="M389.13,184h-4.1a1.025,1.025,0,1,0,0,2.051h4.1a1.025,1.025,0,1,0,0-2.051Z" transform="translate(-340.935 -160.415)" fill="#012f55"/>
      <path id="Контур_17" data-name="Контур 17" d="M364.675,96.077a1.026,1.026,0,0,0,.513-.137l3.551-2.051a1.025,1.025,0,1,0-1.014-1.783l-.012.007-3.551,2.051a1.025,1.025,0,0,0,.513,1.913Z" transform="translate(-323.19 -80.183)" fill="#012f55"/>
      <path id="Контур_18" data-name="Контур 18" d="M308.51,30.079h0a1.025,1.025,0,0,0,1.4-.376h0l2.051-3.551a1.025,1.025,0,0,0-1.769-1.037l-.007.012-2.051,3.551A1.026,1.026,0,0,0,308.51,30.079Z" transform="translate(-274.672 -21.453)" fill="#012f55"/>
      <path id="Контур_19" data-name="Контур 19" d="M179.283,180.509a1.026,1.026,0,0,0,1.025-1.025V168.2h2.051a4.1,4.1,0,1,0-4.1-4.1v2.051h-2.051V164.1a4.1,4.1,0,1,0-4.1,4.1h2.051v11.28a1.025,1.025,0,1,0,2.051,0V168.2h2.051v11.28A1.025,1.025,0,0,0,179.283,180.509Zm1.025-16.407a2.051,2.051,0,1,1,2.051,2.051h-2.051Zm-6.153,2.051H172.1a2.051,2.051,0,1,1,2.051-2.051Z" transform="translate(-152.621 -139.491)" fill="#012f55"/>
      <path id="Контур_20" data-name="Контур 20" d="M129.271,64.021a16.407,16.407,0,0,0-11.2,29.07,3.056,3.056,0,0,1,1.171,2.345v2.4a3.076,3.076,0,0,0,2.051,2.888v1.214a3.057,3.057,0,0,0,.8,2.051,3.029,3.029,0,0,0,0,4.1,3.063,3.063,0,0,0,2.276,5.127,1,1,0,0,0,.843-1.576,1.087,1.087,0,0,0-.115-.177,1.06,1.06,0,0,0-.285-.187c-.03-.015-.059-.028-.09-.04a1.087,1.087,0,0,0-.323-.065c-.01,0-.019-.006-.03-.006a1.025,1.025,0,1,1,0-2.051h4.1a1.025,1.025,0,0,0,0-2.051h-4.1a1.025,1.025,0,1,1,0-2.051h4.1a1.025,1.025,0,0,0,0-2.051h-4.1a1.025,1.025,0,0,1-1.025-1.025v-1.025h5.127a1.025,1.025,0,0,0,0-2.051h-6.153a1.025,1.025,0,0,1-1.025-1.025v-2.4a5.1,5.1,0,0,0-1.923-3.933,14.356,14.356,0,0,1,9.8-25.431A14.521,14.521,0,0,1,142.83,80.321,14.272,14.272,0,0,1,137.5,91.563a5.083,5.083,0,0,0-1.851,3.992v2.286a1.025,1.025,0,0,1-1.025,1.025H131.55a1.025,1.025,0,0,0,0,2.051H133.6v1.025a1.025,1.025,0,0,1-1.025,1.025H131.55a1.025,1.025,0,1,0,0,2.051h1.025a1.025,1.025,0,0,1,0,2.051H131.55a1.025,1.025,0,0,0,0,2.051h1.025a1.025,1.025,0,1,1,0,2.051h-5.127a1.025,1.025,0,0,0,0,2.051h3.926a3.076,3.076,0,0,1-5.2,1.018,1.026,1.026,0,0,0-1.532,1.364,5.116,5.116,0,0,0,8.871-2.544,3.046,3.046,0,0,0,1.338-4.965,3.029,3.029,0,0,0,0-4.1,3.057,3.057,0,0,0,.8-2.051v-1.214a3.076,3.076,0,0,0,2.051-2.888V95.555a3.083,3.083,0,0,1,1.088-2.4,16.31,16.31,0,0,0,6.09-12.853A16.6,16.6,0,0,0,129.271,64.021Z" transform="translate(-103.863 -55.798)" fill="#012f55"/>
    </g>
  </g>
</svg>
