<svg xmlns="http://www.w3.org/2000/svg" xmlns:xlink="http://www.w3.org/1999/xlink" width="462.828" height="134.6" viewBox="0 0 462.828 134.6">
  <defs>
    <clipPath id="clip-path">
      <path id="Контур_2" data-name="Контур 2" d="M0,39.125H462.828v-134.6H0Z" transform="translate(0 95.475)" fill="none"/>
    </clipPath>
  </defs>
  <g id="Сгруппировать_5" data-name="Сгруппировать 5" transform="translate(0 95.475)">
    <g id="Сгруппировать_4" data-name="Сгруппировать 4" transform="translate(0 -95.475)" clip-path="url(#clip-path)">
      <g id="Сгруппировать_3" data-name="Сгруппировать 3" transform="translate(84.402 0)">
        <path id="Контур_1" data-name="Контур 1" d="M56.966,19.4c.594-7.963,9.072-10.834,15.855-9.1,3.135.758,6.4,2.529,7.447,5.791H94.334C93.038,9.823,87.99,6.645,82.2,4.98,72.875,2.318,61.412,2.431,52.409,6.166,46.281,8.709,41.581,14.437,42.25,21.334,43.583,35.3,63.094,37.882,74.2,36.387a64.227,64.227,0,0,0,6.9-.988c6.068-1.5,13.179-4.964,13.239-12.136H80.543c-4.253,9.729-24.5,8.5-23.577-3.861M-36.956,29.988c-6.182,1.122-15.656-.447-15.722-8.38l37.236-.275c0-17.99-23.012-20.061-36.408-16.789-6.344,1.538-13.08,5.2-14.494,12.1-1.4,6.84,1.382,13.926,7.874,17.012,4.287,2.039,8.827,2.57,13.516,2.872,10.652.73,24.743.251,29.236-11.333H-29.786c-1.021,3.034-4.286,4.269-7.17,4.793m7.447-13.344H-52.4c1.617-9.354,20.811-8.766,22.894,0m183.145-2.208a13.461,13.461,0,0,0-3.045-4.387c-7.05-6.843-19.638-8.025-28.95-6.805-6.085.811-12.32,2.171-17.1,6.31a13.875,13.875,0,0,0,0,20.831c7.607,6.694,20.541,7.046,30.064,5.765,10.206-1.383,24.48-9.3,19.032-21.714m-18.48,13.544a14.374,14.374,0,0,1-4.965,1.547c-4.432.577-9.6-.461-12.963-3.556-4.637-4.294-3.128-11.653,2.206-14.569a19.15,19.15,0,0,1,6.619-1.814,14.22,14.22,0,0,1,12.362,4.3c4.1,4.689,1.84,11.336-3.259,14.1M36.869,11.4C32.82,2.025,17.656,1.482,9.381,4.571,7,5.456,5.164,7.045,3.037,8.369V3.405l-13.514-.276v33.65H3.037V23.54c0-2.447-.275-5.213.943-7.448,3.007-5.517,15.883-7.069,19.468-1.379,1.366,2.206,1.1,5,1.1,7.447v14.62H37.515V19.953c0-2.755.469-5.963-.646-8.55m-127.417-.275c-7.535-8.734-25.743-11.307-34.671-3.587V3.129H-139.01V48.364H-125.5V32.09c4.513,2.567,8.469,4.413,13.791,4.413a34.593,34.593,0,0,0,11.861-1.655c9.582-3.276,17.035-14.745,9.3-23.72m-11.226,12.687c-1.885,4.033-6.62,5.908-10.757,6.5-6.085.871-15.891-4.124-14.2-11.466,1.128-4.891,7.213-7.72,11.714-8.429,6.981-1.1,16.949,5.607,13.239,13.393m17.652,12.964h13.791V-6.8H-84.122Zm0-43.58M-5.789-4.594h2.206V-47.346H-5.789Zm0-42.752" transform="translate(139.01 47.346)" fill="#fff"/>
      </g>
    </g>
    <path id="Контур_3" data-name="Контур 3" d="M385.874-46.7h76.954v-2.206H385.874Zm0-2.206M0-46.7H76.954v-2.206H0Zm0-2.206M217.622,20.044h2.208V-22.71h-2.208Z" transform="translate(0 19.082)" fill="#fff"/>
  </g>
</svg>
