<svg xmlns="http://www.w3.org/2000/svg" width="596.526" height="285.907" viewBox="0 0 596.526 285.907">
  <g id="Сгруппировать_971" data-name="Сгруппировать 971" transform="translate(108.145 46.712)" style="isolation: isolate">
    <path id="Контур_459" data-name="Контур 459" d="M-106.327,240.711a1.817,1.817,0,0,0-1.818,1.817v.017a1.817,1.817,0,0,0,1.818,1.818,1.817,1.817,0,0,0,1.817-1.818v-.017A1.817,1.817,0,0,0-106.327,240.711Z" transform="translate(0 -25.286)" fill="#bbe6e4"/>
    <path id="Контур_460" data-name="Контур 460" d="M-106.327,196.555a1.817,1.817,0,0,0-1.818,1.817,1.818,1.818,0,0,0,1.818,1.818,1.818,1.818,0,0,0,1.817-1.818A1.817,1.817,0,0,0-106.327,196.555Z" transform="translate(0 -21.402)" fill="#bbe6e4"/>
    <path id="Контур_461" data-name="Контур 461" d="M-106.327,108.242a1.817,1.817,0,0,0-1.818,1.818v.017a1.817,1.817,0,0,0,1.818,1.818,1.817,1.817,0,0,0,1.817-1.818v-.017A1.817,1.817,0,0,0-106.327,108.242Z" transform="translate(0 -13.632)" fill="#bbe6e4"/>
    <path id="Контур_462" data-name="Контур 462" d="M-106.327,64.086a1.817,1.817,0,0,0-1.818,1.818,1.817,1.817,0,0,0,1.818,1.817,1.817,1.817,0,0,0,1.817-1.817A1.817,1.817,0,0,0-106.327,64.086Z" transform="translate(0 -9.748)" fill="#bbe6e4"/>
    <path id="Контур_463" data-name="Контур 463" d="M-106.327-24.226a1.817,1.817,0,0,0-1.818,1.818v.017a1.817,1.817,0,0,0,1.818,1.818,1.817,1.817,0,0,0,1.817-1.818v-.017A1.817,1.817,0,0,0-106.327-24.226Z" transform="translate(0 -1.978)" fill="#bbe6e4"/>
    <path id="Контур_464" data-name="Контур 464" d="M-106.327,152.418a1.817,1.817,0,0,0-1.818,1.817,1.817,1.817,0,0,0,1.818,1.818,1.817,1.817,0,0,0,1.817-1.818A1.817,1.817,0,0,0-106.327,152.418Z" transform="translate(0 -17.519)" fill="#bbe6e4"/>
    <path id="Контур_465" data-name="Контур 465" d="M-106.327,19.95a1.817,1.817,0,0,0-1.818,1.817,1.818,1.818,0,0,0,1.818,1.818,1.818,1.818,0,0,0,1.817-1.818A1.817,1.817,0,0,0-106.327,19.95Z" transform="translate(0 -5.865)" fill="#bbe6e4"/>
    <path id="Контур_466" data-name="Контур 466" d="M487.428-42.687a1.807,1.807,0,0,0,1.268-.519l.488-.853a1.8,1.8,0,0,0,.061-.446,1.811,1.811,0,0,0-1.325-1.741v-.466h-.981v.465a1.812,1.812,0,0,0-1.327,1.742,1.807,1.807,0,0,0,.061.447l-31.84,18.383a1.812,1.812,0,0,0-.79-.453V-46.712h-.981v20.583a1.807,1.807,0,0,0-.79.453L419.431-44.058a1.812,1.812,0,0,0,.062-.447,1.812,1.812,0,0,0-1.327-1.742v-.465h-.981v.466a1.812,1.812,0,0,0-1.326,1.741,1.8,1.8,0,0,0,.062.446l-31.84,18.384a1.824,1.824,0,0,0-.789-.453V-46.712h-.983v20.583a1.8,1.8,0,0,0-.789.453L366.356-34.43,349.68-44.058a1.808,1.808,0,0,0,.061-.447,1.812,1.812,0,0,0-1.326-1.742v-.465h-.981v.466a1.81,1.81,0,0,0-1.326,1.741,1.8,1.8,0,0,0,.061.446l-31.84,18.384a1.807,1.807,0,0,0-.791-.453V-46.712h-.982v20.584a1.8,1.8,0,0,0-.788.452l-15.182-8.765-16.658-9.618a1.8,1.8,0,0,0,.062-.446,1.812,1.812,0,0,0-1.326-1.741v-.466h-.981v.465a1.812,1.812,0,0,0-1.327,1.742,1.809,1.809,0,0,0,.062.447L244.576-25.675a1.807,1.807,0,0,0-.79-.453V-46.712H242.8v20.583a1.823,1.823,0,0,0-.789.453l-15.182-8.765-16.658-9.618a1.8,1.8,0,0,0,.061-.446,1.811,1.811,0,0,0-1.325-1.741v-.466h-.982v.465A1.812,1.812,0,0,0,206.6-44.5a1.809,1.809,0,0,0,.061.447l-31.84,18.383a1.807,1.807,0,0,0-.79-.453V-46.712h-.982v20.583a1.814,1.814,0,0,0-.789.453L157.1-34.43l-16.676-9.628a1.81,1.81,0,0,0,.062-.447,1.812,1.812,0,0,0-1.327-1.742v-.465h-.982v.466a1.812,1.812,0,0,0-1.325,1.741,1.8,1.8,0,0,0,.062.446l-31.84,18.384a1.827,1.827,0,0,0-.79-.453V-46.712H103.3v20.583a1.8,1.8,0,0,0-.79.453L87.348-34.43,70.671-44.058a1.81,1.81,0,0,0,.062-.447,1.813,1.813,0,0,0-1.327-1.742v-.465h-.982v.466A1.812,1.812,0,0,0,67.1-44.5a1.8,1.8,0,0,0,.062.446L35.321-25.675a1.807,1.807,0,0,0-.791-.453V-46.712h-.982v20.584a1.818,1.818,0,0,0-.789.452l-16.784-9.69L.919-44.059A1.8,1.8,0,0,0,.981-44.5,1.812,1.812,0,0,0-.345-46.246v-.466h-.982v.465A1.812,1.812,0,0,0-2.653-44.5a1.81,1.81,0,0,0,.062.447L-34.432-25.675a1.812,1.812,0,0,0-.79-.453V-46.712H-36.2v20.583a1.818,1.818,0,0,0-.789.453l-12.58-7.262-19.26-11.121a1.8,1.8,0,0,0,.061-.446A1.811,1.811,0,0,0-70.1-46.246v-.466h-.982v.465A1.812,1.812,0,0,0-72.4-44.5a1.809,1.809,0,0,0,.061.447l-25.988,15h0v1.133h0l26.476-15.286a1.81,1.81,0,0,0,1.268.518,1.808,1.808,0,0,0,1.268-.519l19.257,11.119,12.59,7.269a1.822,1.822,0,0,0-.057.431v.017a1.822,1.822,0,0,0,.057.431L-69.32-5.55a1.809,1.809,0,0,0-1.269-.519,1.812,1.812,0,0,0-1.268.518L-91.417-16.844l-6.915-3.992h0V-19.7h0L-88.3-13.909-72.344-4.7a1.809,1.809,0,0,0-.061.447,1.812,1.812,0,0,0,1.326,1.742V34.278a1.809,1.809,0,0,0-.79.453l-17.3-9.991-9.159-5.288h0v1.134h0l12.647,7.3,13.337,7.7a1.816,1.816,0,0,0-.057.431v.017a1.83,1.83,0,0,0,.057.432l-25.984,15h0V52.6h0l26.464-15.278a1.808,1.808,0,0,0,.789.452V74.567A1.812,1.812,0,0,0-72.4,76.309a1.8,1.8,0,0,0,.061.447l-25.988,15h0v1.134h0l26.476-15.286a1.812,1.812,0,0,0,1.268.518,1.812,1.812,0,0,0,1.268-.518l14.415,8.322L-37.473,96a1.816,1.816,0,0,0-.057.431v.017a1.816,1.816,0,0,0,.057.431L-69.32,115.264a1.809,1.809,0,0,0-1.269-.519,1.81,1.81,0,0,0-1.268.518l-19.561-11.293-6.915-3.993h0v1.134h0l6.785,3.917,19.2,11.087a1.8,1.8,0,0,0-.061.446,1.812,1.812,0,0,0,1.326,1.742v36.787a1.809,1.809,0,0,0-.79.453l-17.3-9.991-9.159-5.288h0V141.4h0l12.647,7.3,13.337,7.7a1.816,1.816,0,0,0-.057.431v.017a1.816,1.816,0,0,0,.057.431l-25.984,15h0v1.133h0l26.463-15.279a1.809,1.809,0,0,0,.79.453v36.788a1.81,1.81,0,0,0-1.326,1.741,1.809,1.809,0,0,0,.061.447l-25.988,15v1.134l26.476-15.286a1.81,1.81,0,0,0,1.268.518,1.812,1.812,0,0,0,1.269-.519l31.847,18.388a1.816,1.816,0,0,0-.057.431v.017a1.816,1.816,0,0,0,.057.431L-69.32,236.078a1.808,1.808,0,0,0-1.269-.518,1.806,1.806,0,0,0-1.268.518l-26.476-15.286v1.135l25.988,15a1.81,1.81,0,0,0-.061.447,1.817,1.817,0,0,0,1.817,1.818,1.818,1.818,0,0,0,1.817-1.818,1.8,1.8,0,0,0-.061-.446l31.84-18.384a1.811,1.811,0,0,0,1.28.529,1.817,1.817,0,0,0,1.818-1.818v-.017a1.829,1.829,0,0,0-.057-.432L-2.1,198.422a1.808,1.808,0,0,0,1.268.519,1.817,1.817,0,0,0,1.818-1.818,1.812,1.812,0,0,0-1.326-1.741V158.594a1.818,1.818,0,0,0,.79-.453l31.84,18.383a1.817,1.817,0,1,0,3.51,0l31.84-18.383a1.818,1.818,0,0,0,.79.453v36.788a1.813,1.813,0,1,0,1.759,3.041l33.609,19.4,33.606-19.4a1.81,1.81,0,0,0,2.536,0l33.609,19.4,33.607-19.4a1.814,1.814,0,1,0,1.76-3.04V158.594a1.812,1.812,0,0,0,1.325-1.742v-.017a1.816,1.816,0,0,0-.057-.431l31.847-18.388a1.814,1.814,0,1,0,1.759-3.04V98.187a1.813,1.813,0,0,0,1.327-1.742v-.017a1.829,1.829,0,0,0-.057-.432L276.9,77.609a1.814,1.814,0,1,0,1.759-3.041V37.78a1.818,1.818,0,0,0,.789-.453l31.841,18.383a1.817,1.817,0,1,0,3.51,0l31.841-18.382a1.816,1.816,0,0,0,3.1-1.289V36.02a1.83,1.83,0,0,0-.057-.432L381.532,17.2a1.814,1.814,0,1,0,1.76-3.04V-22.627a1.815,1.815,0,0,0,.788-.453L415.921-4.7a1.81,1.81,0,0,0-.062.447,1.817,1.817,0,0,0,1.818,1.817,1.817,1.817,0,0,0,1.817-1.817,1.806,1.806,0,0,0-.062-.447l31.841-18.383a1.811,1.811,0,0,0,1.28.529,1.811,1.811,0,0,0,1.28-.529,2.584,2.584,0,0,0,.41-.5,6.056,6.056,0,0,0,.127-.787v-.017a1.817,1.817,0,0,0-.057-.431L486.16-43.205A1.812,1.812,0,0,0,487.428-42.687ZM417.676-6.069a1.809,1.809,0,0,0-1.269.519L384.56-23.938a1.821,1.821,0,0,0,.057-.431v-.017a1.815,1.815,0,0,0-.057-.431l31.848-18.388a1.809,1.809,0,0,0,1.269.519,1.809,1.809,0,0,0,1.267-.518l31.849,18.387a1.815,1.815,0,0,0-.057.431v.017a1.815,1.815,0,0,0,.057.431L418.944-5.55A1.81,1.81,0,0,0,417.676-6.069ZM380.983,15.9a1.81,1.81,0,0,0,.062.447L349.2,34.732a1.818,1.818,0,0,0-.79-.453V-2.51a1.811,1.811,0,0,0,1.326-1.741,1.8,1.8,0,0,0-.061-.447l31.84-18.383a1.817,1.817,0,0,0,.79.453V14.16A1.812,1.812,0,0,0,380.983,15.9ZM313.048,54.338a1.811,1.811,0,0,0-1.269.519L279.932,36.469a1.771,1.771,0,0,0,.057-.431V36.02a1.771,1.771,0,0,0-.057-.431L311.78,17.2a1.81,1.81,0,0,0,2.536,0l31.849,18.387a1.769,1.769,0,0,0-.057.431v.017a1.815,1.815,0,0,0,.057.431L314.316,54.856A1.813,1.813,0,0,0,313.048,54.338ZM276.355,76.309a1.8,1.8,0,0,0,.062.447L244.576,95.139a1.817,1.817,0,0,0-.79-.453V57.9a1.781,1.781,0,0,0,1.265-2.189l31.84-18.383a1.816,1.816,0,0,0,.791.453V74.568A1.81,1.81,0,0,0,276.355,76.309Zm-34.876,60.407a1.8,1.8,0,0,0,.061.446L209.7,155.547a1.809,1.809,0,0,0-.79-.453V118.3a1.784,1.784,0,0,0,1.264-2.187l31.84-18.384a1.824,1.824,0,0,0,.789.453v36.788A1.812,1.812,0,0,0,241.479,136.716Zm-66.667,38.955a1.81,1.81,0,0,0-2.535,0l-31.849-18.388a1.77,1.77,0,0,0,.057-.431v-.017a1.77,1.77,0,0,0-.057-.431l31.848-18.387a1.811,1.811,0,0,0,2.536,0l15.521,8.961L206.66,156.4a1.815,1.815,0,0,0-.057.431v.017a1.815,1.815,0,0,0,.057.431Zm-69.753,0a1.811,1.811,0,0,0-2.535,0L70.676,157.283a1.816,1.816,0,0,0,.057-.431v-.017a1.822,1.822,0,0,0-.057-.431l31.848-18.387a1.81,1.81,0,0,0,2.535,0l15.925,9.194,15.923,9.194a1.807,1.807,0,0,0-.057.43v.017a1.807,1.807,0,0,0,.057.43Zm-71.019-.518a1.808,1.808,0,0,0-1.269.518L.924,157.283a1.77,1.77,0,0,0,.057-.431v-.017a1.816,1.816,0,0,0-.057-.431l31.848-18.388a1.809,1.809,0,0,0,2.535,0L67.156,156.4a1.816,1.816,0,0,0-.057.431v.017a1.816,1.816,0,0,0,.057.431L35.308,175.67A1.812,1.812,0,0,0,34.04,175.153Zm-36.693,21.97a1.8,1.8,0,0,0,.062.446l-31.841,18.384a1.826,1.826,0,0,0-.79-.453V178.712a1.813,1.813,0,0,0,1.327-1.742,1.81,1.81,0,0,0-.062-.447l31.84-18.383a1.818,1.818,0,0,0,.79.453v36.788A1.812,1.812,0,0,0-2.653,197.123ZM-70.1,195.382V158.594a1.818,1.818,0,0,0,.789-.453l11.746,6.781,20.094,11.6a1.8,1.8,0,0,0-.062.446,1.813,1.813,0,0,0,1.326,1.741V215.5a1.813,1.813,0,0,0-.789.452l-31.84-18.384a1.8,1.8,0,0,0,.061-.446A1.811,1.811,0,0,0-70.1,195.382Zm1.264-118.627a1.8,1.8,0,0,0,.061-.446A1.811,1.811,0,0,0-70.1,74.568V37.779a1.813,1.813,0,0,0,.789-.452l11.072,6.392L-37.468,55.71a1.8,1.8,0,0,0-.062.446A1.813,1.813,0,0,0-36.2,57.9V94.686a1.813,1.813,0,0,0-.789.452l-9.836-5.679ZM381.04-24.818a1.815,1.815,0,0,0-.057.431v.017a1.815,1.815,0,0,0,.057.431L349.192-5.55a1.807,1.807,0,0,0-1.268-.519,1.812,1.812,0,0,0-1.268.518l-19.35-11.17-12.5-7.217a1.815,1.815,0,0,0,.057-.431v-.017a1.815,1.815,0,0,0-.057-.431l31.848-18.388a1.807,1.807,0,0,0,1.268.519,1.811,1.811,0,0,0,1.268-.518l18.777,10.84ZM-34.445,175.671a1.806,1.806,0,0,0-1.268-.518,1.808,1.808,0,0,0-1.268.518l-10-5.777-21.843-12.612a1.808,1.808,0,0,0,.057-.43v-.017a1.814,1.814,0,0,0-.057-.43l31.848-18.389a1.808,1.808,0,0,0,1.268.519,1.812,1.812,0,0,0,1.268-.518l15.925,9.194L-2.6,156.4a1.815,1.815,0,0,0-.057.431v.017a1.815,1.815,0,0,0,.057.431ZM276.417-4.7a1.809,1.809,0,0,0-.062.447,1.81,1.81,0,0,0,1.327,1.741V34.278a1.8,1.8,0,0,0-.79.453L260.98,25.545l-15.928-9.2a1.78,1.78,0,0,0-1.265-2.188V-22.627a1.817,1.817,0,0,0,.79-.453l15.912,9.187ZM241.54,55.709A1.785,1.785,0,0,0,242.8,57.9V94.686a1.8,1.8,0,0,0-.788.452L222.693,83.983l-12.518-7.228a1.784,1.784,0,0,0-1.264-2.187V37.779a1.813,1.813,0,0,0,.789-.452l19.03,10.987Zm-69.814,81.007a1.8,1.8,0,0,0,.062.446l-31.84,18.384a1.816,1.816,0,0,0-.791-.453V118.305a1.781,1.781,0,0,0,1.265-2.189l31.841-18.383a1.809,1.809,0,0,0,.789.453v36.788A1.812,1.812,0,0,0,171.726,136.716Zm-69.752,0a1.809,1.809,0,0,0,.062.447L70.2,155.546a1.821,1.821,0,0,0-.79-.453V118.305a1.78,1.78,0,0,0,1.265-2.188l31.84-18.384a1.807,1.807,0,0,0,.791.453v36.788A1.81,1.81,0,0,0,101.975,136.716ZM.981-4.251A1.8,1.8,0,0,0,.919-4.7l31.84-18.384a1.811,1.811,0,0,0,.79.452V14.161a1.78,1.78,0,0,0-1.264,2.187L.445,34.732a1.827,1.827,0,0,0-.79-.453V-2.51A1.812,1.812,0,0,0,.981-4.251Zm69.752,0a1.809,1.809,0,0,0-.062-.447l31.84-18.383a1.815,1.815,0,0,0,.791.453V14.16a1.785,1.785,0,0,0-1.266,2.189L70.2,34.732a1.812,1.812,0,0,0-.79-.453V-2.51A1.812,1.812,0,0,0,70.734-4.251ZM67.1,76.309a1.809,1.809,0,0,0,.062.447L35.32,95.139a1.8,1.8,0,0,0-.79-.453V57.9a1.781,1.781,0,0,0,1.265-2.189L67.635,37.326a1.823,1.823,0,0,0,.789.453V74.568A1.812,1.812,0,0,0,67.1,76.309Zm-34.814-20.6A1.781,1.781,0,0,0,33.548,57.9V94.686a1.807,1.807,0,0,0-.789.452L13.426,83.976.919,76.756a1.81,1.81,0,0,0,.062-.447A1.812,1.812,0,0,0-.345,74.568V37.78a1.823,1.823,0,0,0,.789-.453L19.056,48.073Zm-66.179.447a1.81,1.81,0,0,0-.062-.447L-2.116,37.326a1.809,1.809,0,0,0,.789.453V74.568a1.811,1.811,0,0,0-1.326,1.741,1.8,1.8,0,0,0,.062.447L-34.432,95.139a1.821,1.821,0,0,0-.79-.453V57.9A1.813,1.813,0,0,0-33.895,56.156Zm-.057,40.72a1.815,1.815,0,0,0,.057-.431v-.017A1.815,1.815,0,0,0-33.952,96L-2.1,77.609a1.809,1.809,0,0,0,1.267.518,1.81,1.81,0,0,0,1.268-.518L16.356,86.8,32.28,96a1.77,1.77,0,0,0-.057.431v.017a1.815,1.815,0,0,0,.057.431L.432,115.264a1.809,1.809,0,0,0-1.269-.519,1.811,1.811,0,0,0-1.268.518l-13.231-7.638ZM70.671,76.756a1.78,1.78,0,0,0-1.265-2.188V37.78a1.808,1.808,0,0,0,.789-.452L88.884,48.116l13.153,7.594A1.781,1.781,0,0,0,103.3,57.9V94.685a1.811,1.811,0,0,0-.79.452L83.088,83.924ZM140.485-4.251a1.809,1.809,0,0,0-.062-.447l31.841-18.383a1.809,1.809,0,0,0,.789.453V14.161a1.78,1.78,0,0,0-1.264,2.187L139.948,34.732a1.807,1.807,0,0,0-.79-.453V-2.509A1.812,1.812,0,0,0,140.485-4.251Zm-3.634,80.56a1.809,1.809,0,0,0,.062.447L105.072,95.139a1.808,1.808,0,0,0-.789-.452V57.9a1.781,1.781,0,0,0,1.264-2.188l31.84-18.383a1.813,1.813,0,0,0,.789.452V74.568A1.812,1.812,0,0,0,136.851,76.309Zm3.572.447a1.781,1.781,0,0,0-1.265-2.189V37.78a1.816,1.816,0,0,0,.79-.452l18.687,10.788,13.153,7.594a1.781,1.781,0,0,0,1.264,2.188V94.685a1.814,1.814,0,0,0-.789.453L152.839,83.924ZM210.237-4.251a1.8,1.8,0,0,0-.061-.446l31.84-18.384a1.823,1.823,0,0,0,.789.453V14.161a1.784,1.784,0,0,0-1.264,2.187L209.7,34.732a1.816,1.816,0,0,0-.79-.452V-2.51A1.811,1.811,0,0,0,210.237-4.251ZM206.6,76.309a1.8,1.8,0,0,0,.061.447l-31.84,18.383a1.826,1.826,0,0,0-.79-.453V57.9a1.781,1.781,0,0,0,1.264-2.188l31.841-18.383a1.809,1.809,0,0,0,.79.453V74.567A1.812,1.812,0,0,0,206.6,76.309Zm.057-40.72a1.815,1.815,0,0,0-.057.431v.017a1.829,1.829,0,0,0,.057.432L174.812,54.856a1.81,1.81,0,0,0-2.535,0l-13.15-7.592-18.7-10.795a1.829,1.829,0,0,0,.057-.432V36.02a1.77,1.77,0,0,0-.057-.431L172.276,17.2a1.81,1.81,0,0,0,2.536,0l15.521,8.96Zm-69.753,0a1.821,1.821,0,0,0-.057.431v.017a1.77,1.77,0,0,0,.057.431L105.059,54.857a1.808,1.808,0,0,0-2.535,0l-13.15-7.592-18.7-10.8a1.816,1.816,0,0,0,.057-.431V36.02a1.816,1.816,0,0,0-.057-.431L102.524,17.2a1.808,1.808,0,0,0,2.535,0l15.925,9.194Zm-69.752,0a1.816,1.816,0,0,0-.057.431v.017a1.816,1.816,0,0,0,.057.431L35.308,54.856a1.81,1.81,0,0,0-2.535,0L19.548,47.222.924,36.469a1.816,1.816,0,0,0,.057-.431V36.02a1.816,1.816,0,0,0-.057-.431L32.771,17.2a1.809,1.809,0,0,0,2.535,0l15.925,9.193ZM-33.957,137.163a1.81,1.81,0,0,0,.062-.447,1.812,1.812,0,0,0-1.327-1.741V98.187a1.8,1.8,0,0,0,.79-.453l18.605,10.742,13.235,7.642a1.8,1.8,0,0,0-.062.446,1.812,1.812,0,0,0,1.326,1.742v36.787a1.809,1.809,0,0,0-.789.453l-19.326-11.157ZM35.8,96.876a1.815,1.815,0,0,0,.057-.431v-.017A1.783,1.783,0,0,0,35.8,96L67.648,77.609a1.81,1.81,0,0,0,2.535,0L86.108,86.8,102.031,96a1.829,1.829,0,0,0-.057.432v.017a1.815,1.815,0,0,0,.057.431L70.184,115.264a1.809,1.809,0,0,0-2.536,0l-13.232-7.639Zm69.752,0a1.816,1.816,0,0,0,.057-.431v-.017a1.816,1.816,0,0,0-.057-.431L137.4,77.608a1.809,1.809,0,0,0,2.535,0L155.86,86.8,171.784,96a1.815,1.815,0,0,0-.057.431v.017a1.815,1.815,0,0,0,.057.431l-31.848,18.388a1.809,1.809,0,0,0-2.536,0l-13.3-7.68ZM206.664-4.7a1.809,1.809,0,0,0-.061.447,1.812,1.812,0,0,0,1.326,1.742V34.278a1.813,1.813,0,0,0-.789.452l-15.913-9.186-15.928-9.2a1.784,1.784,0,0,0-1.265-2.187V-22.627a1.817,1.817,0,0,0,.79-.453l15.317,8.843Zm-69.752,0a1.8,1.8,0,0,0-.062.446,1.812,1.812,0,0,0,1.325,1.741V34.279a1.8,1.8,0,0,0-.788.452l-15.912-9.187-15.928-9.2a1.78,1.78,0,0,0-1.264-2.187V-22.627a1.818,1.818,0,0,0,.789-.453l15.912,9.187ZM67.16-4.7a1.8,1.8,0,0,0-.062.446A1.812,1.812,0,0,0,68.424-2.51V34.278a1.823,1.823,0,0,0-.789.453L51.723,25.545l-15.928-9.2A1.781,1.781,0,0,0,34.53,14.16V-22.627a1.8,1.8,0,0,0,.79-.453L53.39-12.648Zm-69.752,0a1.81,1.81,0,0,0-.062.447A1.81,1.81,0,0,0-1.327-2.51V34.278a1.805,1.805,0,0,0-.789.453l-15.912-9.187-15.928-9.2a1.8,1.8,0,0,0,.062-.446,1.812,1.812,0,0,0-1.327-1.741V-22.627a1.812,1.812,0,0,0,.79-.453l18.071,10.433ZM-68.828,36.469a1.815,1.815,0,0,0,.057-.431V36.02a1.821,1.821,0,0,0-.057-.431L-36.98,17.2a1.807,1.807,0,0,0,1.268.519,1.812,1.812,0,0,0,1.268-.518l15.925,9.193L-2.6,35.589a1.815,1.815,0,0,0-.057.431v.017a1.783,1.783,0,0,0,.057.432L-34.445,54.856a1.812,1.812,0,0,0-1.268-.518,1.812,1.812,0,0,0-1.268.518L-47.488,48.79ZM.445,155.547a1.8,1.8,0,0,0-.79-.453V118.3a1.812,1.812,0,0,0,1.326-1.741,1.8,1.8,0,0,0-.062-.446l31.84-18.384a1.821,1.821,0,0,0,.79.453v36.788a1.78,1.78,0,0,0-1.264,2.187ZM34.53,134.974V98.187a1.811,1.811,0,0,0,.79-.452l18.605,10.741,13.235,7.642a1.78,1.78,0,0,0,1.264,2.187v36.789a1.808,1.808,0,0,0-.789.452L35.795,137.163a1.781,1.781,0,0,0-1.265-2.189Zm71.017,2.188a1.78,1.78,0,0,0-1.264-2.187V98.187a1.818,1.818,0,0,0,.789-.453l18.535,10.7,13.306,7.682a1.78,1.78,0,0,0,1.263,2.187v36.789a1.813,1.813,0,0,0-.789.452l-19.24-11.108Zm69.753,0a1.84,1.84,0,0,0,.061-.446,1.812,1.812,0,0,0-1.326-1.741V98.187a1.817,1.817,0,0,0,.79-.453l18.031,10.41,13.809,7.973a1.786,1.786,0,0,0,1.265,2.189v36.787a1.809,1.809,0,0,0-.79.453L187.8,144.383Zm34.389-21.9a1.81,1.81,0,0,0-2.536,0l-13.222-7.634L175.3,96.876a1.815,1.815,0,0,0,.057-.431v-.017A1.815,1.815,0,0,0,175.3,96l31.848-18.387a1.81,1.81,0,0,0,2.535,0l16.328,9.427L241.536,96a1.814,1.814,0,0,0-.057.431v.017a1.814,1.814,0,0,0,.057.431Zm34.875-60.408a1.81,1.81,0,0,0-2.535,0L228.8,47.216,210.18,36.469a1.816,1.816,0,0,0,.057-.431V36.02a1.822,1.822,0,0,0-.057-.431L242.028,17.2a1.809,1.809,0,0,0,2.535,0l15.925,9.193,15.924,9.194a1.771,1.771,0,0,0-.057.431v.017a1.784,1.784,0,0,0,.057.432Zm34.889-20.125a1.827,1.827,0,0,0-.79-.453V-2.51a1.812,1.812,0,0,0,1.326-1.741,1.8,1.8,0,0,0-.062-.446l31.84-18.384a1.813,1.813,0,0,0,.789.452V14.161a1.78,1.78,0,0,0-1.263,2.187ZM313.538,14.16V-22.627a1.8,1.8,0,0,0,.79-.453l15.912,9.187,15.928,9.2a1.8,1.8,0,0,0-.061.446,1.81,1.81,0,0,0,1.326,1.741V34.278a1.816,1.816,0,0,0-.79.453L314.8,16.349a1.785,1.785,0,0,0-1.266-2.189Zm-2.25-38.977a1.809,1.809,0,0,0-.057.43v.017a1.809,1.809,0,0,0,.057.43L279.44-5.55a1.809,1.809,0,0,0-1.269-.519,1.809,1.809,0,0,0-1.267.518l-19.35-11.17-12.5-7.217a1.815,1.815,0,0,0,.057-.431v-.017a1.815,1.815,0,0,0-.057-.431L276.9-43.206a1.806,1.806,0,0,0,1.267.519,1.81,1.81,0,0,0,1.268-.518L298.7-32.087Zm-69.752,0a1.82,1.82,0,0,0-.057.431v.017a1.82,1.82,0,0,0,.057.431L209.689-5.55a1.809,1.809,0,0,0-1.269-.519,1.813,1.813,0,0,0-1.268.518L187.8-16.721l-12.5-7.217a1.815,1.815,0,0,0,.057-.431v-.017a1.821,1.821,0,0,0-.057-.431l31.848-18.387a1.812,1.812,0,0,0,1.268.518,1.808,1.808,0,0,0,1.268-.519l19.638,11.338Zm-69.752,0a1.821,1.821,0,0,0-.057.431v.017a1.815,1.815,0,0,0,.057.431L139.936-5.551a1.812,1.812,0,0,0-1.269-.518,1.808,1.808,0,0,0-1.268.519L118.147-16.665l-12.6-7.272a1.822,1.822,0,0,0,.057-.431v-.017a1.822,1.822,0,0,0-.057-.431L137.4-43.206a1.808,1.808,0,0,0,1.268.519,1.81,1.81,0,0,0,1.268-.518l19.353,11.173Zm-69.753,0a1.815,1.815,0,0,0-.057.431v.017a1.815,1.815,0,0,0,.057.431L70.184-5.55a1.811,1.811,0,0,0-1.269-.519,1.81,1.81,0,0,0-1.268.518L46.372-17.834,35.8-23.938a1.815,1.815,0,0,0,.057-.431v-.017a1.815,1.815,0,0,0-.057-.431L67.648-43.206a1.807,1.807,0,0,0,1.268.519,1.812,1.812,0,0,0,1.268-.518L89.537-32.032Zm-69.752,0a1.821,1.821,0,0,0-.057.431v.017a1.808,1.808,0,0,0,.057.43L.432-5.55A1.809,1.809,0,0,0-.837-6.069,1.809,1.809,0,0,0-2.1-5.551l-22.005-12.7-9.843-5.683a1.815,1.815,0,0,0,.057-.431v-.017a1.815,1.815,0,0,0-.057-.431L-2.1-43.206a1.808,1.808,0,0,0,1.268.519,1.81,1.81,0,0,0,1.268-.518L22.275-30.594ZM-68.771-4.251a1.8,1.8,0,0,0-.061-.446l31.84-18.384a1.818,1.818,0,0,0,.789.453V14.161A1.813,1.813,0,0,0-37.53,15.9a1.8,1.8,0,0,0,.062.446l-31.84,18.384a1.808,1.808,0,0,0-.789-.452V-2.51A1.811,1.811,0,0,0-68.771-4.251Zm0,120.814a1.8,1.8,0,0,0-.061-.446l31.84-18.384a1.818,1.818,0,0,0,.789.453v36.788a1.813,1.813,0,0,0-1.326,1.741,1.8,1.8,0,0,0,.062.446l-31.839,18.385a1.809,1.809,0,0,0-.79-.453V118.3A1.811,1.811,0,0,0-68.771,116.563ZM70.671,197.569a1.779,1.779,0,0,0-1.265-2.187V158.594a1.8,1.8,0,0,0,.79-.453l31.841,18.383a1.817,1.817,0,1,0,3.51,0l31.84-18.384a1.811,1.811,0,0,0,.789.454v36.788a1.78,1.78,0,0,0-1.263,2.187l-33.12,19.123Zm69.752,0a1.78,1.78,0,0,0-1.265-2.188V158.594a1.8,1.8,0,0,0,.79-.453l31.841,18.383a1.817,1.817,0,1,0,3.51,0l31.841-18.383a1.809,1.809,0,0,0,.79.453v36.788a1.785,1.785,0,0,0-1.265,2.188l-33.12,19.122Z" transform="translate(-0.863 0)" fill="#bbe6e4"/>
  </g>
</svg>
