<svg xmlns="http://www.w3.org/2000/svg" width="14.591" height="19.455" viewBox="0 0 14.591 19.455">
  <path id="phone-volume" d="M3.7,19.264a12.626,12.626,0,0,1,0-17.857.653.653,0,0,1,.808-.092L6.969,2.855a.653.653,0,0,1,.26.8L6,6.73a.653.653,0,0,1-.671.407L3.206,6.925a10.094,10.094,0,0,0,0,6.821l2.121-.212A.653.653,0,0,1,6,13.942L7.23,17.02a.653.653,0,0,1-.26.8L4.506,19.356A.653.653,0,0,1,3.7,19.264ZM9.39,3.628a2.434,2.434,0,0,1,0,2.472.458.458,0,0,1-.711.1L8.452,5.98a.459.459,0,0,1-.086-.548,1.218,1.218,0,0,0,0-1.138.459.459,0,0,1,.086-.548l.227-.218A.458.458,0,0,1,9.39,3.628ZM12.878.163a7.306,7.306,0,0,1,0,9.4.458.458,0,0,1-.667.035l-.22-.211a.457.457,0,0,1-.035-.622,6.088,6.088,0,0,0,0-7.806.457.457,0,0,1,.035-.622l.22-.211a.458.458,0,0,1,.667.035ZM11.131,1.871a4.871,4.871,0,0,1,0,5.987.458.458,0,0,1-.679.05l-.221-.212a.456.456,0,0,1-.049-.605,3.653,3.653,0,0,0,0-4.451.456.456,0,0,1,.049-.605l.221-.212a.458.458,0,0,1,.679.05Z" transform="translate(0)" fill="#bbe6e4"/>
</svg>
