<svg xmlns="http://www.w3.org/2000/svg" xmlns:xlink="http://www.w3.org/1999/xlink" width="167.5" height="48.713" viewBox="0 0 167.5 48.713">
  <defs>
    <clipPath id="clip-path">
      <path id="Контур_2" data-name="Контур 2" d="M0-46.762H167.5V-95.475H0Z" transform="translate(0 95.475)" fill="none"/>
    </clipPath>
  </defs>
  <g id="Сгруппировать_4" data-name="Сгруппировать 4" clip-path="url(#clip-path)">
    <g id="Сгруппировать_3" data-name="Сгруппировать 3" transform="translate(30.546 0)">
      <path id="Контур_1" data-name="Контур 1" d="M-68.085-23.189c.215-2.882,3.283-3.921,5.738-3.294a3.512,3.512,0,0,1,2.695,2.1h5.091c-.469-2.269-2.3-3.419-4.392-4.021a17.177,17.177,0,0,0-10.781.429,5.529,5.529,0,0,0-3.677,5.489c.482,5.056,7.544,5.989,11.562,5.448a23.244,23.244,0,0,0,2.5-.358c2.2-.543,4.769-1.8,4.791-4.392h-4.991c-1.539,3.521-8.866,3.077-8.533-1.4m-33.991,3.831c-2.237.406-5.666-.162-5.69-3.033l13.476-.1c0-6.511-8.328-7.26-13.176-6.076-2.3.557-4.734,1.883-5.246,4.379a5.443,5.443,0,0,0,2.85,6.157,13.042,13.042,0,0,0,4.891,1.039c3.855.264,8.955.091,10.581-4.1h-5.091a3.086,3.086,0,0,1-2.595,1.735m2.695-4.829h-8.285c.585-3.385,7.532-3.173,8.285,0m66.281-.8a4.872,4.872,0,0,0-1.1-1.588c-2.552-2.477-7.107-2.9-10.477-2.463a11.457,11.457,0,0,0-6.189,2.284,5.021,5.021,0,0,0,0,7.539c2.753,2.422,7.434,2.55,10.88,2.086,3.693-.5,8.859-3.366,6.888-7.858m-6.688,4.9a5.2,5.2,0,0,1-1.8.56,5.96,5.96,0,0,1-4.691-1.287,3.285,3.285,0,0,1,.8-5.273,6.93,6.93,0,0,1,2.4-.657,5.146,5.146,0,0,1,4.474,1.555,3.325,3.325,0,0,1-1.18,5.1m-35.571-6c-1.465-3.394-6.953-3.59-9.948-2.472a13.037,13.037,0,0,0-2.3,1.375v-1.8l-4.891-.1V-16.9H-87.6v-4.791a5.588,5.588,0,0,1,.341-2.7c1.088-2,5.748-2.558,7.046-.5a5.025,5.025,0,0,1,.4,2.695V-16.9h4.691V-22.99a7.963,7.963,0,0,0-.234-3.094m-46.113-.1c-2.727-3.161-9.316-4.092-12.548-1.3v-1.6h-4.991v16.371h4.891V-18.6a9.579,9.579,0,0,0,4.991,1.6,12.519,12.519,0,0,0,4.292-.6c3.468-1.186,6.165-5.336,3.364-8.584m-4.063,4.591c-.682,1.46-2.4,2.138-3.893,2.353-2.2.315-5.751-1.492-5.138-4.15.408-1.77,2.61-2.794,4.239-3.051,2.527-.4,6.134,2.029,4.791,4.847m6.388,4.692h4.991V-32.672h-4.991Zm0-15.772,28.349.8h.8V-47.346h-.8Zm0-15.472" transform="translate(139.01 47.346)" fill="#005498"/>
    </g>
  </g>
</svg>
