<svg xmlns="http://www.w3.org/2000/svg" xmlns:xlink="http://www.w3.org/1999/xlink" width="1134.403" height="213" viewBox="0 0 1134.403 213">
  <defs>
    <clipPath id="clip-path">
      <path id="Контур_2" data-name="Контур 2" d="M0,117.525H1134.4v-213H0Z" transform="translate(0 95.475)" fill="none"/>
    </clipPath>
  </defs>
  <g id="Сгруппировать_900" data-name="Сгруппировать 900" transform="translate(-9.612 -63.541)" opacity="0.06">
    <g id="Сгруппировать_4" data-name="Сгруппировать 4" transform="translate(9.612 63.541)" clip-path="url(#clip-path)">
      <g id="Сгруппировать_3" data-name="Сгруппировать 3" transform="translate(0.001 0)">
        <path id="Контур_1" data-name="Контур 1" d="M617.562,94.86c2.291-30.745,35.023-41.834,61.207-35.143,12.1,2.929,24.726,9.766,28.748,22.362h54.306c-5-24.207-24.492-36.477-46.85-42.906-35.992-10.277-80.245-9.842-115,4.578-23.659,9.82-41.8,31.937-39.219,58.567,5.143,53.94,80.468,63.9,123.34,58.126,8.92-1.17,17.835-1.682,26.62-3.816,23.425-5.792,50.877-19.167,51.111-46.858H708.583c-16.42,37.566-94.576,32.824-91.022-14.91m-362.59,40.875c-23.866,4.333-60.44-1.726-60.7-32.356l143.749-1.062c0-69.465-88.839-77.461-140.554-64.827-24.492,5.939-50.5,20.092-55.955,46.722-5.41,26.412,5.334,53.771,30.4,65.687,16.551,7.871,34.076,9.924,52.178,11.088,41.124,2.82,95.523.969,112.868-43.761H282.653c-3.94,11.714-16.545,16.483-27.681,18.508M283.72,84.213H195.338c6.243-36.118,80.343-33.848,88.382,0m707.039-8.525A51.98,51.98,0,0,0,979,58.748c-27.218-26.423-75.815-30.985-111.763-26.276-23.49,3.13-47.563,8.383-66.018,24.365-24.492,21.23-23.98,59.324,0,80.434,29.368,25.846,79.3,27.207,116.063,22.259,39.4-5.34,94.5-35.916,73.475-83.841m-71.341,52.3a55.485,55.485,0,0,1-19.169,5.972c-17.111,2.226-37.064-1.78-50.044-13.729-17.9-16.581-12.077-45,8.518-56.253,7.8-4.257,16.856-5.814,25.553-7.006C901.315,54.632,920.462,60.419,932,73.56c15.816,18.105,7.1,43.771-12.583,54.424m-379.44-64.01c-15.631-36.21-74.171-38.306-106.119-26.379-9.2,3.419-16.279,9.553-24.492,14.665V33.092l-52.172-1.067V161.957h52.172v-51.12c0-9.45-1.061-20.13,3.641-28.758,11.609-21.3,61.316-27.294,75.156-5.324,5.274,8.519,4.262,19.308,4.262,28.753v56.449H542.47V96.989c0-10.637,1.813-23.026-2.493-33.015m-491.9-1.062C18.988,29.189-51.3,19.255-85.771,49.064V32.025H-139.01V206.687h52.173V143.852c17.422,9.913,32.693,17.038,53.239,17.038,15.859,0,30.68-1.067,45.788-6.391,36.993-12.651,65.763-56.934,35.888-91.587M4.739,111.9C-2.538,127.472-20.819,134.712-36.788,137c-23.49,3.364-61.349-15.922-54.807-44.272C-87.24,73.848-63.75,62.923-46.372,60.185-19.42,55.944,19.058,81.834,4.739,111.9m68.146,50.059h53.239V-6.313H72.886Zm0-168.27" transform="translate(139.01 6.313)" fill="none" stroke="#fff" stroke-width="2"/>
      </g>
    </g>
  </g>
</svg>
