<svg xmlns="http://www.w3.org/2000/svg" xmlns:xlink="http://www.w3.org/1999/xlink" width="570" height="165.768" viewBox="0 0 570 165.768">
  <defs>
    <clipPath id="clip-path">
      <path id="Контур_2" data-name="Контур 2" d="M0,70.293H570V-95.475H0Z" transform="translate(0 95.475)" fill="none"/>
    </clipPath>
  </defs>
  <g id="Сгруппировать_900" data-name="Сгруппировать 900" transform="translate(0 95.475)" opacity="0.06">
    <g id="Сгруппировать_4" data-name="Сгруппировать 4" transform="translate(0 -95.475)" clip-path="url(#clip-path)">
      <g id="Сгруппировать_3" data-name="Сгруппировать 3" transform="translate(4.936 31.347)">
        <path id="Контур_1" data-name="Контур 1" d="M-112.232,99.91H-140.01V11.626H-111.7v7.329a36.1,36.1,0,0,1,11.03-5.5,50.986,50.986,0,0,1,15.108-2.166,61.744,61.744,0,0,1,22.25,4.172,44.262,44.262,0,0,1,17.5,11.771A25.718,25.718,0,0,1-39.96,38.6a24.153,24.153,0,0,1-.371,11.547A33.22,33.22,0,0,1-49.1,64.729a39.086,39.086,0,0,1-14.878,9.346c-8.015,2.822-15.767,3.212-22.949,3.212a41.619,41.619,0,0,1-14.064-2.429,73.439,73.439,0,0,1-11.241-5.276Zm-25.778-2h23.778V66.15l1.495.85a77.659,77.659,0,0,0,12.412,5.971,39.117,39.117,0,0,0,13.4,2.315c7.007,0,14.558-.376,22.291-3.1l.009,0c10.71-3.662,19.7-12.729,22.365-22.562,1.432-5.277,1.715-13.219-5.067-21.084-7.992-9.263-23-15.249-38.238-15.249-10.731,0-20.137,3.023-26.484,8.511l-1.654,1.43v-9.6H-138.01ZM198.7,77.813H171.978V48.927c0-.647.01-1.317.019-1.965.059-4.093.12-8.326-1.972-11.708-2.551-4.046-8.079-6.367-15.166-6.367a31.676,31.676,0,0,0-12.2,2.426c-3.832,1.641-6.613,3.9-8.043,6.519-1.84,3.375-1.77,7.517-1.7,11.521.012.728.025,1.481.025,2.207V77.813H105.161V11.606l27.778.568v8.612c.677-.451,1.343-.91,2-1.36a40.266,40.266,0,0,1,8.756-4.986,58.06,58.06,0,0,1,19.759-3.28,50.722,50.722,0,0,1,20.13,3.792,29.7,29.7,0,0,1,8.185,5.212,22.917,22.917,0,0,1,5.626,7.848c1.739,4.033,1.569,8.638,1.4,13.092-.047,1.261-.091,2.451-.091,3.614Zm-24.727-2H196.7V44.718c0-1.2.045-2.408.092-3.688.156-4.232.318-8.608-1.242-12.226-4.229-9.8-16.231-15.645-32.1-15.645a56.022,56.022,0,0,0-19.061,3.154,38.16,38.16,0,0,0-8.32,4.759c-1.16.8-2.359,1.624-3.6,2.4l-1.528.951V14.133l-23.778-.486V75.813h23.778V51.56c0-.709-.012-1.42-.025-2.173-.069-4.066-.147-8.674,1.946-12.513,1.647-3.022,4.763-5.58,9.012-7.4a33.719,33.719,0,0,1,12.986-2.588,26.626,26.626,0,0,1,9.768,1.716,14.406,14.406,0,0,1,7.091,5.587l0,.007c2.4,3.88,2.334,8.616,2.274,12.794-.01.671-.019,1.3-.019,1.936Zm-180.987,2H-35.314V-7.313H-7.009Zm-26.305-2H-9.009V-5.313H-33.314ZM256.461,77.78c-7.073,0-20.684-.834-32.371-6.423a35.685,35.685,0,0,1-12.411-9.336,26.975,26.975,0,0,1-.93-32.83,32.617,32.617,0,0,1,6.615-6.845,36.414,36.414,0,0,1,8.369-4.851,83.258,83.258,0,0,1,31.582-5.83,95.652,95.652,0,0,1,25.9,3.53,51.527,51.527,0,0,1,8.089,3.031,34.358,34.358,0,0,1,7.065,4.466,25.722,25.722,0,0,1,5.463,6.224,25.318,25.318,0,0,1,3.235,8.234l.249,1.2h-28.79l-.222-.7c-2.143-6.711-9.37-9.383-13.487-10.379l-.012,0a29.121,29.121,0,0,0-7.2-.9c-10.2,0-20.9,5.368-21.795,17.362a15.313,15.313,0,0,0,3.967,12.042,19.42,19.42,0,0,0,7.685,4.916,28.784,28.784,0,0,0,9.785,1.662c10.021,0,18.508-4.6,21.623-11.73l.262-.6h27.968l-.009,1.008c-.055,6.5-2.989,12.022-8.721,16.416a38.457,38.457,0,0,1-8.328,4.743,59.262,59.262,0,0,1-8.964,2.951,74.534,74.534,0,0,1-9.493,1.464c-1.237.136-2.516.277-3.77.441A85.53,85.53,0,0,1,256.461,77.78Zm.853-64.115A81.248,81.248,0,0,0,226.5,19.342a32.885,32.885,0,0,0-14.12,11.008,24.726,24.726,0,0,0-4.646,16.9c.933,9.779,6.726,17.281,17.22,22.3,11.331,5.418,24.6,6.227,31.508,6.227a83.542,83.542,0,0,0,11.085-.705c1.278-.168,2.568-.31,3.815-.447a73.034,73.034,0,0,0,9.235-1.419c8.872-2.193,23.634-7.838,24.455-21.176H280.421a20.313,20.313,0,0,1-9.279,9.133,28.489,28.489,0,0,1-6.7,2.4,32.66,32.66,0,0,1-7.2.8,30.8,30.8,0,0,1-10.472-1.784,21.394,21.394,0,0,1-8.463-5.434,16.737,16.737,0,0,1-3.581-5.929,18.862,18.862,0,0,1-.915-7.623,19.074,19.074,0,0,1,8.033-14.516,27.112,27.112,0,0,1,15.756-4.7,31.122,31.122,0,0,1,7.686.955,26.4,26.4,0,0,1,8.94,3.887,15.388,15.388,0,0,1,5.738,7.132h24.865c-2.4-9.341-9.661-15.639-22.167-19.235A93.624,93.624,0,0,0,257.314,13.665ZM51.576,77.753c-3.441,0-7.121-.137-11.248-.421-8.068-.519-17.411-1.421-26.142-5.572A27.767,27.767,0,0,1,.545,57.722a30.857,30.857,0,0,1-2.466-9.47,33.579,33.579,0,0,1,.538-10.046C-.093,31.91,3.5,26.535,9.3,22.231a49.454,49.454,0,0,1,17.711-7.876,92.126,92.126,0,0,1,21.516-2.484,83.259,83.259,0,0,1,17.536,1.773,53.112,53.112,0,0,1,15.765,5.906A32.328,32.328,0,0,1,93.285,30.532,31.886,31.886,0,0,1,97.69,47.351v.993L26.7,48.868A13.352,13.352,0,0,0,33.63,59.941c3.819,2.279,9.141,3.535,14.984,3.535a39.079,39.079,0,0,0,6.861-.6c7.107-1.292,11.45-4.145,12.908-8.478l.229-.681H97.624L97.1,55.078a31.01,31.01,0,0,1-7.661,11.495,35.335,35.335,0,0,1-11.084,6.92C71.246,76.359,62.488,77.753,51.576,77.753ZM48.523,13.871A90.1,90.1,0,0,0,27.48,16.3a47.458,47.458,0,0,0-16.991,7.539c-5.389,4-8.725,8.972-9.914,14.771C-2.156,51.944,3.658,64.541,15.044,69.954c8.411,4,17.529,4.876,25.416,5.383,4.086.28,7.72.416,11.116.416,23.029,0,37.146-6.558,43.091-20.036H70.026a12.781,12.781,0,0,1-5.7,6.232,26.505,26.505,0,0,1-8.493,2.895,40.535,40.535,0,0,1-7.219.633c-6.2,0-11.884-1.356-16.009-3.817a16.394,16.394,0,0,1-5.686-5.464,15.894,15.894,0,0,1-2.255-8.311l-.008-1,1-.007,70.02-.517c-.282-11-5.281-19.434-14.869-25.086C72.711,16.5,61.245,13.871,48.523,13.871ZM366.5,77.737h0a87.612,87.612,0,0,1-22.349-2.644c-7.8-2.07-14.28-5.341-19.261-9.724a27.569,27.569,0,0,1-9.321-20.818,27.216,27.216,0,0,1,2.341-11.008,26.73,26.73,0,0,1,6.986-9.415,44.881,44.881,0,0,1,15.719-8.594,106.011,106.011,0,0,1,30.056-4.491,85.106,85.106,0,0,1,23.468,3.119c8.226,2.4,14.938,6.085,19.949,10.948A26.831,26.831,0,0,1,420.12,33.8a25.873,25.873,0,0,1,2.346,11.651,22.687,22.687,0,0,1-2.959,10.082c-3.088,5.5-8.573,10.471-15.864,14.364A62.791,62.791,0,0,1,383.032,76.6,124.433,124.433,0,0,1,366.5,77.737Zm4.168-64.694a95.635,95.635,0,0,0-12.371.8c-11.333,1.51-23.067,3.985-32.095,11.8a25.136,25.136,0,0,0-8.636,18.919,25.569,25.569,0,0,0,8.642,19.309c11.149,9.81,28.063,11.869,40.289,11.87h0a122.417,122.417,0,0,0,16.26-1.114c12.375-1.677,28.606-8.672,35-20.066,3.456-6.16,3.632-12.875.522-19.959l-.008-.018a24.785,24.785,0,0,0-5.581-8.034C400.592,14.8,381.172,13.043,370.672,13.043ZM-91.259,65.674a30.426,30.426,0,0,1-12.026-2.706,26.583,26.583,0,0,1-10.071-7.46,15.077,15.077,0,0,1-3.2-13.117c1.03-4.467,4.211-8.5,9.2-11.65a38.172,38.172,0,0,1,13.964-5.191,20.25,20.25,0,0,1,3.136-.238A27.8,27.8,0,0,1-77.7,28.555a27.988,27.988,0,0,1,5.467,3.708,22.165,22.165,0,0,1,4.2,4.833,16.142,16.142,0,0,1,2.531,7.266,15.661,15.661,0,0,1-1.573,8.153,20.209,20.209,0,0,1-9.076,9.111,37.38,37.38,0,0,1-12.2,3.851A20.533,20.533,0,0,1-91.259,65.674Zm1-38.363a18.242,18.242,0,0,0-2.825.214,36.1,36.1,0,0,0-13.206,4.905c-3.161,2-7.17,5.429-8.319,10.41a12.577,12.577,0,0,0,.071,6.12,14.543,14.543,0,0,0,2.747,5.3c4.338,5.453,12.973,9.412,20.531,9.412a18.526,18.526,0,0,0,2.615-.178c4.584-.658,15.684-3.128,19.754-11.836l0-.007a13.438,13.438,0,0,0-.843-13.491C-73.7,31.875-82.333,27.311-90.258,27.311ZM369.954,64.27c-8.2,0-15.811-2.674-20.877-7.336a17.221,17.221,0,0,1-4.648-7.051,17.677,17.677,0,0,1-.808-7.921,19.208,19.208,0,0,1,9.862-14.431c4.061-2.214,8.824-3.006,12.969-3.574A28.409,28.409,0,0,1,370.3,23.7c8.083,0,15.793,3.285,20.625,8.787a16.811,16.811,0,0,1,4.009,14.285,20.5,20.5,0,0,1-10.5,14.14,28.468,28.468,0,0,1-9.824,3.063A36.221,36.221,0,0,1,369.954,64.27ZM370.3,25.7a26.414,26.414,0,0,0-3.572.241c-4.151.569-8.52,1.3-12.282,3.348a17.2,17.2,0,0,0-8.836,12.922,15.667,15.667,0,0,0,.713,7.02,15.24,15.24,0,0,0,4.115,6.236c4.7,4.324,11.815,6.806,19.52,6.806a34.222,34.222,0,0,0,4.4-.282h.011a26.391,26.391,0,0,0,9.113-2.836,18.488,18.488,0,0,0,9.485-12.736A14.845,14.845,0,0,0,389.416,33.8C384.96,28.728,377.812,25.7,370.3,25.7ZM71.123,39.407H25l.2-1.17c.76-4.4,3.482-8.018,7.873-10.476A29.416,29.416,0,0,1,47.2,24.442a32.445,32.445,0,0,1,14.859,3.412c4.724,2.488,7.756,6.057,8.769,10.322Zm-43.686-2H68.52C65.827,29.884,55.795,26.442,47.2,26.442a27.4,27.4,0,0,0-13.15,3.064A13.148,13.148,0,0,0,27.437,37.407Z" transform="translate(139.01 6.313)" fill="#fff"/>
      </g>
    </g>
  </g>
</svg>
