<svg xmlns="http://www.w3.org/2000/svg" xmlns:xlink="http://www.w3.org/1999/xlink" width="219.386" height="63.802" viewBox="0 0 219.386 63.802">
  <defs>
    <clipPath id="clip-path">
      <path id="Контур_2" data-name="Контур 2" d="M0-31.673H219.386v-63.8H0Z" transform="translate(0 95.475)" fill="rgba(0,0,0,0)"/>
    </clipPath>
  </defs>
  <g id="Сгруппировать_5" data-name="Сгруппировать 5" transform="translate(0 95.475)">
    <g id="Сгруппировать_4" data-name="Сгруппировать 4" transform="translate(0 -95.475)" clip-path="url(#clip-path)">
      <g id="Сгруппировать_3" data-name="Сгруппировать 3" transform="translate(40.008 0)">
        <path id="Контур_1" data-name="Контур 1" d="M-46.115-15.707c.281-3.774,4.3-5.136,7.515-4.314a4.6,4.6,0,0,1,3.53,2.745H-28.4c-.614-2.972-3.007-4.478-5.752-5.267a22.5,22.5,0,0,0-14.12.562c-2.9,1.206-5.133,3.921-4.815,7.19.632,6.622,9.88,7.844,15.144,7.136a30.444,30.444,0,0,0,3.268-.468c2.876-.711,6.247-2.353,6.276-5.752h-6.537c-2.016,4.612-11.612,4.03-11.176-1.83m-44.52,5.018c-2.93.532-7.421-.212-7.452-3.972l17.65-.13c0-8.528-10.908-9.509-17.258-7.958-3.007.729-6.2,2.467-6.87,5.736a7.129,7.129,0,0,0,3.732,8.064,17.082,17.082,0,0,0,6.407,1.361c5.049.346,11.729.119,13.858-5.372h-6.668c-.484,1.438-2.032,2.023-3.4,2.272m3.53-6.325H-97.957c.766-4.434,9.865-4.155,10.852,0M-.292-18.06a6.381,6.381,0,0,0-1.443-2.08c-3.342-3.244-9.309-3.8-13.723-3.226-2.884.384-5.84,1.029-8.106,2.991a6.577,6.577,0,0,0,0,9.874c3.606,3.173,9.737,3.34,14.251,2.733,4.838-.656,11.6-4.409,9.022-10.293m-8.76,6.42a6.814,6.814,0,0,1-2.354.733,7.807,7.807,0,0,1-6.145-1.685A4.3,4.3,0,0,1-16.5-19.5a9.077,9.077,0,0,1,3.137-.86,6.741,6.741,0,0,1,5.86,2.037c1.942,2.223.872,5.373-1.545,6.681M-55.641-19.5c-1.919-4.445-9.107-4.7-13.03-3.238a17.075,17.075,0,0,0-3.007,1.8v-2.353l-6.406-.131V-7.47h6.406v-6.276a7.319,7.319,0,0,1,.447-3.53c1.425-2.615,7.529-3.351,9.228-.654a6.581,6.581,0,0,1,.523,3.53v6.93h6.145v-7.976c0-1.306.223-2.827-.306-4.053m-60.4-.13c-3.572-4.14-12.2-5.359-16.435-1.7V-23.42h-6.537V-1.978h6.406V-9.692A12.546,12.546,0,0,0-126.067-7.6a16.4,16.4,0,0,0,5.622-.785c4.542-1.553,8.075-6.989,4.407-11.243m-5.321,6.014c-.893,1.912-3.138,2.8-5.1,3.082-2.884.413-7.533-1.955-6.729-5.435.535-2.318,3.419-3.659,5.553-4,3.309-.521,8.034,2.658,6.276,6.348m8.367,6.145h6.537V-28.127h-6.537Zm0-20.657,37.131,1.046h1.046V-47.346h-1.046Zm0-20.265" transform="translate(139.01 47.346)" fill="#005498"/>
      </g>
    </g>
    <path id="Контур_3" data-name="Контур 3" d="M182.909-47.865h36.477v-1.046H182.909Zm0-1.046M0-47.865H36.477v-1.046H0Zm0-1.046M103.155-16.226H104.2V-36.491h-1.046Z" transform="translate(0 -15.447)" fill="#005498"/>
  </g>
</svg>
