<svg id="pot" xmlns="http://www.w3.org/2000/svg" width="50.361" height="50.352" viewBox="0 0 50.361 50.352">
  <path id="Контур_21" data-name="Контур 21" d="M51.361,31.869a2.44,2.44,0,0,0-2.437-2.437H45.675a2.431,2.431,0,0,0-.812,4.724v.149a.813.813,0,0,1-.812.812H42.426V30.129a3.234,3.234,0,0,0-.329-6.334c1.1-2.958-.837-8-4.961-12.922l1.355-1.355A2.431,2.431,0,0,0,41.257,5.6L37.811,2.156A2.431,2.431,0,0,0,33.9,4.922L32.542,6.277C26.77,1.441,20.825-.385,18.283,2.158a.811.811,0,0,0,0,1.149L38.722,23.746H10.747a3.242,3.242,0,0,0-.812,6.383v4.989H8.311a.813.813,0,0,1-.812-.812v-.149a2.431,2.431,0,0,0-.812-4.724H3.437a2.431,2.431,0,0,0-.812,4.724v.962A4.879,4.879,0,0,0,7.5,39.992H9.935v5.686a5.693,5.693,0,0,0,5.686,5.686H36.74a5.693,5.693,0,0,0,5.686-5.686V39.992h2.437a4.879,4.879,0,0,0,4.874-4.874v-.962a2.434,2.434,0,0,0,1.625-2.287ZM35.514,3.307a.813.813,0,0,1,1.149,0l3.446,3.446A.812.812,0,0,1,38.959,7.9L35.514,4.455A.813.813,0,0,1,35.514,3.307Zm-.574,2.872,2.3,2.3L36.063,9.651q-.542-.591-1.123-1.174T33.766,7.353ZM33.791,9.625c4.485,4.485,8.05,10.827,6.783,13.676L20.115,2.841C22.965,1.575,29.306,5.14,33.791,9.625ZM9.123,27a1.626,1.626,0,0,1,1.625-1.625H41.614a1.625,1.625,0,1,1,0,3.249H10.747A1.626,1.626,0,0,1,9.123,27ZM3.437,31.056H6.686a.812.812,0,1,1,0,1.625H3.437a.812.812,0,0,1,0-1.625ZM7.5,38.367a3.252,3.252,0,0,1-3.249-3.249v-.812H5.874A2.44,2.44,0,0,0,8.31,36.742H9.935v1.625ZM36.74,49.739H15.621a4.066,4.066,0,0,1-4.061-4.061V30.244H40.8V45.677A4.066,4.066,0,0,1,36.74,49.739Zm8.123-11.372H42.426V36.742h1.625a2.44,2.44,0,0,0,2.437-2.437h1.625v.812A3.252,3.252,0,0,1,44.863,38.367Zm4.061-5.686H45.675a.812.812,0,1,1,0-1.625h3.249a.812.812,0,0,1,0,1.625Z" transform="translate(-1 -1.012)" fill="#012f55"/>
  <path id="Контур_22" data-name="Контур 22" d="M46.625,53.372A1.626,1.626,0,0,1,45,55v1.625a3.252,3.252,0,0,0,3.249-3.249V42H46.625Z" transform="translate(-9.26 -8.706)" fill="#012f55"/>
  <path id="Контур_23" data-name="Контур 23" d="M16.813,18.89a2.13,2.13,0,0,1,0,3.012l-1.575,1.575,1.149,1.149,1.575-1.575a3.753,3.753,0,0,0,0-5.309l-.714-.714a2.13,2.13,0,0,1,0-3.011l1.575-1.575-1.149-1.149L16.1,12.868a3.753,3.753,0,0,0,0,5.309Z" transform="translate(-3.628 -2.942)" fill="#012f55"/>
  <path id="Контур_24" data-name="Контур 24" d="M27.823,12.442l-1.149-1.149L25.1,12.868a3.753,3.753,0,0,0,0,5.309l.714.714a2.13,2.13,0,0,1,0,3.011l-1.575,1.575,1.149,1.149,1.575-1.575a3.753,3.753,0,0,0,0-5.309l-.714-.714a2.13,2.13,0,0,1,0-3.011Z" transform="translate(-5.318 -2.942)" fill="#012f55"/>
</svg>
