<svg xmlns="http://www.w3.org/2000/svg" width="663.631" height="146.584" viewBox="0 0 663.631 146.584">
  <g id="Сгруппировать_1332" data-name="Сгруппировать 1332" transform="translate(-64.504 -225.389)">
    <path id="Контур_27619" data-name="Контур 27619" d="M297.905,226.076l282.872,34.374,3.581,104.555H297.905Z" transform="translate(143.259 0)" fill="none" stroke="#012f55" stroke-miterlimit="10" stroke-width="1"/>
    <path id="Контур_27620" data-name="Контур 27620" d="M202.134,276.206l154.684-50.129v138.93l-154.684,6.445Z" transform="translate(84.346 0)" fill="none" stroke="#012f55" stroke-miterlimit="10" stroke-width="1"/>
    <path id="Контур_27621" data-name="Контур 27621" d="M402.988,251.35l21.3,1.969v23.169l-21.3-1.685Z" transform="translate(207.899 15.546)" fill="none" stroke="#012f55" stroke-miterlimit="10" stroke-width="1"/>
    <path id="Контур_27622" data-name="Контур 27622" d="M402.988,272.521l21.3,1.074v22.29h-21.3Z" transform="translate(207.899 28.57)" fill="none" stroke="#012f55" stroke-miterlimit="10" stroke-width="1"/>
    <rect id="Прямоугольник_7924" data-name="Прямоугольник 7924" width="20.947" height="24.169" transform="translate(612.588 337.077)" fill="none" stroke="#012f55" stroke-miterlimit="10" stroke-width="1"/>
    <path id="Контур_27623" data-name="Контур 27623" d="M297.905,235.942l167.4,17.724v16.662l-167.4-15.659Z" transform="translate(143.259 6.069)" fill="none" stroke="#012f55" stroke-miterlimit="10" stroke-width="1"/>
    <path id="Контур_27624" data-name="Контур 27624" d="M417.01,248.246l90.89,9.914.5,14.521-91.387-8.322Z" transform="translate(216.524 13.637)" fill="none" stroke="#012f55" stroke-miterlimit="10" stroke-width="1"/>
    <path id="Контур_27625" data-name="Контур 27625" d="M417.01,269.085l91.939,6.908.5,14.5-92.436-4.179Z" transform="translate(216.524 26.456)" fill="none" stroke="#012f55" stroke-miterlimit="10" stroke-width="1"/>
    <path id="Контур_27626" data-name="Контур 27626" d="M418.341,289.98l57.738,1.88v15.576l-57.738-1.611Z" transform="translate(217.343 39.309)" fill="none" stroke="#012f55" stroke-miterlimit="10" stroke-width="1"/>
    <path id="Контур_27627" data-name="Контур 27627" d="M335.372,288l96.409,1.855v17.187H335.372Z" transform="translate(166.306 38.091)" fill="none" stroke="#012f55" stroke-miterlimit="10" stroke-width="1"/>
    <rect id="Прямоугольник_7925" data-name="Прямоугольник 7925" width="7.519" height="14.77" transform="translate(487.981 341.642)" fill="none" stroke="#012f55" stroke-miterlimit="10" stroke-width="1"/>
    <path id="Контур_27628" data-name="Контур 27628" d="M297.905,261.548l167.4,11.01v17.187l-167.4-7.788Z" transform="translate(143.259 21.819)" fill="none" stroke="#012f55" stroke-miterlimit="10" stroke-width="1"/>
    <path id="Контур_27629" data-name="Контур 27629" d="M202.134,279.447l154.684-43.505v18.727L202.134,292.7Z" transform="translate(84.346 6.069)" fill="none" stroke="#012f55" stroke-miterlimit="10" stroke-width="1"/>
    <path id="Контур_27630" data-name="Контур 27630" d="M202.134,291.625l154.684-30.078v20.41L202.134,304.272Z" transform="translate(84.346 21.819)" fill="none" stroke="#012f55" stroke-miterlimit="10" stroke-width="1"/>
    <path id="Контур_27631" data-name="Контур 27631" d="M362.545,284.382H335.69L192.822,298.705" transform="translate(78.618 35.866)" fill="none" stroke="#012f55" stroke-miterlimit="10" stroke-width="1"/>
    <path id="Контур_27632" data-name="Контур 27632" d="M232.374,265.014l-18.172-.806-60.155,18.8-1.074,55.59,60.155,1.88h19.246" transform="translate(54.106 23.456)" fill="none" stroke="#012f55" stroke-miterlimit="10" stroke-width="1"/>
    <line id="Линия_180" data-name="Линия 180" x1="1.074" y2="76.268" transform="translate(267.233 287.664)" fill="none" stroke="#012f55" stroke-miterlimit="10" stroke-width="1"/>
    <path id="Контур_27633" data-name="Контур 27633" d="M194.788,278.772c-1.817-.01-106.282-2.426-106.282-2.426s-2.686,58.274-1.612,58.006,106.883,0,106.883,0Z" transform="translate(13.302 30.923)" fill="none" stroke="#012f55" stroke-miterlimit="10" stroke-width="1"/>
    <path id="Контур_27634" data-name="Контур 27634" d="M100.2,334.352H65.016L66.09,290h4.834v5.172L80.055,290v13.651l11.279-3.4v-18.53l10.473-5.371,106.283,2.426-.206,10.554L101.357,286.55l-.529,12.873,107.056,2.166-.395,10.2-107.547-1.34" transform="translate(0 30.922)" fill="none" stroke="#012f55" stroke-miterlimit="10" stroke-width="1"/>
    <path id="Контур_27635" data-name="Контур 27635" d="M153.678,284.573l59.143-17.66h19.246v10.668l-18.709-.269-59.887,15.039Z" transform="translate(54.412 25.121)" fill="none" stroke="#012f55" stroke-miterlimit="10" stroke-width="1"/>
    <path id="Контур_27636" data-name="Контур 27636" d="M153.472,292.6l59.349-9.936h19.246v12.353H212.821l-59.349,6.446Z" transform="translate(54.412 34.809)" fill="none" stroke="#012f55" stroke-miterlimit="10" stroke-width="1"/>
  </g>
</svg>
