<svg xmlns="http://www.w3.org/2000/svg" width="559.011" height="877.5" viewBox="0 0 559.011 877.5">
  <g id="Сгруппировать_1213" data-name="Сгруппировать 1213" transform="translate(-24.199 -3919)">
    <path id="Линия_97" data-name="Линия 97" d="M.5,877h-1V0h1Z" transform="translate(59.56 3919.502)" fill="#bbe6e4"/>
    <path id="Линия_99" data-name="Линия 99" d="M.5,877h-1V0h1Z" transform="translate(24.699 3919.002)" fill="#bbe6e4"/>
    <path id="Линия_98" data-name="Линия 98" d="M.5,877h-1V0h1Z" transform="translate(94.45 3919.002)" fill="#bbe6e4"/>
    <path id="Линия_100" data-name="Линия 100" d="M.5,877h-1L-.3,0h1Z" transform="translate(129.301 3919.5)" fill="#bbe6e4"/>
    <path id="Линия_101" data-name="Линия 101" d="M.5,877h-1V0h1Z" transform="translate(164.2 3919)" fill="#bbe6e4"/>
    <path id="Линия_102" data-name="Линия 102" d="M.5,877h-1V0h1Z" transform="translate(199.1 3919)" fill="#bbe6e4"/>
    <path id="Линия_103" data-name="Линия 103" d="M.5,877h-1V0h1Z" transform="translate(233.95 3919)" fill="#bbe6e4"/>
    <path id="Линия_104" data-name="Линия 104" d="M.5,877h-1V0h1Z" transform="translate(268.85 3919)" fill="#bbe6e4"/>
    <path id="Линия_105" data-name="Линия 105" d="M.5,877h-1V0h1Z" transform="translate(303.699 3919)" fill="#bbe6e4"/>
    <path id="Линия_106" data-name="Линия 106" d="M.5,877h-1V0h1Z" transform="translate(338.6 3919.502)" fill="#bbe6e4"/>
    <path id="Линия_107" data-name="Линия 107" d="M.5,877h-1V0h1Z" transform="translate(373.45 3919)" fill="#bbe6e4"/>
    <path id="Линия_108" data-name="Линия 108" d="M.5,877h-1V0h1Z" transform="translate(408.35 3919)" fill="#bbe6e4"/>
    <path id="Линия_109" data-name="Линия 109" d="M.5,877h-1V0h1Z" transform="translate(443.2 3919)" fill="#bbe6e4"/>
    <path id="Линия_110" data-name="Линия 110" d="M.5,877h-1V0h1Z" transform="translate(478.1 3919)" fill="#bbe6e4"/>
    <path id="Линия_111" data-name="Линия 111" d="M.5,877h-1V0h1Z" transform="translate(512.9 3919.502)" fill="#bbe6e4"/>
    <path id="Линия_112" data-name="Линия 112" d="M.5,877h-1V0h1Z" transform="translate(547.84 3919)" fill="#bbe6e4"/>
    <path id="Линия_113" data-name="Линия 113" d="M.5,877h-1V0h1Z" transform="translate(582.71 3919)" fill="#bbe6e4"/>
  </g>
</svg>
