<svg id="tyre" xmlns="http://www.w3.org/2000/svg" width="52.941" height="52.941" viewBox="0 0 52.941 52.941">
  <path id="Контур_25" data-name="Контур 25" d="M117.978,102.06A15.918,15.918,0,1,0,133.9,117.978,15.936,15.936,0,0,0,117.978,102.06Zm0,30.284a14.367,14.367,0,1,1,14.367-14.367A14.383,14.383,0,0,1,117.978,132.344Z" transform="translate(-91.507 -91.507)" fill="#012f55"/>
  <path id="Контур_26" data-name="Контур 26" d="M145.37,158.129a12.655,12.655,0,0,0,5.335-1.166.776.776,0,0,0-.649-1.409,11.223,11.223,0,1,1,2.376-1.48.776.776,0,0,0,.978,1.2,12.759,12.759,0,1,0-8.039,2.851Z" transform="translate(-118.899 -118.9)" fill="#012f55"/>
  <path id="Контур_27" data-name="Контур 27" d="M221.795,217.85a3.945,3.945,0,1,0,3.945,3.945A3.949,3.949,0,0,0,221.795,217.85Zm0,6.338a2.394,2.394,0,1,1,2.394-2.394A2.4,2.4,0,0,1,221.795,224.189Z" transform="translate(-195.324 -195.324)" fill="#012f55"/>
  <path id="Контур_28" data-name="Контур 28" d="M52.922,27.431c.011-.319.019-.639.019-.961A26.478,26.478,0,0,0,13.287,3.512a.775.775,0,0,0,.774,1.344,24.662,24.662,0,0,1,2.646-1.317l.845,2.233a.759.759,0,0,0,1.42-.537l-.85-2.247a24.99,24.99,0,0,1,8.35-1.436l.158,0L26.544,3.8a.767.767,0,0,0,.738.795h.029a.767.767,0,0,0,.766-.738l.084-2.25a24.789,24.789,0,0,1,7.85,1.826L35.079,5.5a.767.767,0,1,0,1.4.631l.932-2.066A24.955,24.955,0,0,1,44.092,8.85l.112.115L42.549,10.5a.767.767,0,1,0,1.043,1.124l1.656-1.536a24.788,24.788,0,0,1,4.26,6.845l-2.127.8a.767.767,0,1,0,.543,1.434l2.125-.8a24.956,24.956,0,0,1,1.343,8.1c0,.053,0,.106,0,.159L49.4,26.555a.776.776,0,1,0-.058,1.55l1.993.075a24.78,24.78,0,0,1-1.88,7.959l-.023-.012-2.482-1.119a.759.759,0,1,0-.624,1.384L48.8,37.51l.016.006a24.963,24.963,0,0,1-4.73,6.575c-.09.09-.182.178-.273.267L42,42.4a.759.759,0,1,0-1.113,1.032l1.809,1.95a24.768,24.768,0,0,1-6.943,4.225l-.917-2.425a.759.759,0,0,0-1.42.537l.912,2.411a24.972,24.972,0,0,1-7.86,1.259c-.151,0-.3,0-.451-.005l.093-2.47a.759.759,0,1,0-1.517-.057L24.5,51.313A24.764,24.764,0,0,1,16.686,49.4l.98-2.171a.759.759,0,0,0-1.384-.624l-.974,2.158A24.97,24.97,0,0,1,8.85,44.091c-.085-.085-.167-.171-.25-.256l1.671-1.55a.759.759,0,1,0-1.032-1.113L7.573,42.717a24.775,24.775,0,0,1-4.178-6.8l2.093-.792a.759.759,0,1,0-.537-1.42l-2.087.789a24.96,24.96,0,0,1-1.314-8.02c0-.053,0-.105,0-.158l2.2.083h.029a.759.759,0,0,0,.028-1.517L1.608,24.8a24.546,24.546,0,0,1,1.8-7.767l2.039.92a.759.759,0,0,0,.624-1.384l-2.043-.922c.062-.129.124-.259.188-.387A25.118,25.118,0,0,1,8.83,8.875l1.557,1.679A.759.759,0,0,0,11.5,9.521L9.934,7.833c.452-.4.917-.79,1.4-1.157a.775.775,0,1,0-.943-1.231,26.717,26.717,0,0,0-7.562,9.113A26.476,26.476,0,0,0,26.471,52.941,26.468,26.468,0,0,0,52.92,27.494c0-.01,0-.02,0-.031s0-.021,0-.032Z" transform="translate(0 0)" fill="#012f55"/>
  <path id="Контур_29" data-name="Контур 29" d="M237.109,163.66a2.178,2.178,0,1,0,2.179,2.179A2.181,2.181,0,0,0,237.109,163.66Zm0,2.805a.627.627,0,1,1,.628-.627A.628.628,0,0,1,237.109,166.465Z" transform="translate(-210.638 -146.737)" fill="#012f55"/>
  <path id="Контур_30" data-name="Контур 30" d="M289.048,185.183a2.178,2.178,0,1,0,.638,1.54A2.179,2.179,0,0,0,289.048,185.183Zm-1.54,2.167a.628.628,0,1,1,.628-.628A.628.628,0,0,1,287.509,187.35Z" transform="translate(-255.827 -165.463)" fill="#012f55"/>
  <path id="Контур_31" data-name="Контур 31" d="M308.379,234.93a2.179,2.179,0,1,0,2.179,2.179A2.182,2.182,0,0,0,308.379,234.93Zm0,2.806a.628.628,0,1,1,.628-.628A.628.628,0,0,1,308.379,237.736Z" transform="translate(-274.539 -210.638)" fill="#012f55"/>
  <path id="Контур_32" data-name="Контур 32" d="M289.048,285.979a2.178,2.178,0,1,0,.638,1.541A2.181,2.181,0,0,0,289.048,285.979Zm-1.54,2.168a.628.628,0,1,1,.627-.628A.628.628,0,0,1,287.509,288.148Z" transform="translate(-255.827 -255.838)" fill="#012f55"/>
  <path id="Контур_33" data-name="Контур 33" d="M237.109,306.21a2.178,2.178,0,1,0,2.179,2.178A2.18,2.18,0,0,0,237.109,306.21Zm0,2.805a.627.627,0,1,1,.628-.628A.628.628,0,0,1,237.109,309.015Z" transform="translate(-210.638 -274.548)" fill="#012f55"/>
  <path id="Контур_34" data-name="Контур 34" d="M188.263,285.968a2.178,2.178,0,1,0,.638,1.541A2.164,2.164,0,0,0,188.263,285.968Zm-1.541,2.167a.627.627,0,1,1,.628-.627A.626.626,0,0,1,186.722,288.135Z" transform="translate(-165.463 -255.827)" fill="#012f55"/>
  <path id="Контур_35" data-name="Контур 35" d="M165.839,234.93a2.179,2.179,0,1,0,2.178,2.179A2.181,2.181,0,0,0,165.839,234.93Zm0,2.806a.628.628,0,1,1,.628-.628A.628.628,0,0,1,165.839,237.736Z" transform="translate(-146.737 -210.638)" fill="#012f55"/>
  <path id="Контур_36" data-name="Контур 36" d="M188.263,185.169a2.178,2.178,0,1,0,.638,1.54A2.165,2.165,0,0,0,188.263,185.169Zm-1.541,2.167a.628.628,0,1,1,.628-.628A.627.627,0,0,1,186.722,187.336Z" transform="translate(-165.463 -165.449)" fill="#012f55"/>
</svg>
