<svg xmlns="http://www.w3.org/2000/svg" width="120.37" height="120.37" viewBox="0 0 120.37 120.37">
  <g id="Сгруппировать_1705" data-name="Сгруппировать 1705" transform="translate(-2.213 -2.213)">
    <path id="Контур_27693" data-name="Контур 27693" d="M62.4,122.583A60.185,60.185,0,1,1,122.583,62.4,60.186,60.186,0,0,1,62.4,122.583m0-11.178A49.011,49.011,0,1,0,13.387,62.394,49.012,49.012,0,0,0,62.4,111.4"/>
    <path id="Контур_27694" data-name="Контур 27694" d="M33.038,30.121h11.1V65.878c0,2.276.695,4.234,3.857,4.234,2.909,0,3.8-2.528,3.8-4.549V30.121h11.1v34.3c0,8.026-3.6,14.222-14.957,14.222-9.407,0-14.893-4.489-14.893-14.222v-34.3"/>
    <path id="Контур_27695" data-name="Контур 27695" d="M67.257,94.683V47.26h11.1V85.183H91.946v9.5H67.257"/>
    <path id="Контур_27696" data-name="Контур 27696" d="M46.572,85.113h1.152c.551,0,1.545.029,1.565,1.3a1.264,1.264,0,0,1-1.428,1.355H46.572V85.113m0,3.393H48c.965,0,1.26.628,1.26,1.365a6.734,6.734,0,0,0,.256,1.876h.953v-.166c-.2,0-.256-.324-.285-.462-.079-.549-.128-1.09-.157-1.64-.118-.983-.354-1.289-1.308-1.378v-.02a1.578,1.578,0,0,0,1.416-1.6c.049-1.7-.934-2.106-2.479-2.106h-1.9v7.375h.817V88.506"/>
    <path id="Контур_27697" data-name="Контур 27697" d="M41.243,88.06a6.737,6.737,0,1,0,6.737-6.738A6.745,6.745,0,0,0,41.243,88.06Zm.708,0a6.029,6.029,0,1,1,6.029,6.028A6.036,6.036,0,0,1,41.951,88.06Z"/>
  </g>
</svg>
