<svg xmlns="http://www.w3.org/2000/svg" width="60.462" height="54.325" viewBox="0 0 60.462 54.325">
  <g id="v-engine" transform="translate(0.001 -0.001)">
    <g id="Сгруппировать_1182" data-name="Сгруппировать 1182" transform="translate(-0.001 0.001)">
      <path id="Контур_27610" data-name="Контур 27610" d="M58.292,32.661l-6.325-3.37a16.86,16.86,0,0,0-4.731-1.722l-7.011-1.484a3.664,3.664,0,0,0-4.382,2.163l-1.212,3.329a1.181,1.181,0,0,0,.706,1.513l.661.24-.582,2.285a10.608,10.608,0,0,0-10.371,0l-.582-2.285.66-.24a1.181,1.181,0,0,0,.706-1.513l-1.212-3.33a3.664,3.664,0,0,0-4.382-2.163l-7.011,1.484A16.855,16.855,0,0,0,8.5,29.291l-6.325,3.37A3.664,3.664,0,0,0,.2,37.134l1.212,3.329a1.18,1.18,0,0,0,1.514.706l.66-.24,1.033,2.145a1.181,1.181,0,0,0,.921,2.171l.105-.038,1.033,2.144A1.181,1.181,0,0,0,7.6,49.522l.105-.038,1.032,2.144A1.181,1.181,0,0,0,9.663,53.8l.105-.038L10.8,55.905a1.181,1.181,0,0,0,.921,2.171l.105-.038,1.709,3.549a2.625,2.625,0,0,0-.338,1.282v2.215l-2.858,1.872a2.633,2.633,0,0,0-1.2,2.208v3.648a2.643,2.643,0,0,0,2.64,2.64h5.171l2.038,3.53a2.645,2.645,0,0,0,2.283,1.327H34.21a9.986,9.986,0,0,0,8.563-4.858h5.9a2.643,2.643,0,0,0,2.64-2.64V69.162a2.632,2.632,0,0,0-1.195-2.206l-2.858-1.872V62.867a2.624,2.624,0,0,0-.338-1.281l1.709-3.548.105.038a1.181,1.181,0,0,0,.921-2.171l1.033-2.144.105.038a1.181,1.181,0,0,0,.921-2.171l1.032-2.144.105.038a1.181,1.181,0,0,0,.921-2.171l1.033-2.145.105.038a1.181,1.181,0,0,0,.921-2.171l1.033-2.145.66.24a1.181,1.181,0,0,0,1.514-.706l1.212-3.329a3.663,3.663,0,0,0-1.966-4.473ZM38.5,44.891a8.267,8.267,0,1,1-8.267-8.266A8.276,8.276,0,0,1,38.5,44.891ZM9.738,37.435a1.181,1.181,0,0,0-1.514-.706L3.232,38.546l-.808-2.219a1.375,1.375,0,0,1,.857-1.581l6.324-3.37a14.518,14.518,0,0,1,4.109-1.5L20.726,28.4a1.375,1.375,0,0,1,1.673.66l.808,2.22-4.993,1.817a1.181,1.181,0,1,0,.808,2.219l3.212-1.169.586,2.3L6.851,42.256l-1.03-2.139,3.211-1.169a1.181,1.181,0,0,0,.706-1.514Zm11.269,2.182a10.559,10.559,0,0,0-1.142,2.929L8.91,46.533,7.88,44.394Zm-1.4,5.537a10.6,10.6,0,0,0,.332,2.392L10.969,50.81,9.94,48.672Zm1.175,4.6a10.666,10.666,0,0,0,1.356,2.02l-9.109,3.315L12,52.949ZM24.1,53.57a10.649,10.649,0,0,0,1.381.828,2.62,2.62,0,0,0-.921.392l-9.137,5.275-1.367-2.839ZM34.21,77.946a7.621,7.621,0,1,1,7.621-7.621A7.63,7.63,0,0,1,34.21,77.946Zm-9.983-7.621c0,.069,0,.137.005.205a3.406,3.406,0,1,1,1.662-5.721,9.924,9.924,0,0,0-1.668,5.516Zm24.6-1.393a.279.279,0,0,1,.126.231v3.648a.278.278,0,0,1-.278.278H43.8A9.976,9.976,0,0,0,27.429,63.007a5.776,5.776,0,1,0-2.872,9.866,10,10,0,0,0,3.214,5.074H21.279a.278.278,0,0,1-.238-.145l-2.38-4.123a1.181,1.181,0,0,0-1.023-.59H11.785a.278.278,0,0,1-.278-.278V69.164a.28.28,0,0,1,.127-.233l3.392-2.222a1.181,1.181,0,0,0,.534-.988V62.87a.278.278,0,0,1,.145-.238l10.08-5.82c.032-.019.064-.039.094-.06a.271.271,0,0,1,.16-.051h8.383a.272.272,0,0,1,.16.051q.046.032.094.06l10.082,5.821a.277.277,0,0,1,.143.235v2.853a1.181,1.181,0,0,0,.534.988Zm-3.792-8.866L35.9,54.79a2.619,2.619,0,0,0-.92-.392,10.646,10.646,0,0,0,1.38-.828L46.4,57.226Zm2.4-4.978-9.109-3.315a10.666,10.666,0,0,0,1.356-2.02l8.782,3.2Zm2.059-4.277-8.969-3.264a10.6,10.6,0,0,0,.332-2.392l9.667,3.518Zm2.059-4.277L40.6,42.546a10.558,10.558,0,0,0-1.142-2.929l13.127,4.778Zm2.06-4.277L37.644,36.444l.586-2.3,16.413,5.974Zm4.427-5.929-.808,2.219-19.975-7.27.808-2.22a1.375,1.375,0,0,1,1.673-.66l7.011,1.484a14.52,14.52,0,0,1,4.109,1.5l6.325,3.37a1.375,1.375,0,0,1,.857,1.581Z" transform="translate(0 -25.984)" fill="#012f55"/>
      <path id="Контур_27611" data-name="Контур 27611" d="M220.716,155.539a4.724,4.724,0,1,0-4.724-4.724A4.729,4.729,0,0,0,220.716,155.539Zm0-7.086a2.362,2.362,0,1,1-2.362,2.362A2.365,2.365,0,0,1,220.716,148.454Z" transform="translate(-190.485 -131.908)" fill="#012f55"/>
      <path id="Контур_27612" data-name="Контур 27612" d="M270.09,391.462h-3.33a1.181,1.181,0,1,0,0,2.362h3.33a1.181,1.181,0,1,0,0-2.362Z" transform="translate(-234.216 -348.302)" fill="#012f55"/>
      <path id="Контур_27613" data-name="Контур 27613" d="M106.534,103.336a1.181,1.181,0,1,0,0-2.362h0a1.181,1.181,0,0,0,0,2.362Z" transform="translate(-92.911 -92.118)" fill="#012f55"/>
    </g>
  </g>
</svg>
