<svg id="valve" xmlns="http://www.w3.org/2000/svg" width="62.26" height="44.62" viewBox="0 0 62.26 44.62">
  <g id="Сгруппировать_11" data-name="Сгруппировать 11" transform="translate(0 0)">
    <path id="Контур_37" data-name="Контур 37" d="M49.808,93.94V92.9a3.113,3.113,0,0,0-6.226,0V93.94H39.928a10.771,10.771,0,0,0-1.95-1.858q-.311-.233-.623-.435v-4.97h2.075a3.113,3.113,0,1,0,0-6.226H35.281V78.375h2.075a1.038,1.038,0,0,0,1.038-1.038V74.224H44.62a3.113,3.113,0,0,0,0-6.226H17.64a3.113,3.113,0,0,0,0,6.226h6.226v3.113A1.038,1.038,0,0,0,24.9,78.375h2.075V80.45H22.829a3.113,3.113,0,1,0,0,6.226H24.9v4.97c-.208.134-.415.277-.615.431a10.735,10.735,0,0,0-1.957,1.863H18.678V92.9a3.113,3.113,0,0,0-6.226,0V93.94H0v14.527H12.452V109.5a3.113,3.113,0,0,0,6.226,0v-1.038h3.656a11.4,11.4,0,0,0,17.593,0h3.656V109.5a3.113,3.113,0,0,0,6.226,0v-1.038H62.26V93.94ZM12.452,106.392H2.075V96.015H12.452ZM16.6,109.5a1.038,1.038,0,1,1-2.075,0V92.9a1.038,1.038,0,0,1,1.038-1.038,1.01,1.01,0,0,1,.739.318.993.993,0,0,1,.3.72ZM17.64,72.149a1.038,1.038,0,1,1,0-2.075H44.62a1.038,1.038,0,1,1,0,2.075Zm8.3,4.151V74.224H36.318V76.3Zm7.264,2.075V80.45H29.055V78.375ZM22.829,84.6a1.038,1.038,0,0,1-1.038-1.038,1.01,1.01,0,0,1,.318-.739.993.993,0,0,1,.72-.3h16.6a1.038,1.038,0,0,1,1.038,1.038,1.01,1.01,0,0,1-.318.739.993.993,0,0,1-.72.3Zm20.753,21.791H39.421a1.038,1.038,0,0,0-.83.415,9.318,9.318,0,0,1-14.922,0,1.038,1.038,0,0,0-.83-.415H18.678V96.015h4.161a1.037,1.037,0,0,0,.83-.422,9.275,9.275,0,0,1,2.791-2.463,1.037,1.037,0,0,0,.519-.9V86.676h8.3v5.552a1.038,1.038,0,0,0,.519.9,8.834,8.834,0,0,1,.934.623A8.688,8.688,0,0,1,38.578,95.6a1.037,1.037,0,0,0,.83.422h4.174Zm4.151,3.113a1.038,1.038,0,1,1-2.075,0V92.9a1.01,1.01,0,0,1,.318-.739.993.993,0,0,1,.72-.3A1.038,1.038,0,0,1,47.733,92.9Zm12.452-3.113H49.808V96.015H60.185Z" transform="translate(0 -67.998)" fill="#012f55"/>
  </g>
</svg>
